{
 "cells": [
  {
   "cell_type": "markdown",
   "id": "03fa090a-a764-4e08-b544-7423955355f1",
   "metadata": {},
   "source": [
    "# Introduction to MIDI Files\n",
    "\n",
    "MIDI stands for Musical Instrument Digital Interface. As the name suggests, it is a way for computers to emulate the sounds of an authentic hand-played instrument. Since its introduction in 1983 as a product of Dave Smith and Ikutaro Kakehashi, the MIDI file format has become the industry standard for synthesisers [1]. Both won the Technical Grammy award for their contribution."
   ]
  },
  {
   "cell_type": "markdown",
   "id": "b7c3e648-9b54-4bba-90e5-bf6495eb7a97",
   "metadata": {},
   "source": [
    "#### Boilerplate Code - Playing Notes\n",
    "\n",
    "In Python we can use the _Mido_ library that is a front-end for the RtMidi library which is written in C. Using the default synthesiser, _Microsoft GS Wavetable Synth_ on Windows,"
   ]
  },
  {
   "cell_type": "code",
   "execution_count": 1,
   "id": "1204df99-68ae-47b6-9521-bdbbf15ae43b",
   "metadata": {},
   "outputs": [
    {
     "name": "stdout",
     "output_type": "stream",
     "text": [
      "<open output 'Microsoft GS Wavetable Synth 0' (RtMidi/WINDOWS_MM)>\n"
     ]
    }
   ],
   "source": [
    "import mido\n",
    "\n",
    "# Interfacing with Microsoft GS Wavetable Synth,\n",
    "port = mido.open_output()\n",
    "print(port)"
   ]
  },
  {
   "cell_type": "markdown",
   "id": "599e734f-38d1-40ca-bf1f-134bb621b03f",
   "metadata": {},
   "source": [
    "Playing a note,"
   ]
  },
  {
   "cell_type": "code",
   "execution_count": 2,
   "id": "f4f34e33-30f9-4b78-b2ec-290965d90512",
   "metadata": {},
   "outputs": [],
   "source": [
    "msg = mido.Message(\"note_on\", channel = 0, note = 46, velocity = 120, time = 4)\n",
    "port.send(msg)"
   ]
  },
  {
   "cell_type": "markdown",
   "id": "58db5236-c9b7-41d1-9f81-07b9ea63ead3",
   "metadata": {},
   "source": [
    "#### Opening MIDI Files\n",
    "\n",
    "Let us now open a MIDI file and look at its contents. We see that it has a header which contains the meta information such as the track name, copyright and song title. The body then consists of the notes which compose the piece."
   ]
  },
  {
   "cell_type": "code",
   "execution_count": 3,
   "id": "6f31e254-0edb-41b7-a385-32d6078fdf07",
   "metadata": {},
   "outputs": [
    {
     "name": "stdout",
     "output_type": "stream",
     "text": [
      "MidiFile(type=1, ticks_per_beat=4000, tracks=[\n",
      "  MidiTrack([\n",
      "    MetaMessage('set_tempo', tempo=500000, time=0),\n",
      "    MetaMessage('end_of_track', time=0)]),\n",
      "  MidiTrack([\n",
      "    Message('note_on', channel=0, note=59, velocity=44, time=39940),\n",
      "    Message('note_off', channel=0, note=59, velocity=64, time=2200),\n",
      "    Message('note_on', channel=0, note=40, velocity=22, time=3480),\n",
      "    Message('note_on', channel=0, note=64, velocity=54, time=10),\n",
      "    Message('note_on', channel=0, note=56, velocity=26, time=580),\n",
      "    Message('note_on', channel=0, note=47, velocity=20, time=5250),\n",
      "    Message('note_on', channel=0, note=59, velocity=37, time=110),\n",
      "    Message('note_off', channel=0, note=56, velocity=64, time=260),\n",
      "    Message('note_off', channel=0, note=64, velocity=64, time=3450),\n",
      "    Message('note_on', channel=0, note=63, velocity=52, time=500),\n",
      "    Message('note_off', channel=0, note=47, velocity=64, time=0),\n",
      "    Message('note_on', channel=0, note=56, velocity=32, time=320),\n",
      "    Message('note_off', channel=0, note=59, velocity=64, time=470),\n",
      "    Message('note_off', channel=0, note=56, velocity=64, time=2010),\n",
      "    Message('note_on', channel=0, note=64, velocity=59, time=1230),\n",
      "    Message('note_on', channel=0, note=59, velocity=41, time=210),\n",
      "    Message('note_on', channel=0, note=47, velocity=26, time=130),\n",
      "    Message('note_off', channel=0, note=63, velocity=64, time=60),\n",
      "    Message('note_off', channel=0, note=40, velocity=64, time=180),\n",
      "    Message('note_on', channel=0, note=66, velocity=58, time=3880),\n",
      "    Message('note_off', channel=0, note=59, velocity=64, time=250),\n",
      "    Message('note_on', channel=0, note=63, velocity=41, time=30),\n",
      "    Message('note_on', channel=0, note=35, velocity=30, time=0),\n",
      "    Message('note_off', channel=0, note=47, velocity=64, time=50),\n",
      "    Message('note_on', channel=0, note=57, velocity=32, time=120),\n",
      "    Message('note_off', channel=0, note=64, velocity=64, time=180),\n",
      "    Message('note_on', channel=0, note=47, velocity=31, time=4730),\n",
      "    Message('note_off', channel=0, note=57, velocity=64, time=90),\n",
      "    Message('note_on', channel=0, note=59, velocity=36, time=130),\n",
      "    Message('note_off', channel=0, note=47, velocity=64, time=3770),\n",
      "    Message('note_on', channel=0, note=57, velocity=40, time=40),\n",
      "    Message('note_off', channel=0, note=59, velocity=64, time=590),\n",
      "    Message('note_off', channel=0, note=35, velocity=64, time=2380),\n",
      "    Message('note_on', channel=0, note=47, velocity=30, time=700),\n",
      "    Message('note_on', channel=0, note=59, velocity=44, time=30),\n",
      "    Message('note_off', channel=0, note=57, velocity=64, time=10),\n",
      "    Message('note_on', channel=0, note=57, velocity=39, time=3730),\n",
      "    Message('note_on', channel=0, note=35, velocity=30, time=20),\n",
      "    Message('note_off', channel=0, note=47, velocity=64, time=70),\n",
      "    Message('note_off', channel=0, note=59, velocity=64, time=600),\n",
      "    Message('note_off', channel=0, note=66, velocity=64, time=1460),\n",
      "    Message('note_off', channel=0, note=57, velocity=64, time=1660),\n",
      "    Message('note_on', channel=0, note=68, velocity=57, time=130),\n",
      "    Message('note_on', channel=0, note=59, velocity=44, time=30),\n",
      "    Message('note_on', channel=0, note=47, velocity=31, time=150),\n",
      "    Message('note_off', channel=0, note=63, velocity=64, time=650),\n",
      "    Message('note_off', channel=0, note=59, velocity=64, time=720),\n",
      "    Message('note_off', channel=0, note=68, velocity=64, time=480),\n",
      "    Message('note_off', channel=0, note=47, velocity=64, time=960),\n",
      "    Message('note_on', channel=0, note=68, velocity=63, time=740),\n",
      "    Message('note_on', channel=0, note=63, velocity=48, time=160),\n",
      "    Message('note_on', channel=0, note=57, velocity=11, time=470),\n",
      "    Message('note_off', channel=0, note=57, velocity=64, time=2180),\n",
      "    Message('note_off', channel=0, note=68, velocity=64, time=160),\n",
      "    Message('note_on', channel=0, note=66, velocity=65, time=740),\n",
      "    Message('note_on', channel=0, note=59, velocity=45, time=250),\n",
      "    Message('note_on', channel=0, note=47, velocity=31, time=50),\n",
      "    Message('note_off', channel=0, note=59, velocity=64, time=490),\n",
      "    Message('note_off', channel=0, note=63, velocity=64, time=90),\n",
      "    Message('note_off', channel=0, note=35, velocity=64, time=760),\n",
      "    Message('note_off', channel=0, note=66, velocity=64, time=50),\n",
      "    Message('note_off', channel=0, note=47, velocity=64, time=590),\n",
      "    Message('note_on', channel=0, note=68, velocity=61, time=2510),\n",
      "    Message('note_on', channel=0, note=40, velocity=29, time=180),\n",
      "    Message('note_on', channel=0, note=64, velocity=48, time=50),\n",
      "    Message('note_on', channel=0, note=56, velocity=33, time=80),\n",
      "    Message('note_off', channel=0, note=56, velocity=64, time=4920),\n",
      "    Message('note_on', channel=0, note=47, velocity=27, time=60),\n",
      "    Message('note_on', channel=0, note=59, velocity=38, time=10),\n",
      "    Message('note_off', channel=0, note=47, velocity=64, time=3450),\n",
      "    Message('note_on', channel=0, note=56, velocity=36, time=430),\n",
      "    Message('note_off', channel=0, note=59, velocity=64, time=340),\n",
      "    Message('note_off', channel=0, note=56, velocity=64, time=2800),\n",
      "    Message('note_off', channel=0, note=40, velocity=64, time=240),\n",
      "    Message('note_on', channel=0, note=47, velocity=25, time=30),\n",
      "    Message('note_on', channel=0, note=59, velocity=43, time=50),\n",
      "    Message('note_on', channel=0, note=40, velocity=27, time=3670),\n",
      "    Message('note_off', channel=0, note=47, velocity=64, time=50),\n",
      "    Message('note_on', channel=0, note=56, velocity=41, time=70),\n",
      "    Message('note_off', channel=0, note=59, velocity=64, time=80),\n",
      "    Message('note_off', channel=0, note=64, velocity=64, time=260),\n",
      "    Message('note_off', channel=0, note=68, velocity=64, time=1420),\n",
      "    Message('note_off', channel=0, note=56, velocity=64, time=490),\n",
      "    Message('note_on', channel=0, note=69, velocity=57, time=1390),\n",
      "    Message('note_on', channel=0, note=47, velocity=33, time=170),\n",
      "    Message('note_on', channel=0, note=64, velocity=42, time=160),\n",
      "    Message('note_off', channel=0, note=64, velocity=64, time=1110),\n",
      "    Message('note_off', channel=0, note=69, velocity=64, time=420),\n",
      "    Message('note_off', channel=0, note=47, velocity=64, time=520),\n",
      "    Message('note_on', channel=0, note=69, velocity=68, time=1280),\n",
      "    Message('note_on', channel=0, note=59, velocity=44, time=410),\n",
      "    Message('note_off', channel=0, note=59, velocity=64, time=2240),\n",
      "    Message('note_on', channel=0, note=68, velocity=72, time=1020),\n",
      "    Message('note_on', channel=0, note=64, velocity=45, time=290),\n",
      "    Message('note_on', channel=0, note=47, velocity=34, time=10),\n",
      "    Message('note_off', channel=0, note=69, velocity=64, time=20),\n",
      "    Message('note_off', channel=0, note=64, velocity=64, time=350),\n",
      "    Message('note_off', channel=0, note=40, velocity=64, time=10),\n",
      "    Message('note_off', channel=0, note=68, velocity=64, time=910),\n",
      "    Message('note_off', channel=0, note=47, velocity=64, time=870),\n",
      "    Message('note_on', channel=0, note=73, velocity=71, time=2120),\n",
      "    Message('note_on', channel=0, note=63, velocity=51, time=240),\n",
      "    Message('note_on', channel=0, note=35, velocity=36, time=60),\n",
      "    Message('note_on', channel=0, note=47, velocity=34, time=4340),\n",
      "    Message('note_on', channel=0, note=69, velocity=56, time=150),\n",
      "    Message('note_off', channel=0, note=63, velocity=64, time=1300),\n",
      "    Message('note_off', channel=0, note=73, velocity=64, time=200),\n",
      "    Message('note_off', channel=0, note=69, velocity=64, time=310),\n",
      "    Message('note_off', channel=0, note=47, velocity=64, time=780),\n",
      "    Message('note_on', channel=0, note=59, velocity=49, time=1150),\n",
      "    Message('note_off', channel=0, note=59, velocity=64, time=2700),\n",
      "    Message('note_on', channel=0, note=71, velocity=60, time=750),\n",
      "    Message('note_on', channel=0, note=63, velocity=44, time=240),\n",
      "    Message('note_on', channel=0, note=47, velocity=34, time=70),\n",
      "    Message('note_off', channel=0, note=35, velocity=64, time=520),\n",
      "    Message('note_off', channel=0, note=71, velocity=64, time=140),\n",
      "    Message('note_off', channel=0, note=63, velocity=64, time=20),\n",
      "    Message('note_off', channel=0, note=47, velocity=64, time=1050),\n",
      "    Message('note_on', channel=0, note=69, velocity=59, time=2240),\n",
      "    Message('note_on', channel=0, note=40, velocity=30, time=100),\n",
      "    Message('note_on', channel=0, note=59, velocity=42, time=170),\n",
      "    Message('note_off', channel=0, note=59, velocity=64, time=3560),\n",
      "    Message('note_on', channel=0, note=68, velocity=52, time=240),\n",
      "    Message('note_on', channel=0, note=64, velocity=36, time=150),\n",
      "    Message('note_on', channel=0, note=47, velocity=11, time=110),\n",
      "    Message('note_off', channel=0, note=69, velocity=64, time=560),\n",
      "    Message('note_off', channel=0, note=64, velocity=64, time=490),\n",
      "    Message('note_off', channel=0, note=68, velocity=64, time=870),\n",
      "    Message('note_off', channel=0, note=47, velocity=64, time=1040),\n",
      "    Message('note_on', channel=0, note=63, velocity=53, time=300),\n",
      "    Message('note_on', channel=0, note=56, velocity=39, time=390),\n",
      "    Message('note_off', channel=0, note=56, velocity=64, time=2120),\n",
      "    Message('note_off', channel=0, note=63, velocity=64, time=1060),\n",
      "    Message('note_on', channel=0, note=64, velocity=55, time=140),\n",
      "    Message('note_on', channel=0, note=59, velocity=39, time=140),\n",
      "    Message('note_on', channel=0, note=47, velocity=29, time=90),\n",
      "    Message('note_off', channel=0, note=40, velocity=64, time=1280),\n",
      "    Message('note_off', channel=0, note=59, velocity=64, time=30),\n",
      "    Message('note_off', channel=0, note=47, velocity=64, time=2210),\n",
      "    Message('note_on', channel=0, note=66, velocity=54, time=940),\n",
      "    Message('note_off', channel=0, note=64, velocity=64, time=200),\n",
      "    Message('note_on', channel=0, note=35, velocity=25, time=30),\n",
      "    Message('note_on', channel=0, note=61, velocity=34, time=230),\n",
      "    Message('note_on', channel=0, note=57, velocity=27, time=50),\n",
      "    Message('note_off', channel=0, note=57, velocity=64, time=2230),\n",
      "    Message('note_on', channel=0, note=63, velocity=41, time=2820),\n",
      "    Message('note_off', channel=0, note=61, velocity=64, time=130),\n",
      "    Message('note_on', channel=0, note=47, velocity=29, time=10),\n",
      "    Message('note_on', channel=0, note=59, velocity=17, time=450),\n",
      "    Message('note_off', channel=0, note=59, velocity=64, time=1510),\n",
      "    Message('note_off', channel=0, note=63, velocity=64, time=1680),\n",
      "    Message('note_on', channel=0, note=61, velocity=42, time=140),\n",
      "    Message('note_off', channel=0, note=47, velocity=64, time=180),\n",
      "    Message('note_on', channel=0, note=57, velocity=30, time=160),\n",
      "    Message('note_off', channel=0, note=57, velocity=64, time=620),\n",
      "    Message('note_on', channel=0, note=47, velocity=34, time=2680),\n",
      "    Message('note_on', channel=0, note=63, velocity=41, time=50),\n",
      "    Message('note_off', channel=0, note=61, velocity=64, time=140),\n",
      "    Message('note_on', channel=0, note=59, velocity=26, time=110),\n",
      "    Message('note_off', channel=0, note=59, velocity=64, time=810),\n",
      "    Message('note_off', channel=0, note=35, velocity=64, time=30),\n",
      "    Message('note_off', channel=0, note=63, velocity=64, time=2400),\n",
      "    Message('note_on', channel=0, note=35, velocity=31, time=180),\n",
      "    Message('note_on', channel=0, note=61, velocity=38, time=10),\n",
      "    Message('note_off', channel=0, note=47, velocity=64, time=110),\n",
      "    Message('note_on', channel=0, note=57, velocity=31, time=70),\n",
      "    Message('note_off', channel=0, note=57, velocity=64, time=970),\n",
      "    Message('note_off', channel=0, note=66, velocity=64, time=140),\n",
      "    Message('note_off', channel=0, note=61, velocity=64, time=2740),\n",
      "    Message('note_on', channel=0, note=68, velocity=55, time=180),\n",
      "    Message('note_on', channel=0, note=63, velocity=40, time=100),\n",
      "    Message('note_on', channel=0, note=47, velocity=31, time=110),\n",
      "    Message('note_on', channel=0, note=59, velocity=34, time=60),\n",
      "    Message('note_off', channel=0, note=59, velocity=64, time=1480),\n",
      "    Message('note_off', channel=0, note=68, velocity=64, time=1140),\n",
      "    Message('note_off', channel=0, note=63, velocity=64, time=390),\n",
      "    Message('note_on', channel=0, note=68, velocity=60, time=470),\n",
      "    Message('note_on', channel=0, note=61, velocity=46, time=30),\n",
      "    Message('note_on', channel=0, note=57, velocity=38, time=150),\n",
      "    Message('note_off', channel=0, note=47, velocity=64, time=120),\n",
      "    Message('note_off', channel=0, note=57, velocity=64, time=510),\n",
      "    Message('note_off', channel=0, note=61, velocity=64, time=970),\n",
      "    Message('note_off', channel=0, note=68, velocity=64, time=1160),\n",
      "    Message('note_on', channel=0, note=66, velocity=57, time=770),\n",
      "    Message('note_on', channel=0, note=59, velocity=42, time=180),\n",
      "    Message('note_on', channel=0, note=63, velocity=45, time=40),\n",
      "    Message('note_on', channel=0, note=47, velocity=37, time=60),\n",
      "    Message('note_off', channel=0, note=59, velocity=64, time=350),\n",
      "    Message('note_off', channel=0, note=35, velocity=64, time=480),\n",
      "    Message('note_off', channel=0, note=63, velocity=64, time=20),\n",
      "    Message('note_off', channel=0, note=66, velocity=64, time=250),\n",
      "    Message('note_off', channel=0, note=47, velocity=64, time=2730),\n",
      "    Message('note_on', channel=0, note=64, velocity=57, time=240),\n",
      "    Message('note_on', channel=0, note=40, velocity=28, time=180),\n",
      "    Message('note_on', channel=0, note=56, velocity=25, time=340),\n",
      "    Message('note_on', channel=0, note=47, velocity=23, time=3840),\n",
      "    Message('note_on', channel=0, note=59, velocity=37, time=20),\n",
      "    Message('note_off', channel=0, note=56, velocity=64, time=190),\n",
      "    Message('note_off', channel=0, note=47, velocity=64, time=2890),\n",
      "    Message('note_on', channel=0, note=56, velocity=36, time=500),\n",
      "    Message('note_off', channel=0, note=59, velocity=64, time=630),\n",
      "    Message('note_off', channel=0, note=56, velocity=64, time=1370),\n",
      "    Message('note_off', channel=0, note=40, velocity=64, time=820),\n",
      "    Message('note_on', channel=0, note=59, velocity=28, time=1370),\n",
      "    Message('note_on', channel=0, note=47, velocity=26, time=10),\n",
      "    Message('note_off', channel=0, note=59, velocity=64, time=480),\n",
      "    Message('note_off', channel=0, note=64, velocity=64, time=280),\n",
      "    Message('note_off', channel=0, note=47, velocity=64, time=50),\n",
      "    Message('note_on', channel=0, note=68, velocity=46, time=4040),\n",
      "    Message('note_on', channel=0, note=40, velocity=28, time=30),\n",
      "    Message('note_on', channel=0, note=62, velocity=32, time=200),\n",
      "    Message('note_on', channel=0, note=69, velocity=50, time=3630),\n",
      "    Message('note_on', channel=0, note=52, velocity=35, time=60),\n",
      "    Message('note_off', channel=0, note=62, velocity=64, time=130),\n",
      "    Message('note_on', channel=0, note=64, velocity=40, time=110),\n",
      "    Message('note_off', channel=0, note=68, velocity=64, time=90),\n",
      "    Message('note_on', channel=0, note=66, velocity=55, time=2850),\n",
      "    Message('note_off', channel=0, note=64, velocity=64, time=20),\n",
      "    Message('note_on', channel=0, note=62, velocity=40, time=300),\n",
      "    Message('note_off', channel=0, note=69, velocity=64, time=110),\n",
      "    Message('note_off', channel=0, note=52, velocity=64, time=50),\n",
      "    Message('note_off', channel=0, note=62, velocity=64, time=1960),\n",
      "    Message('note_on', channel=0, note=68, velocity=62, time=980),\n",
      "    Message('note_on', channel=0, note=52, velocity=39, time=60),\n",
      "    Message('note_on', channel=0, note=64, velocity=31, time=290),\n",
      "    Message('note_off', channel=0, note=66, velocity=64, time=300),\n",
      "    Message('note_off', channel=0, note=64, velocity=64, time=170),\n",
      "    Message('note_off', channel=0, note=68, velocity=64, time=1040),\n",
      "    Message('note_off', channel=0, note=40, velocity=64, time=1010),\n",
      "    Message('note_off', channel=0, note=52, velocity=64, time=60),\n",
      "    Message('note_on', channel=0, note=69, velocity=68, time=500),\n",
      "    Message('note_on', channel=0, note=61, velocity=46, time=290),\n",
      "    Message('note_on', channel=0, note=45, velocity=34, time=20),\n",
      "    Message('note_on', channel=0, note=71, velocity=70, time=3010),\n",
      "    Message('note_on', channel=0, note=52, velocity=40, time=70),\n",
      "    Message('note_on', channel=0, note=64, velocity=57, time=130),\n",
      "    Message('note_off', channel=0, note=69, velocity=64, time=200),\n",
      "    Message('note_off', channel=0, note=61, velocity=64, time=180),\n",
      "    Message('note_off', channel=0, note=52, velocity=64, time=2620),\n",
      "    Message('note_on', channel=0, note=68, velocity=68, time=10),\n",
      "    Message('note_off', channel=0, note=71, velocity=64, time=10),\n",
      "    Message('note_on', channel=0, note=61, velocity=61, time=80),\n",
      "    Message('note_off', channel=0, note=64, velocity=64, time=200),\n",
      "    Message('note_off', channel=0, note=61, velocity=64, time=2890),\n",
      "    Message('note_off', channel=0, note=45, velocity=64, time=10),\n",
      "    Message('note_on', channel=0, note=69, velocity=72, time=110),\n",
      "    Message('note_on', channel=0, note=52, velocity=40, time=140),\n",
      "    Message('note_on', channel=0, note=64, velocity=47, time=80),\n",
      "    Message('note_off', channel=0, note=68, velocity=64, time=500),\n",
      "    Message('note_off', channel=0, note=64, velocity=64, time=1150),\n",
      "    Message('note_on', channel=0, note=45, velocity=38, time=1950),\n",
      "    Message('note_on', channel=0, note=73, velocity=71, time=90),\n",
      "    Message('note_off', channel=0, note=52, velocity=64, time=220),\n",
      "    Message('note_on', channel=0, note=61, velocity=45, time=80),\n",
      "    Message('note_off', channel=0, note=69, velocity=64, time=110),\n",
      "    Message('note_on', channel=0, note=54, velocity=55, time=3930),\n",
      "    Message('note_on', channel=0, note=64, velocity=48, time=210),\n",
      "    Message('note_off', channel=0, note=61, velocity=64, time=1150),\n",
      "    Message('note_off', channel=0, note=73, velocity=64, time=1230),\n",
      "    Message('note_on', channel=0, note=66, velocity=64, time=1010),\n",
      "    Message('note_off', channel=0, note=64, velocity=64, time=370),\n",
      "    Message('note_on', channel=0, note=61, velocity=34, time=160),\n",
      "    Message('note_off', channel=0, note=54, velocity=64, time=420),\n",
      "    Message('note_on', channel=0, note=64, velocity=53, time=2500),\n",
      "    Message('note_off', channel=0, note=61, velocity=64, time=160),\n",
      "    Message('note_on', channel=0, note=54, velocity=39, time=10),\n",
      "    Message('note_on', channel=0, note=59, velocity=55, time=3060),\n",
      "    Message('note_on', channel=0, note=47, velocity=48, time=70),\n",
      "    Message('note_off', channel=0, note=54, velocity=64, time=150),\n",
      "    Message('note_off', channel=0, note=45, velocity=64, time=70),\n",
      "    Message('note_off', channel=0, note=64, velocity=64, time=110),\n",
      "    Message('note_on', channel=0, note=54, velocity=40, time=2770),\n",
      "    Message('note_off', channel=0, note=59, velocity=64, time=160),\n",
      "    Message('note_on', channel=0, note=64, velocity=59, time=10),\n",
      "    Message('note_off', channel=0, note=66, velocity=64, time=480),\n",
      "    Message('note_off', channel=0, note=64, velocity=64, time=850),\n",
      "    Message('note_off', channel=0, note=54, velocity=64, time=370),\n",
      "    Message('note_on', channel=0, note=59, velocity=45, time=370),\n",
      "    Message('note_on', channel=0, note=70, velocity=63, time=590),\n",
      "    Message('note_on', channel=0, note=68, velocity=60, time=500),\n",
      "    Message('note_off', channel=0, note=59, velocity=64, time=1170),\n",
      "    Message('note_off', channel=0, note=70, velocity=64, time=430),\n",
      "    Message('note_on', channel=0, note=66, velocity=61, time=1620),\n",
      "    Message('note_on', channel=0, note=54, velocity=39, time=220),\n",
      "    Message('note_on', channel=0, note=64, velocity=53, time=40),\n",
      "    Message('note_off', channel=0, note=68, velocity=64, time=700),\n",
      "    Message('note_on', channel=0, note=49, velocity=49, time=2770),\n",
      "    Message('note_on', channel=0, note=58, velocity=56, time=40),\n",
      "    Message('note_off', channel=0, note=54, velocity=64, time=310),\n",
      "    Message('note_off', channel=0, note=47, velocity=64, time=160),\n",
      "    Message('note_off', channel=0, note=64, velocity=64, time=10),\n",
      "    Message('note_on', channel=0, note=64, velocity=58, time=2870),\n",
      "    Message('note_on', channel=0, note=54, velocity=37, time=120),\n",
      "    Message('note_off', channel=0, note=58, velocity=64, time=710),\n",
      "    Message('note_off', channel=0, note=66, velocity=64, time=40),\n",
      "    Message('note_off', channel=0, note=64, velocity=64, time=840),\n",
      "    Message('note_off', channel=0, note=54, velocity=64, time=370),\n",
      "    Message('note_on', channel=0, note=58, velocity=52, time=130),\n",
      "    Message('note_on', channel=0, note=70, velocity=61, time=610),\n",
      "    Message('note_on', channel=0, note=68, velocity=65, time=620),\n",
      "    Message('note_off', channel=0, note=70, velocity=64, time=1350),\n",
      "    Message('note_on', channel=0, note=66, velocity=55, time=2420),\n",
      "    Message('note_off', channel=0, note=58, velocity=64, time=50),\n",
      "    Message('note_on', channel=0, note=64, velocity=49, time=90),\n",
      "    Message('note_on', channel=0, note=54, velocity=42, time=100),\n",
      "    Message('note_off', channel=0, note=68, velocity=64, time=220),\n",
      "    Message('note_off', channel=0, note=64, velocity=64, time=740),\n",
      "    Message('note_off', channel=0, note=49, velocity=64, time=250),\n",
      "    Message('note_off', channel=0, note=54, velocity=64, time=220),\n",
      "    Message('note_off', channel=0, note=66, velocity=64, time=1000),\n",
      "    Message('note_on', channel=0, note=71, velocity=53, time=2200),\n",
      "    Message('note_on', channel=0, note=63, velocity=38, time=230),\n",
      "    Message('note_on', channel=0, note=47, velocity=30, time=70),\n",
      "    Message('note_on', channel=0, note=57, velocity=32, time=40),\n",
      "    Message('note_off', channel=0, note=57, velocity=64, time=3680),\n",
      "    Message('note_off', channel=0, note=63, velocity=64, time=1060),\n",
      "    Message('note_on', channel=0, note=59, velocity=37, time=300),\n",
      "    Message('note_on', channel=0, note=54, velocity=30, time=160),\n",
      "    Message('note_off', channel=0, note=71, velocity=64, time=1510),\n",
      "    Message('note_off', channel=0, note=59, velocity=64, time=430),\n",
      "    Message('note_on', channel=0, note=57, velocity=46, time=1740),\n",
      "    Message('note_off', channel=0, note=54, velocity=64, time=860),\n",
      "    Message('note_off', channel=0, note=57, velocity=64, time=60),\n",
      "    Message('note_off', channel=0, note=47, velocity=64, time=620),\n",
      "    Message('note_on', channel=0, note=59, velocity=44, time=3010),\n",
      "    Message('note_on', channel=0, note=54, velocity=12, time=410),\n",
      "    Message('note_off', channel=0, note=59, velocity=64, time=860),\n",
      "    Message('note_off', channel=0, note=54, velocity=64, time=20),\n",
      "    Message('note_on', channel=0, note=68, velocity=45, time=5080),\n",
      "    Message('note_on', channel=0, note=40, velocity=25, time=0),\n",
      "    Message('note_on', channel=0, note=56, velocity=26, time=280),\n",
      "    Message('note_on', channel=0, note=64, velocity=38, time=80),\n",
      "    Message('note_on', channel=0, note=47, velocity=24, time=5060),\n",
      "    Message('note_on', channel=0, note=59, velocity=35, time=100),\n",
      "    Message('note_off', channel=0, note=56, velocity=64, time=100),\n",
      "    Message('note_off', channel=0, note=64, velocity=64, time=2420),\n",
      "    Message('note_off', channel=0, note=68, velocity=64, time=720),\n",
      "    Message('note_off', channel=0, note=47, velocity=64, time=20),\n",
      "    Message('note_on', channel=0, note=63, velocity=48, time=470),\n",
      "    Message('note_off', channel=0, note=59, velocity=64, time=220),\n",
      "    Message('note_on', channel=0, note=56, velocity=30, time=140),\n",
      "    Message('note_off', channel=0, note=56, velocity=64, time=2380),\n",
      "    Message('note_off', channel=0, note=40, velocity=64, time=860),\n",
      "    Message('note_on', channel=0, note=64, velocity=53, time=90),\n",
      "    Message('note_off', channel=0, note=63, velocity=64, time=60),\n",
      "    Message('note_on', channel=0, note=47, velocity=33, time=0),\n",
      "    Message('note_on', channel=0, note=59, velocity=33, time=270),\n",
      "    Message('note_off', channel=0, note=64, velocity=64, time=3840),\n",
      "    Message('note_off', channel=0, note=47, velocity=64, time=30),\n",
      "    Message('note_on', channel=0, note=66, velocity=47, time=90),\n",
      "    Message('note_on', channel=0, note=35, velocity=30, time=40),\n",
      "    Message('note_on', channel=0, note=63, velocity=37, time=200),\n",
      "    Message('note_on', channel=0, note=57, velocity=33, time=50),\n",
      "    Message('note_off', channel=0, note=59, velocity=64, time=50),\n",
      "    Message('note_on', channel=0, note=47, velocity=33, time=4510),\n",
      "    Message('note_on', channel=0, note=59, velocity=37, time=140),\n",
      "    Message('note_off', channel=0, note=57, velocity=64, time=20),\n",
      "    Message('note_on', channel=0, note=57, velocity=36, time=3460),\n",
      "    Message('note_off', channel=0, note=47, velocity=64, time=380),\n",
      "    Message('note_off', channel=0, note=59, velocity=64, time=30),\n",
      "    Message('note_off', channel=0, note=35, velocity=64, time=2230),\n",
      "    Message('note_on', channel=0, note=59, velocity=40, time=1110),\n",
      "    Message('note_off', channel=0, note=57, velocity=64, time=20),\n",
      "    Message('note_on', channel=0, note=47, velocity=27, time=90),\n",
      "    Message('note_off', channel=0, note=47, velocity=64, time=3430),\n",
      "    Message('note_on', channel=0, note=57, velocity=38, time=140),\n",
      "    Message('note_off', channel=0, note=59, velocity=64, time=40),\n",
      "    Message('note_on', channel=0, note=35, velocity=25, time=110),\n",
      "    Message('note_off', channel=0, note=66, velocity=64, time=1270),\n",
      "    Message('note_on', channel=0, note=68, velocity=51, time=2550),\n",
      "    Message('note_on', channel=0, note=59, velocity=44, time=10),\n",
      "    Message('note_off', channel=0, note=57, velocity=64, time=50),\n",
      "    Message('note_on', channel=0, note=47, velocity=36, time=60),\n",
      "    Message('note_off', channel=0, note=63, velocity=64, time=750),\n",
      "    Message('note_off', channel=0, note=59, velocity=64, time=1070),\n",
      "    Message('note_off', channel=0, note=68, velocity=64, time=280),\n",
      "    Message('note_off', channel=0, note=47, velocity=64, time=900),\n",
      "    Message('note_on', channel=0, note=68, velocity=56, time=570),\n",
      "    Message('note_on', channel=0, note=63, velocity=45, time=90),\n",
      "    Message('note_on', channel=0, note=57, velocity=30, time=220),\n",
      "    Message('note_off', channel=0, note=57, velocity=64, time=1980),\n",
      "    Message('note_off', channel=0, note=68, velocity=64, time=590),\n",
      "    Message('note_on', channel=0, note=66, velocity=55, time=750),\n",
      "    Message('note_on', channel=0, note=47, velocity=32, time=190),\n",
      "    Message('note_on', channel=0, note=59, velocity=37, time=120),\n",
      "    Message('note_off', channel=0, note=63, velocity=64, time=350),\n",
      "    Message('note_off', channel=0, note=59, velocity=64, time=60),\n",
      "    Message('note_off', channel=0, note=66, velocity=64, time=990),\n",
      "    Message('note_off', channel=0, note=35, velocity=64, time=500),\n",
      "    Message('note_off', channel=0, note=47, velocity=64, time=770),\n",
      "    Message('note_on', channel=0, note=68, velocity=52, time=1620),\n",
      "    Message('note_on', channel=0, note=40, velocity=24, time=180),\n",
      "    Message('note_on', channel=0, note=64, velocity=43, time=60),\n",
      "    Message('note_on', channel=0, note=56, velocity=24, time=140),\n",
      "    Message('note_on', channel=0, note=47, velocity=24, time=4710),\n",
      "    Message('note_on', channel=0, note=59, velocity=35, time=100),\n",
      "    Message('note_off', channel=0, note=56, velocity=64, time=20),\n",
      "    Message('note_on', channel=0, note=56, velocity=32, time=3570),\n",
      "    Message('note_off', channel=0, note=47, velocity=64, time=20),\n",
      "    Message('note_off', channel=0, note=59, velocity=64, time=750),\n",
      "    Message('note_off', channel=0, note=56, velocity=64, time=2580),\n",
      "    Message('note_on', channel=0, note=47, velocity=28, time=200),\n",
      "    Message('note_on', channel=0, note=59, velocity=39, time=30),\n",
      "    Message('note_off', channel=0, note=40, velocity=64, time=110),\n",
      "    Message('note_off', channel=0, note=59, velocity=64, time=3400),\n",
      "    Message('note_off', channel=0, note=47, velocity=64, time=60),\n",
      "    Message('note_on', channel=0, note=56, velocity=43, time=150),\n",
      "    Message('note_on', channel=0, note=40, velocity=28, time=20),\n",
      "    Message('note_off', channel=0, note=64, velocity=64, time=690),\n",
      "    Message('note_off', channel=0, note=68, velocity=64, time=1100),\n",
      "    Message('note_off', channel=0, note=56, velocity=64, time=880),\n",
      "    Message('note_on', channel=0, note=69, velocity=54, time=940),\n",
      "    Message('note_on', channel=0, note=47, velocity=31, time=320),\n",
      "    Message('note_on', channel=0, note=64, velocity=41, time=60),\n",
      "    Message('note_off', channel=0, note=64, velocity=64, time=1430),\n",
      "    Message('note_off', channel=0, note=69, velocity=64, time=220),\n",
      "    Message('note_off', channel=0, note=47, velocity=64, time=450),\n",
      "    Message('note_on', channel=0, note=69, velocity=65, time=1210),\n",
      "    Message('note_on', channel=0, note=59, velocity=39, time=480),\n",
      "    Message('note_off', channel=0, note=59, velocity=64, time=2310),\n",
      "    Message('note_on', channel=0, note=68, velocity=67, time=800),\n",
      "    Message('note_on', channel=0, note=47, velocity=35, time=310),\n",
      "    Message('note_off', channel=0, note=69, velocity=64, time=50),\n",
      "    Message('note_on', channel=0, note=64, velocity=35, time=30),\n",
      "    Message('note_off', channel=0, note=40, velocity=64, time=140),\n",
      "    Message('note_off', channel=0, note=64, velocity=64, time=180),\n",
      "    Message('note_off', channel=0, note=68, velocity=64, time=850),\n",
      "    Message('note_off', channel=0, note=47, velocity=64, time=2160),\n",
      "    Message('note_on', channel=0, note=73, velocity=71, time=770),\n",
      "    Message('note_on', channel=0, note=35, velocity=34, time=250),\n",
      "    Message('note_on', channel=0, note=63, velocity=47, time=40),\n",
      "    Message('note_on', channel=0, note=47, velocity=33, time=4320),\n",
      "    Message('note_on', channel=0, note=69, velocity=59, time=110),\n",
      "    Message('note_off', channel=0, note=63, velocity=64, time=1250),\n",
      "    Message('note_off', channel=0, note=73, velocity=64, time=120),\n",
      "    Message('note_off', channel=0, note=69, velocity=64, time=250),\n",
      "    Message('note_on', channel=0, note=59, velocity=55, time=1980),\n",
      "    Message('note_off', channel=0, note=47, velocity=64, time=40),\n",
      "    Message('note_off', channel=0, note=59, velocity=64, time=2340),\n",
      "    Message('note_on', channel=0, note=71, velocity=63, time=1110),\n",
      "    Message('note_on', channel=0, note=47, velocity=37, time=140),\n",
      "    Message('note_on', channel=0, note=63, velocity=40, time=120),\n",
      "    Message('note_off', channel=0, note=63, velocity=64, time=590),\n",
      "    Message('note_off', channel=0, note=71, velocity=64, time=150),\n",
      "    Message('note_off', channel=0, note=35, velocity=64, time=970),\n",
      "    Message('note_off', channel=0, note=47, velocity=64, time=1700),\n",
      "    Message('note_on', channel=0, note=69, velocity=56, time=400),\n",
      "    Message('note_on', channel=0, note=40, velocity=32, time=50),\n",
      "    Message('note_on', channel=0, note=59, velocity=39, time=320),\n",
      "    Message('note_off', channel=0, note=59, velocity=64, time=3090),\n",
      "    Message('note_on', channel=0, note=68, velocity=50, time=480),\n",
      "    Message('note_on', channel=0, note=47, velocity=20, time=110),\n",
      "    Message('note_on', channel=0, note=64, velocity=38, time=40),\n",
      "    Message('note_off', channel=0, note=69, velocity=64, time=770),\n",
      "    Message('note_off', channel=0, note=64, velocity=64, time=230),\n",
      "    Message('note_off', channel=0, note=68, velocity=64, time=1120),\n",
      "    Message('note_off', channel=0, note=47, velocity=64, time=1150),\n",
      "    Message('note_on', channel=0, note=63, velocity=49, time=170),\n",
      "    Message('note_on', channel=0, note=56, velocity=37, time=350),\n",
      "    Message('note_off', channel=0, note=56, velocity=64, time=2010),\n",
      "    Message('note_off', channel=0, note=63, velocity=64, time=640),\n",
      "    Message('note_on', channel=0, note=47, velocity=32, time=790),\n",
      "    Message('note_on', channel=0, note=64, velocity=58, time=10),\n",
      "    Message('note_on', channel=0, note=59, velocity=36, time=170),\n",
      "    Message('note_off', channel=0, note=59, velocity=64, time=360),\n",
      "    Message('note_off', channel=0, note=40, velocity=64, time=870),\n",
      "    Message('note_off', channel=0, note=47, velocity=64, time=1640),\n",
      "    Message('note_on', channel=0, note=66, velocity=55, time=1640),\n",
      "    Message('note_off', channel=0, note=64, velocity=64, time=140),\n",
      "    Message('note_on', channel=0, note=35, velocity=26, time=230),\n",
      "    Message('note_on', channel=0, note=57, velocity=31, time=0),\n",
      "    Message('note_on', channel=0, note=61, velocity=32, time=100),\n",
      "    Message('note_off', channel=0, note=57, velocity=64, time=2000),\n",
      "    Message('note_on', channel=0, note=63, velocity=40, time=2330),\n",
      "    Message('note_off', channel=0, note=61, velocity=64, time=50),\n",
      "    Message('note_on', channel=0, note=47, velocity=27, time=210),\n",
      "    Message('note_on', channel=0, note=59, velocity=29, time=140),\n",
      "    Message('note_off', channel=0, note=59, velocity=64, time=1330),\n",
      "    Message('note_on', channel=0, note=61, velocity=44, time=1930),\n",
      "    Message('note_off', channel=0, note=63, velocity=64, time=40),\n",
      "    Message('note_on', channel=0, note=57, velocity=34, time=250),\n",
      "    Message('note_off', channel=0, note=47, velocity=64, time=500),\n",
      "    Message('note_off', channel=0, note=57, velocity=64, time=410),\n",
      "    Message('note_on', channel=0, note=63, velocity=49, time=2610),\n",
      "    Message('note_on', channel=0, note=47, velocity=34, time=20),\n",
      "    Message('note_off', channel=0, note=61, velocity=64, time=50),\n",
      "    Message('note_on', channel=0, note=59, velocity=24, time=260),\n",
      "    Message('note_off', channel=0, note=35, velocity=64, time=80),\n",
      "    Message('note_off', channel=0, note=59, velocity=64, time=940),\n",
      "    Message('note_on', channel=0, note=61, velocity=49, time=2270),\n",
      "    Message('note_off', channel=0, note=47, velocity=64, time=30),\n",
      "    Message('note_on', channel=0, note=35, velocity=28, time=50),\n",
      "    Message('note_on', channel=0, note=57, velocity=40, time=40),\n",
      "    Message('note_off', channel=0, note=63, velocity=64, time=350),\n",
      "    Message('note_off', channel=0, note=66, velocity=64, time=870),\n",
      "    Message('note_off', channel=0, note=57, velocity=64, time=450),\n",
      "    Message('note_on', channel=0, note=68, velocity=62, time=2120),\n",
      "    Message('note_off', channel=0, note=61, velocity=64, time=140),\n",
      "    Message('note_on', channel=0, note=47, velocity=31, time=140),\n",
      "    Message('note_on', channel=0, note=59, velocity=34, time=50),\n",
      "    Message('note_on', channel=0, note=63, velocity=30, time=40),\n",
      "    Message('note_off', channel=0, note=59, velocity=64, time=1140),\n",
      "    Message('note_off', channel=0, note=63, velocity=64, time=660),\n",
      "    Message('note_off', channel=0, note=68, velocity=64, time=460),\n",
      "    Message('note_off', channel=0, note=47, velocity=64, time=750),\n",
      "    Message('note_on', channel=0, note=68, velocity=63, time=240),\n",
      "    Message('note_on', channel=0, note=61, velocity=45, time=290),\n",
      "    Message('note_on', channel=0, note=57, velocity=22, time=120),\n",
      "    Message('note_off', channel=0, note=57, velocity=64, time=620),\n",
      "    Message('note_off', channel=0, note=61, velocity=64, time=1570),\n",
      "    Message('note_off', channel=0, note=68, velocity=64, time=720),\n",
      "    Message('note_on', channel=0, note=66, velocity=59, time=360),\n",
      "    Message('note_on', channel=0, note=47, velocity=39, time=140),\n",
      "    Message('note_on', channel=0, note=59, velocity=45, time=40),\n",
      "    Message('note_on', channel=0, note=63, velocity=44, time=20),\n",
      "    Message('note_off', channel=0, note=59, velocity=64, time=460),\n",
      "    Message('note_off', channel=0, note=63, velocity=64, time=300),\n",
      "    Message('note_off', channel=0, note=66, velocity=64, time=590),\n",
      "    Message('note_off', channel=0, note=35, velocity=64, time=90),\n",
      "    Message('note_off', channel=0, note=47, velocity=64, time=1510),\n",
      "    Message('note_on', channel=0, note=64, velocity=59, time=1390),\n",
      "    Message('note_on', channel=0, note=40, velocity=26, time=360),\n",
      "    Message('note_on', channel=0, note=56, velocity=29, time=140),\n",
      "    Message('note_on', channel=0, note=59, velocity=40, time=3580),\n",
      "    Message('note_on', channel=0, note=47, velocity=24, time=10),\n",
      "    Message('note_off', channel=0, note=56, velocity=64, time=340),\n",
      "    Message('note_off', channel=0, note=47, velocity=64, time=2360),\n",
      "    Message('note_on', channel=0, note=56, velocity=38, time=850),\n",
      "    Message('note_off', channel=0, note=59, velocity=64, time=350),\n",
      "    Message('note_off', channel=0, note=56, velocity=64, time=710),\n",
      "    Message('note_off', channel=0, note=40, velocity=64, time=1240),\n",
      "    Message('note_on', channel=0, note=59, velocity=31, time=1800),\n",
      "    Message('note_on', channel=0, note=47, velocity=27, time=70),\n",
      "    Message('note_off', channel=0, note=59, velocity=64, time=460),\n",
      "    Message('note_off', channel=0, note=64, velocity=64, time=300),\n",
      "    Message('note_off', channel=0, note=47, velocity=64, time=40),\n",
      "    Message('note_on', channel=0, note=71, velocity=53, time=3800),\n",
      "    Message('note_on', channel=0, note=40, velocity=31, time=160),\n",
      "    Message('note_on', channel=0, note=66, velocity=31, time=60),\n",
      "    Message('note_on', channel=0, note=62, velocity=31, time=170),\n",
      "    Message('note_off', channel=0, note=71, velocity=64, time=2250),\n",
      "    Message('note_off', channel=0, note=62, velocity=64, time=50),\n",
      "    Message('note_off', channel=0, note=66, velocity=64, time=850),\n",
      "    Message('note_on', channel=0, note=73, velocity=56, time=960),\n",
      "    Message('note_on', channel=0, note=52, velocity=34, time=120),\n",
      "    Message('note_on', channel=0, note=68, velocity=43, time=110),\n",
      "    Message('note_on', channel=0, note=64, velocity=38, time=180),\n",
      "    Message('note_off', channel=0, note=64, velocity=64, time=890),\n",
      "    Message('note_off', channel=0, note=68, velocity=64, time=910),\n",
      "    Message('note_off', channel=0, note=73, velocity=64, time=20),\n",
      "    Message('note_off', channel=0, note=52, velocity=64, time=600),\n",
      "    Message('note_on', channel=0, note=73, velocity=63, time=560),\n",
      "    Message('note_on', channel=0, note=66, velocity=47, time=230),\n",
      "    Message('note_on', channel=0, note=62, velocity=44, time=30),\n",
      "    Message('note_off', channel=0, note=62, velocity=64, time=940),\n",
      "    Message('note_off', channel=0, note=73, velocity=64, time=1030),\n",
      "    Message('note_off', channel=0, note=66, velocity=64, time=400),\n",
      "    Message('note_on', channel=0, note=71, velocity=64, time=920),\n",
      "    Message('note_on', channel=0, note=52, velocity=42, time=80),\n",
      "    Message('note_on', channel=0, note=68, velocity=46, time=110),\n",
      "    Message('note_on', channel=0, note=64, velocity=37, time=30),\n",
      "    Message('note_off', channel=0, note=64, velocity=64, time=280),\n",
      "    Message('note_off', channel=0, note=71, velocity=64, time=830),\n",
      "    Message('note_off', channel=0, note=40, velocity=64, time=50),\n",
      "    Message('note_off', channel=0, note=68, velocity=64, time=280),\n",
      "    Message('note_off', channel=0, note=52, velocity=64, time=940),\n",
      "    Message('note_on', channel=0, note=69, velocity=62, time=800),\n",
      "    Message('note_on', channel=0, note=45, velocity=39, time=120),\n",
      "    Message('note_on', channel=0, note=61, velocity=44, time=130),\n",
      "    Message('note_on', channel=0, note=52, velocity=39, time=3190),\n",
      "    Message('note_on', channel=0, note=71, velocity=67, time=70),\n",
      "    Message('note_off', channel=0, note=61, velocity=64, time=20),\n",
      "    Message('note_on', channel=0, note=64, velocity=54, time=120),\n",
      "    Message('note_off', channel=0, note=69, velocity=64, time=260),\n",
      "    Message('note_off', channel=0, note=52, velocity=64, time=2150),\n",
      "    Message('note_off', channel=0, note=64, velocity=64, time=380),\n",
      "    Message('note_on', channel=0, note=68, velocity=65, time=140),\n",
      "    Message('note_on', channel=0, note=61, velocity=56, time=200),\n",
      "    Message('note_off', channel=0, note=71, velocity=64, time=20),\n",
      "    Message('note_off', channel=0, note=61, velocity=64, time=860),\n",
      "    Message('note_off', channel=0, note=45, velocity=64, time=1800),\n",
      "    Message('note_on', channel=0, note=69, velocity=69, time=480),\n",
      "    Message('note_on', channel=0, note=52, velocity=48, time=20),\n",
      "    Message('note_off', channel=0, note=68, velocity=64, time=30),\n",
      "    Message('note_on', channel=0, note=64, velocity=56, time=70),\n",
      "    Message('note_off', channel=0, note=64, velocity=64, time=330),\n",
      "    Message('note_off', channel=0, note=52, velocity=64, time=430),\n",
      "    Message('note_off', channel=0, note=69, velocity=64, time=60),\n",
      "    Message('note_on', channel=0, note=75, velocity=73, time=2460),\n",
      "    Message('note_on', channel=0, note=44, velocity=55, time=110),\n",
      "    Message('note_on', channel=0, note=72, velocity=62, time=20),\n",
      "    Message('note_on', channel=0, note=66, velocity=55, time=50),\n",
      "    Message('note_off', channel=0, note=66, velocity=64, time=1900),\n",
      "    Message('note_on', channel=0, note=76, velocity=74, time=2040),\n",
      "    Message('note_on', channel=0, note=56, velocity=44, time=110),\n",
      "    Message('note_off', channel=0, note=72, velocity=64, time=60),\n",
      "    Message('note_on', channel=0, note=68, velocity=52, time=40),\n",
      "    Message('note_off', channel=0, note=75, velocity=64, time=260),\n",
      "    Message('note_off', channel=0, note=68, velocity=64, time=1440),\n",
      "    Message('note_off', channel=0, note=76, velocity=64, time=60),\n",
      "    Message('note_off', channel=0, note=56, velocity=64, time=1230),\n",
      "    Message('note_on', channel=0, note=76, velocity=71, time=60),\n",
      "    Message('note_on', channel=0, note=70, velocity=60, time=110),\n",
      "    Message('note_on', channel=0, note=66, velocity=52, time=120),\n",
      "    Message('note_off', channel=0, note=70, velocity=64, time=830),\n",
      "    Message('note_off', channel=0, note=66, velocity=64, time=480),\n",
      "    Message('note_off', channel=0, note=76, velocity=64, time=1220),\n",
      "    Message('note_on', channel=0, note=75, velocity=74, time=450),\n",
      "    Message('note_on', channel=0, note=68, velocity=59, time=120),\n",
      "    Message('note_on', channel=0, note=56, velocity=52, time=30),\n",
      "    Message('note_on', channel=0, note=72, velocity=51, time=10),\n",
      "    Message('note_off', channel=0, note=72, velocity=64, time=260),\n",
      "    Message('note_off', channel=0, note=68, velocity=64, time=350),\n",
      "    Message('note_off', channel=0, note=75, velocity=64, time=190),\n",
      "    Message('note_off', channel=0, note=56, velocity=64, time=1320),\n",
      "    Message('note_on', channel=0, note=49, velocity=52, time=1150),\n",
      "    Message('note_on', channel=0, note=73, velocity=75, time=20),\n",
      "    Message('note_on', channel=0, note=64, velocity=62, time=90),\n",
      "    Message('note_off', channel=0, note=44, velocity=64, time=540),\n",
      "    Message('note_on', channel=0, note=75, velocity=76, time=2780),\n",
      "    Message('note_on', channel=0, note=56, velocity=49, time=20),\n",
      "    Message('note_on', channel=0, note=68, velocity=56, time=150),\n",
      "    Message('note_off', channel=0, note=64, velocity=64, time=40),\n",
      "    Message('note_off', channel=0, note=73, velocity=64, time=140),\n",
      "    Message('note_off', channel=0, note=75, velocity=64, time=1940),\n",
      "    Message('note_off', channel=0, note=56, velocity=64, time=710),\n",
      "    Message('note_off', channel=0, note=68, velocity=64, time=120),\n",
      "    Message('note_on', channel=0, note=72, velocity=72, time=90),\n",
      "    Message('note_on', channel=0, note=64, velocity=60, time=170),\n",
      "    Message('note_off', channel=0, note=64, velocity=64, time=2420),\n",
      "    Message('note_on', channel=0, note=73, velocity=75, time=970),\n",
      "    Message('note_on', channel=0, note=56, velocity=57, time=20),\n",
      "    Message('note_on', channel=0, note=68, velocity=61, time=40),\n",
      "    Message('note_off', channel=0, note=68, velocity=64, time=540),\n",
      "    Message('note_off', channel=0, note=72, velocity=64, time=180),\n",
      "    Message('note_off', channel=0, note=49, velocity=64, time=90),\n",
      "    Message('note_off', channel=0, note=56, velocity=64, time=210),\n",
      "    Message('note_off', channel=0, note=73, velocity=64, time=50),\n",
      "    Message('note_on', channel=0, note=76, velocity=80, time=3150),\n",
      "    Message('note_on', channel=0, note=58, velocity=45, time=110),\n",
      "    Message('note_on', channel=0, note=70, velocity=58, time=40),\n",
      "    Message('note_on', channel=0, note=64, velocity=61, time=10),\n",
      "    Message('note_on', channel=0, note=49, velocity=43, time=50),\n",
      "    Message('note_on', channel=0, note=52, velocity=40, time=50),\n",
      "    Message('note_on', channel=0, note=54, velocity=39, time=10),\n",
      "    Message('note_off', channel=0, note=64, velocity=64, time=1610),\n",
      "    Message('note_off', channel=0, note=76, velocity=64, time=590),\n",
      "    Message('note_off', channel=0, note=58, velocity=64, time=270),\n",
      "    Message('note_off', channel=0, note=52, velocity=64, time=120),\n",
      "    Message('note_off', channel=0, note=49, velocity=64, time=0),\n",
      "    Message('note_off', channel=0, note=70, velocity=64, time=60),\n",
      "    Message('note_off', channel=0, note=54, velocity=64, time=80),\n",
      "    Message('note_on', channel=0, note=78, velocity=78, time=1320),\n",
      "    Message('note_on', channel=0, note=58, velocity=58, time=50),\n",
      "    Message('note_on', channel=0, note=66, velocity=69, time=30),\n",
      "    Message('note_on', channel=0, note=54, velocity=45, time=100),\n",
      "    Message('note_on', channel=0, note=52, velocity=42, time=30),\n",
      "    Message('note_on', channel=0, note=49, velocity=44, time=10),\n",
      "    Message('note_on', channel=0, note=70, velocity=57, time=60),\n",
      "    Message('note_off', channel=0, note=78, velocity=64, time=1010),\n",
      "    Message('note_off', channel=0, note=49, velocity=64, time=150),\n",
      "    Message('note_off', channel=0, note=66, velocity=64, time=50),\n",
      "    Message('note_off', channel=0, note=58, velocity=64, time=50),\n",
      "    Message('note_off', channel=0, note=54, velocity=64, time=300),\n",
      "    Message('note_off', channel=0, note=52, velocity=64, time=30),\n",
      "    Message('note_off', channel=0, note=70, velocity=64, time=160),\n",
      "    Message('note_on', channel=0, note=58, velocity=68, time=1400),\n",
      "    Message('note_on', channel=0, note=75, velocity=83, time=10),\n",
      "    Message('note_on', channel=0, note=63, velocity=80, time=80),\n",
      "    Message('note_on', channel=0, note=49, velocity=58, time=10),\n",
      "    Message('note_on', channel=0, note=54, velocity=51, time=60),\n",
      "    Message('note_on', channel=0, note=52, velocity=44, time=60),\n",
      "    Message('note_on', channel=0, note=70, velocity=50, time=50),\n",
      "    Message('note_off', channel=0, note=70, velocity=64, time=350),\n",
      "    Message('note_off', channel=0, note=63, velocity=64, time=650),\n",
      "    Message('note_off', channel=0, note=58, velocity=64, time=80),\n",
      "    Message('note_off', channel=0, note=54, velocity=64, time=220),\n",
      "    Message('note_off', channel=0, note=52, velocity=64, time=270),\n",
      "    Message('note_off', channel=0, note=49, velocity=64, time=140),\n",
      "    Message('note_off', channel=0, note=75, velocity=64, time=270),\n",
      "    Message('note_on', channel=0, note=58, velocity=67, time=1020),\n",
      "    Message('note_on', channel=0, note=76, velocity=87, time=50),\n",
      "    Message('note_on', channel=0, note=64, velocity=77, time=20),\n",
      "    Message('note_on', channel=0, note=49, velocity=55, time=0),\n",
      "    Message('note_on', channel=0, note=70, velocity=61, time=30),\n",
      "    Message('note_on', channel=0, note=54, velocity=53, time=70),\n",
      "    Message('note_on', channel=0, note=52, velocity=42, time=120),\n",
      "    Message('note_off', channel=0, note=64, velocity=64, time=390),\n",
      "    Message('note_off', channel=0, note=76, velocity=64, time=470),\n",
      "    Message('note_off', channel=0, note=70, velocity=64, time=160),\n",
      "    Message('note_off', channel=0, note=58, velocity=64, time=50),\n",
      "    Message('note_off', channel=0, note=49, velocity=64, time=50),\n",
      "    Message('note_off', channel=0, note=54, velocity=64, time=50),\n",
      "    Message('note_off', channel=0, note=52, velocity=64, time=1220),\n",
      "    Message('note_on', channel=0, note=78, velocity=85, time=970),\n",
      "    Message('note_on', channel=0, note=58, velocity=67, time=10),\n",
      "    Message('note_on', channel=0, note=66, velocity=75, time=50),\n",
      "    Message('note_on', channel=0, note=54, velocity=57, time=0),\n",
      "    Message('note_on', channel=0, note=70, velocity=73, time=20),\n",
      "    Message('note_on', channel=0, note=48, velocity=61, time=50),\n",
      "    Message('note_on', channel=0, note=52, velocity=57, time=50),\n",
      "    Message('note_off', channel=0, note=66, velocity=64, time=1690),\n",
      "    Message('note_off', channel=0, note=78, velocity=64, time=190),\n",
      "    Message('note_off', channel=0, note=58, velocity=64, time=230),\n",
      "    Message('note_off', channel=0, note=48, velocity=64, time=50),\n",
      "    Message('note_off', channel=0, note=52, velocity=64, time=100),\n",
      "    Message('note_on', channel=0, note=80, velocity=87, time=1280),\n",
      "    Message('note_on', channel=0, note=58, velocity=68, time=10),\n",
      "    Message('note_on', channel=0, note=48, velocity=58, time=80),\n",
      "    Message('note_on', channel=0, note=52, velocity=56, time=10),\n",
      "    Message('note_on', channel=0, note=68, velocity=73, time=20),\n",
      "    Message('note_off', channel=0, note=48, velocity=64, time=730),\n",
      "    Message('note_off', channel=0, note=80, velocity=64, time=180),\n",
      "    Message('note_off', channel=0, note=58, velocity=64, time=10),\n",
      "    Message('note_off', channel=0, note=68, velocity=64, time=90),\n",
      "    Message('note_off', channel=0, note=54, velocity=64, time=250),\n",
      "    Message('note_off', channel=0, note=52, velocity=64, time=220),\n",
      "    Message('note_off', channel=0, note=70, velocity=64, time=820),\n",
      "    Message('note_on', channel=0, note=76, velocity=87, time=990),\n",
      "    Message('note_on', channel=0, note=58, velocity=77, time=20),\n",
      "    Message('note_on', channel=0, note=64, velocity=82, time=30),\n",
      "    Message('note_on', channel=0, note=54, velocity=65, time=80),\n",
      "    Message('note_on', channel=0, note=48, velocity=65, time=0),\n",
      "    Message('note_on', channel=0, note=70, velocity=66, time=10),\n",
      "    Message('note_on', channel=0, note=52, velocity=57, time=80),\n",
      "    Message('note_off', channel=0, note=64, velocity=64, time=750),\n",
      "    Message('note_off', channel=0, note=58, velocity=64, time=340),\n",
      "    Message('note_off', channel=0, note=48, velocity=64, time=50),\n",
      "    Message('note_off', channel=0, note=76, velocity=64, time=0),\n",
      "    Message('note_off', channel=0, note=70, velocity=64, time=270),\n",
      "    Message('note_off', channel=0, note=54, velocity=64, time=50),\n",
      "    Message('note_off', channel=0, note=52, velocity=64, time=140),\n",
      "    Message('note_on', channel=0, note=58, velocity=75, time=2370),\n",
      "    Message('note_on', channel=0, note=78, velocity=87, time=0),\n",
      "    Message('note_on', channel=0, note=66, velocity=82, time=30),\n",
      "    Message('note_on', channel=0, note=70, velocity=78, time=10),\n",
      "    Message('note_on', channel=0, note=54, velocity=66, time=20),\n",
      "    Message('note_on', channel=0, note=48, velocity=66, time=30),\n",
      "    Message('note_on', channel=0, note=52, velocity=50, time=180),\n",
      "    Message('note_off', channel=0, note=66, velocity=64, time=1500),\n",
      "    Message('note_off', channel=0, note=48, velocity=64, time=70),\n",
      "    Message('note_off', channel=0, note=58, velocity=64, time=90),\n",
      "    Message('note_off', channel=0, note=78, velocity=64, time=40),\n",
      "    Message('note_off', channel=0, note=54, velocity=64, time=220),\n",
      "    Message('note_off', channel=0, note=70, velocity=64, time=70),\n",
      "    Message('note_off', channel=0, note=52, velocity=64, time=180),\n",
      "    Message('note_on', channel=0, note=80, velocity=87, time=3890),\n",
      "    Message('note_on', channel=0, note=68, velocity=71, time=90),\n",
      "    Message('note_on', channel=0, note=59, velocity=63, time=20),\n",
      "    Message('note_on', channel=0, note=47, velocity=59, time=30),\n",
      "    Message('note_on', channel=0, note=56, velocity=56, time=0),\n",
      "    Message('note_on', channel=0, note=76, velocity=69, time=0),\n",
      "    Message('note_on', channel=0, note=52, velocity=50, time=90),\n",
      "    Message('note_on', channel=0, note=71, velocity=62, time=5900),\n",
      "    Message('note_off', channel=0, note=68, velocity=64, time=140),\n",
      "    Message('note_on', channel=0, note=68, velocity=56, time=4230),\n",
      "    Message('note_off', channel=0, note=71, velocity=64, time=510),\n",
      "    Message('note_on', channel=0, note=71, velocity=60, time=3210),\n",
      "    Message('note_off', channel=0, note=68, velocity=64, time=130),\n",
      "    Message('note_on', channel=0, note=68, velocity=56, time=3350),\n",
      "    Message('note_off', channel=0, note=80, velocity=64, time=410),\n",
      "    Message('note_off', channel=0, note=71, velocity=64, time=270),\n",
      "    Message('note_off', channel=0, note=76, velocity=64, time=500),\n",
      "    Message('note_off', channel=0, note=68, velocity=64, time=600),\n",
      "    Message('note_on', channel=0, note=78, velocity=67, time=1960),\n",
      "    Message('note_on', channel=0, note=71, velocity=48, time=250),\n",
      "    Message('note_off', channel=0, note=78, velocity=64, time=1720),\n",
      "    Message('note_off', channel=0, note=71, velocity=64, time=1250),\n",
      "    Message('note_on', channel=0, note=76, velocity=66, time=750),\n",
      "    Message('note_on', channel=0, note=68, velocity=40, time=330),\n",
      "    Message('note_off', channel=0, note=68, velocity=64, time=2670),\n",
      "    Message('note_off', channel=0, note=76, velocity=64, time=1190),\n",
      "    Message('note_on', channel=0, note=73, velocity=53, time=110),\n",
      "    Message('note_on', channel=0, note=71, velocity=48, time=70),\n",
      "    Message('note_off', channel=0, note=71, velocity=64, time=1090),\n",
      "    Message('note_off', channel=0, note=59, velocity=64, time=520),\n",
      "    Message('note_off', channel=0, note=56, velocity=64, time=220),\n",
      "    Message('note_off', channel=0, note=47, velocity=64, time=220),\n",
      "    Message('note_off', channel=0, note=73, velocity=64, time=60),\n",
      "    Message('note_off', channel=0, note=52, velocity=64, time=390),\n",
      "    Message('note_on', channel=0, note=75, velocity=59, time=2890),\n",
      "    Message('note_on', channel=0, note=63, velocity=45, time=310),\n",
      "    Message('note_on', channel=0, note=54, velocity=25, time=120),\n",
      "    Message('note_off', channel=0, note=63, velocity=64, time=4800),\n",
      "    Message('note_on', channel=0, note=66, velocity=39, time=120),\n",
      "    Message('note_on', channel=0, note=59, velocity=28, time=170),\n",
      "    Message('note_off', channel=0, note=59, velocity=64, time=3450),\n",
      "    Message('note_on', channel=0, note=63, velocity=36, time=380),\n",
      "    Message('note_on', channel=0, note=47, velocity=13, time=40),\n",
      "    Message('note_off', channel=0, note=66, velocity=64, time=860),\n",
      "    Message('note_on', channel=0, note=66, velocity=46, time=2400),\n",
      "    Message('note_off', channel=0, note=47, velocity=64, time=200),\n",
      "    Message('note_off', channel=0, note=63, velocity=64, time=30),\n",
      "    Message('note_on', channel=0, note=59, velocity=38, time=70),\n",
      "    Message('note_off', channel=0, note=75, velocity=64, time=610),\n",
      "    Message('note_off', channel=0, note=54, velocity=64, time=260),\n",
      "    Message('note_off', channel=0, note=66, velocity=64, time=530),\n",
      "    Message('note_off', channel=0, note=59, velocity=64, time=1600),\n",
      "    Message('note_on', channel=0, note=76, velocity=62, time=360),\n",
      "    Message('note_on', channel=0, note=64, velocity=46, time=200),\n",
      "    Message('note_on', channel=0, note=49, velocity=35, time=20),\n",
      "    Message('note_on', channel=0, note=75, velocity=66, time=3360),\n",
      "    Message('note_on', channel=0, note=68, velocity=50, time=130),\n",
      "    Message('note_on', channel=0, note=56, velocity=32, time=230),\n",
      "    Message('note_off', channel=0, note=64, velocity=64, time=260),\n",
      "    Message('note_off', channel=0, note=76, velocity=64, time=570),\n",
      "    Message('note_off', channel=0, note=49, velocity=64, time=110),\n",
      "    Message('note_on', channel=0, note=73, velocity=62, time=2290),\n",
      "    Message('note_on', channel=0, note=64, velocity=44, time=120),\n",
      "    Message('note_on', channel=0, note=44, velocity=35, time=40),\n",
      "    Message('note_off', channel=0, note=56, velocity=64, time=150),\n",
      "    Message('note_off', channel=0, note=68, velocity=64, time=100),\n",
      "    Message('note_off', channel=0, note=75, velocity=64, time=380),\n",
      "    Message('note_off', channel=0, note=64, velocity=64, time=2040),\n",
      "    Message('note_on', channel=0, note=68, velocity=52, time=1240),\n",
      "    Message('note_on', channel=0, note=56, velocity=33, time=10),\n",
      "    Message('note_off', channel=0, note=73, velocity=64, time=760),\n",
      "    Message('note_off', channel=0, note=68, velocity=64, time=940),\n",
      "    Message('note_off', channel=0, note=56, velocity=64, time=800),\n",
      "    Message('note_off', channel=0, note=44, velocity=64, time=120),\n",
      "    Message('note_on', channel=0, note=71, velocity=54, time=2450),\n",
      "    Message('note_on', channel=0, note=51, velocity=31, time=10),\n",
      "    Message('note_on', channel=0, note=59, velocity=36, time=360),\n",
      "    Message('note_on', channel=0, note=63, velocity=40, time=3850),\n",
      "    Message('note_on', channel=0, note=56, velocity=29, time=130),\n",
      "    Message('note_off', channel=0, note=59, velocity=64, time=190),\n",
      "    Message('note_off', channel=0, note=56, velocity=64, time=3050),\n",
      "    Message('note_on', channel=0, note=44, velocity=30, time=220),\n",
      "    Message('note_on', channel=0, note=59, velocity=36, time=120),\n",
      "    Message('note_off', channel=0, note=63, velocity=64, time=500),\n",
      "    Message('note_off', channel=0, note=44, velocity=64, time=2890),\n",
      "    Message('note_off', channel=0, note=59, velocity=64, time=100),\n",
      "    Message('note_on', channel=0, note=63, velocity=43, time=350),\n",
      "    Message('note_on', channel=0, note=56, velocity=7, time=110),\n",
      "    Message('note_off', channel=0, note=71, velocity=64, time=60),\n",
      "    Message('note_off', channel=0, note=63, velocity=64, time=390),\n",
      "    Message('note_off', channel=0, note=56, velocity=64, time=60),\n",
      "    Message('note_off', channel=0, note=51, velocity=64, time=810),\n",
      "    Message('note_on', channel=0, note=73, velocity=54, time=2960),\n",
      "    Message('note_on', channel=0, note=45, velocity=30, time=280),\n",
      "    Message('note_on', channel=0, note=61, velocity=35, time=80),\n",
      "    Message('note_off', channel=0, note=73, velocity=64, time=1740),\n",
      "    Message('note_on', channel=0, note=52, velocity=37, time=2220),\n",
      "    Message('note_on', channel=0, note=71, velocity=48, time=30),\n",
      "    Message('note_off', channel=0, note=45, velocity=64, time=60),\n",
      "    Message('note_off', channel=0, note=61, velocity=64, time=50),\n",
      "    Message('note_on', channel=0, note=64, velocity=31, time=200),\n",
      "    Message('note_off', channel=0, note=64, velocity=64, time=3150),\n",
      "    Message('note_on', channel=0, note=69, velocity=48, time=140),\n",
      "    Message('note_on', channel=0, note=40, velocity=32, time=150),\n",
      "    Message('note_on', channel=0, note=61, velocity=23, time=120),\n",
      "    Message('note_off', channel=0, note=71, velocity=64, time=50),\n",
      "    Message('note_off', channel=0, note=52, velocity=64, time=10),\n",
      "    Message('note_off', channel=0, note=61, velocity=64, time=2840),\n",
      "    Message('note_on', channel=0, note=64, velocity=49, time=630),\n",
      "    Message('note_on', channel=0, note=52, velocity=32, time=30),\n",
      "    Message('note_off', channel=0, note=69, velocity=64, time=1050),\n",
      "    Message('note_off', channel=0, note=64, velocity=64, time=440),\n",
      "    Message('note_off', channel=0, note=40, velocity=64, time=470),\n",
      "    Message('note_off', channel=0, note=52, velocity=64, time=610),\n",
      "    Message('note_on', channel=0, note=68, velocity=46, time=2180),\n",
      "    Message('note_on', channel=0, note=47, velocity=23, time=230),\n",
      "    Message('note_on', channel=0, note=56, velocity=26, time=250),\n",
      "    Message('note_off', channel=0, note=56, velocity=64, time=4510),\n",
      "    Message('note_on', channel=0, note=52, velocity=19, time=40),\n",
      "    Message('note_on', channel=0, note=59, velocity=30, time=170),\n",
      "    Message('note_on', channel=0, note=40, velocity=23, time=3830),\n",
      "    Message('note_off', channel=0, note=52, velocity=64, time=0),\n",
      "    Message('note_on', channel=0, note=56, velocity=15, time=250),\n",
      "    Message('note_off', channel=0, note=59, velocity=64, time=180),\n",
      "    Message('note_off', channel=0, note=47, velocity=64, time=1060),\n",
      "    Message('note_on', channel=0, note=52, velocity=31, time=2320),\n",
      "    Message('note_off', channel=0, note=56, velocity=64, time=140),\n",
      "    Message('note_on', channel=0, note=59, velocity=34, time=60),\n",
      "    Message('note_on', channel=0, note=47, velocity=28, time=3890),\n",
      "    Message('note_on', channel=0, note=56, velocity=25, time=150),\n",
      "    Message('note_off', channel=0, note=59, velocity=64, time=370),\n",
      "    Message('note_off', channel=0, note=52, velocity=64, time=100),\n",
      "    Message('note_off', channel=0, note=40, velocity=64, time=70),\n",
      "    Message('note_on', channel=0, note=59, velocity=27, time=3320),\n",
      "    Message('note_off', channel=0, note=56, velocity=64, time=20),\n",
      "    Message('note_on', channel=0, note=52, velocity=19, time=340),\n",
      "    Message('note_off', channel=0, note=52, velocity=64, time=4150),\n",
      "    Message('note_on', channel=0, note=56, velocity=23, time=10),\n",
      "    Message('note_on', channel=0, note=40, velocity=22, time=30),\n",
      "    Message('note_off', channel=0, note=59, velocity=64, time=700),\n",
      "    Message('note_off', channel=0, note=47, velocity=64, time=320),\n",
      "    Message('note_on', channel=0, note=59, velocity=30, time=4360),\n",
      "    Message('note_on', channel=0, note=47, velocity=18, time=40),\n",
      "    Message('note_off', channel=0, note=56, velocity=64, time=210),\n",
      "    Message('note_off', channel=0, note=59, velocity=64, time=1270),\n",
      "    Message('note_off', channel=0, note=68, velocity=64, time=130),\n",
      "    Message('note_on', channel=0, note=68, velocity=38, time=6130),\n",
      "    Message('note_on', channel=0, note=52, velocity=27, time=30),\n",
      "    Message('note_on', channel=0, note=56, velocity=28, time=440),\n",
      "    Message('note_on', channel=0, note=66, velocity=44, time=1340),\n",
      "    Message('note_off', channel=0, note=68, velocity=64, time=1040),\n",
      "    Message('note_on', channel=0, note=64, velocity=40, time=870),\n",
      "    Message('note_off', channel=0, note=66, velocity=64, time=650),\n",
      "    Message('note_off', channel=0, note=56, velocity=64, time=7870),\n",
      "    Message('note_off', channel=0, note=40, velocity=64, time=1100),\n",
      "    Message('note_off', channel=0, note=64, velocity=64, time=860),\n",
      "    Message('note_off', channel=0, note=52, velocity=64, time=70),\n",
      "    Message('note_off', channel=0, note=47, velocity=64, time=200),\n",
      "    MetaMessage('end_of_track', time=26380)]),\n",
      "  MidiTrack([\n",
      "    Message('control_change', channel=0, control=64, value=11, time=0),\n",
      "    Message('control_change', channel=0, control=64, value=11, time=400),\n",
      "    Message('control_change', channel=0, control=64, value=11, time=80),\n",
      "    Message('control_change', channel=0, control=64, value=11, time=240),\n",
      "    Message('control_change', channel=0, control=64, value=11, time=160),\n",
      "    Message('control_change', channel=0, control=64, value=11, time=80),\n",
      "    Message('control_change', channel=0, control=64, value=11, time=160),\n",
      "    Message('control_change', channel=0, control=64, value=11, time=80),\n",
      "    Message('control_change', channel=0, control=64, value=11, time=80),\n",
      "    Message('control_change', channel=0, control=64, value=11, time=80),\n",
      "    Message('control_change', channel=0, control=64, value=11, time=80),\n",
      "    Message('control_change', channel=0, control=64, value=11, time=160),\n",
      "    Message('control_change', channel=0, control=64, value=11, time=80),\n",
      "    Message('control_change', channel=0, control=64, value=11, time=160),\n",
      "    Message('control_change', channel=0, control=64, value=11, time=80),\n",
      "    Message('control_change', channel=0, control=64, value=11, time=80),\n",
      "    Message('control_change', channel=0, control=64, value=11, time=80),\n",
      "    Message('control_change', channel=0, control=64, value=11, time=160),\n",
      "    Message('control_change', channel=0, control=64, value=11, time=80),\n",
      "    Message('control_change', channel=0, control=64, value=11, time=80),\n",
      "    Message('control_change', channel=0, control=64, value=11, time=80),\n",
      "    Message('control_change', channel=0, control=64, value=11, time=320),\n",
      "    Message('control_change', channel=0, control=64, value=11, time=80),\n",
      "    Message('control_change', channel=0, control=64, value=11, time=240),\n",
      "    Message('control_change', channel=0, control=64, value=11, time=80),\n",
      "    Message('control_change', channel=0, control=64, value=11, time=80),\n",
      "    Message('control_change', channel=0, control=64, value=11, time=80),\n",
      "    Message('control_change', channel=0, control=64, value=11, time=480),\n",
      "    Message('control_change', channel=0, control=64, value=11, time=80),\n",
      "    Message('control_change', channel=0, control=64, value=11, time=80),\n",
      "    Message('control_change', channel=0, control=64, value=11, time=80),\n",
      "    Message('control_change', channel=0, control=64, value=11, time=80),\n",
      "    Message('control_change', channel=0, control=64, value=11, time=80),\n",
      "    Message('control_change', channel=0, control=64, value=11, time=320),\n",
      "    Message('control_change', channel=0, control=64, value=11, time=480),\n",
      "    Message('control_change', channel=0, control=64, value=11, time=80),\n",
      "    Message('control_change', channel=0, control=64, value=11, time=80),\n",
      "    Message('control_change', channel=0, control=64, value=11, time=1200),\n",
      "    Message('control_change', channel=0, control=64, value=11, time=80),\n",
      "    Message('control_change', channel=0, control=64, value=11, time=80),\n",
      "    Message('control_change', channel=0, control=64, value=11, time=80),\n",
      "    Message('control_change', channel=0, control=64, value=11, time=240),\n",
      "    Message('control_change', channel=0, control=64, value=11, time=80),\n",
      "    Message('control_change', channel=0, control=64, value=11, time=160),\n",
      "    Message('control_change', channel=0, control=64, value=11, time=160),\n",
      "    Message('control_change', channel=0, control=64, value=11, time=400),\n",
      "    Message('control_change', channel=0, control=64, value=11, time=80),\n",
      "    Message('control_change', channel=0, control=64, value=11, time=80),\n",
      "    Message('control_change', channel=0, control=64, value=11, time=80),\n",
      "    Message('control_change', channel=0, control=64, value=11, time=160),\n",
      "    Message('control_change', channel=0, control=64, value=11, time=80),\n",
      "    Message('control_change', channel=0, control=64, value=11, time=80),\n",
      "    Message('control_change', channel=0, control=64, value=11, time=80),\n",
      "    Message('control_change', channel=0, control=64, value=11, time=160),\n",
      "    Message('control_change', channel=0, control=64, value=11, time=160),\n",
      "    Message('control_change', channel=0, control=64, value=11, time=400),\n",
      "    Message('control_change', channel=0, control=64, value=11, time=80),\n",
      "    Message('control_change', channel=0, control=64, value=11, time=80),\n",
      "    Message('control_change', channel=0, control=64, value=11, time=80),\n",
      "    Message('control_change', channel=0, control=64, value=11, time=320),\n",
      "    Message('control_change', channel=0, control=64, value=11, time=80),\n",
      "    Message('control_change', channel=0, control=64, value=11, time=80),\n",
      "    Message('control_change', channel=0, control=64, value=11, time=80),\n",
      "    Message('control_change', channel=0, control=64, value=11, time=160),\n",
      "    Message('control_change', channel=0, control=64, value=11, time=80),\n",
      "    Message('control_change', channel=0, control=64, value=11, time=80),\n",
      "    Message('control_change', channel=0, control=64, value=11, time=80),\n",
      "    Message('control_change', channel=0, control=64, value=11, time=320),\n",
      "    Message('control_change', channel=0, control=64, value=11, time=80),\n",
      "    Message('control_change', channel=0, control=64, value=11, time=80),\n",
      "    Message('control_change', channel=0, control=64, value=11, time=80),\n",
      "    Message('control_change', channel=0, control=64, value=11, time=320),\n",
      "    Message('control_change', channel=0, control=64, value=11, time=80),\n",
      "    Message('control_change', channel=0, control=64, value=11, time=80),\n",
      "    Message('control_change', channel=0, control=64, value=11, time=80),\n",
      "    Message('control_change', channel=0, control=64, value=11, time=320),\n",
      "    Message('control_change', channel=0, control=64, value=11, time=80),\n",
      "    Message('control_change', channel=0, control=64, value=11, time=80),\n",
      "    Message('control_change', channel=0, control=64, value=11, time=80),\n",
      "    Message('control_change', channel=0, control=64, value=11, time=80),\n",
      "    Message('control_change', channel=0, control=64, value=11, time=80),\n",
      "    Message('control_change', channel=0, control=64, value=11, time=80),\n",
      "    Message('control_change', channel=0, control=64, value=11, time=80),\n",
      "    Message('control_change', channel=0, control=64, value=11, time=480),\n",
      "    Message('control_change', channel=0, control=64, value=11, time=80),\n",
      "    Message('control_change', channel=0, control=64, value=11, time=80),\n",
      "    Message('control_change', channel=0, control=64, value=11, time=80),\n",
      "    Message('control_change', channel=0, control=64, value=11, time=80),\n",
      "    Message('control_change', channel=0, control=64, value=11, time=80),\n",
      "    Message('control_change', channel=0, control=64, value=11, time=80),\n",
      "    Message('control_change', channel=0, control=64, value=11, time=80),\n",
      "    Message('control_change', channel=0, control=64, value=11, time=80),\n",
      "    Message('control_change', channel=0, control=64, value=11, time=80),\n",
      "    Message('control_change', channel=0, control=64, value=11, time=960),\n",
      "    Message('control_change', channel=0, control=64, value=11, time=80),\n",
      "    Message('control_change', channel=0, control=64, value=11, time=80),\n",
      "    Message('control_change', channel=0, control=64, value=11, time=80),\n",
      "    Message('control_change', channel=0, control=64, value=11, time=80),\n",
      "    Message('control_change', channel=0, control=64, value=11, time=80),\n",
      "    Message('control_change', channel=0, control=64, value=11, time=80),\n",
      "    Message('control_change', channel=0, control=64, value=11, time=80),\n",
      "    Message('control_change', channel=0, control=64, value=11, time=80),\n",
      "    Message('control_change', channel=0, control=64, value=11, time=80),\n",
      "    Message('control_change', channel=0, control=64, value=11, time=240),\n",
      "    Message('control_change', channel=0, control=64, value=11, time=80),\n",
      "    Message('control_change', channel=0, control=64, value=11, time=480),\n",
      "    Message('control_change', channel=0, control=64, value=11, time=80),\n",
      "    Message('control_change', channel=0, control=64, value=11, time=80),\n",
      "    Message('control_change', channel=0, control=64, value=11, time=80),\n",
      "    Message('control_change', channel=0, control=64, value=11, time=80),\n",
      "    Message('control_change', channel=0, control=64, value=11, time=80),\n",
      "    Message('control_change', channel=0, control=64, value=11, time=320),\n",
      "    Message('control_change', channel=0, control=64, value=11, time=80),\n",
      "    Message('control_change', channel=0, control=64, value=11, time=80),\n",
      "    Message('control_change', channel=0, control=64, value=11, time=80),\n",
      "    Message('control_change', channel=0, control=64, value=11, time=240),\n",
      "    Message('control_change', channel=0, control=64, value=11, time=80),\n",
      "    Message('control_change', channel=0, control=64, value=11, time=640),\n",
      "    Message('control_change', channel=0, control=64, value=11, time=80),\n",
      "    Message('control_change', channel=0, control=64, value=11, time=80),\n",
      "    Message('control_change', channel=0, control=64, value=11, time=80),\n",
      "    Message('control_change', channel=0, control=64, value=11, time=80),\n",
      "    Message('control_change', channel=0, control=64, value=11, time=80),\n",
      "    Message('control_change', channel=0, control=64, value=11, time=80),\n",
      "    Message('control_change', channel=0, control=64, value=11, time=80),\n",
      "    Message('control_change', channel=0, control=64, value=11, time=80),\n",
      "    Message('control_change', channel=0, control=64, value=11, time=80),\n",
      "    Message('control_change', channel=0, control=64, value=11, time=80),\n",
      "    Message('control_change', channel=0, control=64, value=11, time=80),\n",
      "    Message('control_change', channel=0, control=64, value=11, time=320),\n",
      "    Message('control_change', channel=0, control=64, value=11, time=160),\n",
      "    Message('control_change', channel=0, control=64, value=11, time=400),\n",
      "    Message('control_change', channel=0, control=64, value=11, time=80),\n",
      "    Message('control_change', channel=0, control=64, value=11, time=160),\n",
      "    Message('control_change', channel=0, control=64, value=11, time=80),\n",
      "    Message('control_change', channel=0, control=64, value=11, time=80),\n",
      "    Message('control_change', channel=0, control=64, value=11, time=80),\n",
      "    Message('control_change', channel=0, control=64, value=11, time=160),\n",
      "    Message('control_change', channel=0, control=64, value=11, time=80),\n",
      "    Message('control_change', channel=0, control=64, value=11, time=640),\n",
      "    Message('control_change', channel=0, control=64, value=11, time=80),\n",
      "    Message('control_change', channel=0, control=64, value=11, time=160),\n",
      "    Message('control_change', channel=0, control=64, value=11, time=80),\n",
      "    Message('control_change', channel=0, control=64, value=11, time=160),\n",
      "    Message('control_change', channel=0, control=64, value=11, time=80),\n",
      "    Message('control_change', channel=0, control=64, value=11, time=160),\n",
      "    Message('control_change', channel=0, control=64, value=11, time=80),\n",
      "    Message('control_change', channel=0, control=64, value=11, time=160),\n",
      "    Message('control_change', channel=0, control=64, value=11, time=80),\n",
      "    Message('control_change', channel=0, control=64, value=11, time=80),\n",
      "    Message('control_change', channel=0, control=64, value=11, time=80),\n",
      "    Message('control_change', channel=0, control=64, value=11, time=160),\n",
      "    Message('control_change', channel=0, control=64, value=11, time=80),\n",
      "    Message('control_change', channel=0, control=64, value=11, time=160),\n",
      "    Message('control_change', channel=0, control=64, value=11, time=80),\n",
      "    Message('control_change', channel=0, control=64, value=11, time=80),\n",
      "    Message('control_change', channel=0, control=64, value=11, time=80),\n",
      "    Message('control_change', channel=0, control=64, value=11, time=160),\n",
      "    Message('control_change', channel=0, control=64, value=11, time=80),\n",
      "    Message('control_change', channel=0, control=64, value=11, time=80),\n",
      "    Message('control_change', channel=0, control=64, value=11, time=80),\n",
      "    Message('control_change', channel=0, control=64, value=11, time=160),\n",
      "    Message('control_change', channel=0, control=64, value=11, time=80),\n",
      "    Message('control_change', channel=0, control=64, value=11, time=80),\n",
      "    Message('control_change', channel=0, control=64, value=11, time=80),\n",
      "    Message('control_change', channel=0, control=64, value=11, time=160),\n",
      "    Message('control_change', channel=0, control=64, value=11, time=80),\n",
      "    Message('control_change', channel=0, control=64, value=11, time=80),\n",
      "    Message('control_change', channel=0, control=64, value=11, time=80),\n",
      "    Message('control_change', channel=0, control=64, value=11, time=320),\n",
      "    Message('control_change', channel=0, control=64, value=11, time=80),\n",
      "    Message('control_change', channel=0, control=64, value=11, time=240),\n",
      "    Message('control_change', channel=0, control=64, value=11, time=80),\n",
      "    Message('control_change', channel=0, control=64, value=11, time=160),\n",
      "    Message('control_change', channel=0, control=64, value=11, time=80),\n",
      "    Message('control_change', channel=0, control=64, value=11, time=80),\n",
      "    Message('control_change', channel=0, control=64, value=11, time=80),\n",
      "    Message('control_change', channel=0, control=64, value=11, time=80),\n",
      "    Message('control_change', channel=0, control=64, value=11, time=80),\n",
      "    Message('control_change', channel=0, control=64, value=11, time=320),\n",
      "    Message('control_change', channel=0, control=64, value=11, time=80),\n",
      "    Message('control_change', channel=0, control=64, value=11, time=80),\n",
      "    Message('control_change', channel=0, control=64, value=11, time=80),\n",
      "    Message('control_change', channel=0, control=64, value=11, time=80),\n",
      "    Message('control_change', channel=0, control=64, value=11, time=80),\n",
      "    Message('control_change', channel=0, control=64, value=11, time=80),\n",
      "    Message('control_change', channel=0, control=64, value=11, time=80),\n",
      "    Message('control_change', channel=0, control=64, value=11, time=80),\n",
      "    Message('control_change', channel=0, control=64, value=11, time=80),\n",
      "    Message('control_change', channel=0, control=64, value=11, time=1200),\n",
      "    Message('control_change', channel=0, control=64, value=11, time=80),\n",
      "    Message('control_change', channel=0, control=64, value=11, time=80),\n",
      "    Message('control_change', channel=0, control=64, value=11, time=80),\n",
      "    Message('control_change', channel=0, control=64, value=11, time=480),\n",
      "    Message('control_change', channel=0, control=64, value=11, time=80),\n",
      "    Message('control_change', channel=0, control=64, value=11, time=80),\n",
      "    Message('control_change', channel=0, control=64, value=11, time=80),\n",
      "    Message('control_change', channel=0, control=64, value=11, time=480),\n",
      "    Message('control_change', channel=0, control=64, value=11, time=80),\n",
      "    Message('control_change', channel=0, control=64, value=11, time=160),\n",
      "    Message('control_change', channel=0, control=64, value=11, time=80),\n",
      "    Message('control_change', channel=0, control=64, value=11, time=80),\n",
      "    Message('control_change', channel=0, control=64, value=11, time=80),\n",
      "    Message('control_change', channel=0, control=64, value=11, time=320),\n",
      "    Message('control_change', channel=0, control=64, value=11, time=80),\n",
      "    Message('control_change', channel=0, control=64, value=11, time=80),\n",
      "    Message('control_change', channel=0, control=64, value=11, time=80),\n",
      "    Message('control_change', channel=0, control=64, value=11, time=160),\n",
      "    Message('control_change', channel=0, control=64, value=11, time=80),\n",
      "    Message('control_change', channel=0, control=64, value=11, time=160),\n",
      "    Message('control_change', channel=0, control=64, value=11, time=80),\n",
      "    Message('control_change', channel=0, control=64, value=11, time=240),\n",
      "    Message('control_change', channel=0, control=64, value=11, time=80),\n",
      "    Message('control_change', channel=0, control=64, value=11, time=80),\n",
      "    Message('control_change', channel=0, control=64, value=11, time=80),\n",
      "    Message('control_change', channel=0, control=64, value=11, time=160),\n",
      "    Message('control_change', channel=0, control=64, value=11, time=80),\n",
      "    Message('control_change', channel=0, control=64, value=11, time=80),\n",
      "    Message('control_change', channel=0, control=64, value=11, time=80),\n",
      "    Message('control_change', channel=0, control=64, value=11, time=80),\n",
      "    Message('control_change', channel=0, control=64, value=11, time=80),\n",
      "    Message('control_change', channel=0, control=64, value=11, time=160),\n",
      "    Message('control_change', channel=0, control=64, value=11, time=80),\n",
      "    Message('control_change', channel=0, control=64, value=11, time=80),\n",
      "    Message('control_change', channel=0, control=64, value=11, time=80),\n",
      "    Message('control_change', channel=0, control=64, value=11, time=160),\n",
      "    Message('control_change', channel=0, control=64, value=11, time=80),\n",
      "    Message('control_change', channel=0, control=64, value=11, time=80),\n",
      "    Message('control_change', channel=0, control=64, value=11, time=80),\n",
      "    Message('control_change', channel=0, control=64, value=11, time=320),\n",
      "    Message('control_change', channel=0, control=64, value=11, time=80),\n",
      "    Message('control_change', channel=0, control=64, value=11, time=160),\n",
      "    Message('control_change', channel=0, control=64, value=11, time=80),\n",
      "    Message('control_change', channel=0, control=64, value=11, time=80),\n",
      "    Message('control_change', channel=0, control=64, value=11, time=80),\n",
      "    Message('control_change', channel=0, control=64, value=11, time=160),\n",
      "    Message('control_change', channel=0, control=64, value=11, time=80),\n",
      "    Message('control_change', channel=0, control=64, value=11, time=80),\n",
      "    Message('control_change', channel=0, control=64, value=11, time=80),\n",
      "    Message('control_change', channel=0, control=64, value=11, time=160),\n",
      "    Message('control_change', channel=0, control=64, value=11, time=80),\n",
      "    Message('control_change', channel=0, control=64, value=11, time=80),\n",
      "    Message('control_change', channel=0, control=64, value=11, time=80),\n",
      "    Message('control_change', channel=0, control=64, value=11, time=320),\n",
      "    Message('control_change', channel=0, control=64, value=11, time=80),\n",
      "    Message('control_change', channel=0, control=64, value=11, time=400),\n",
      "    Message('control_change', channel=0, control=64, value=11, time=80),\n",
      "    Message('control_change', channel=0, control=64, value=11, time=240),\n",
      "    Message('control_change', channel=0, control=64, value=11, time=80),\n",
      "    Message('control_change', channel=0, control=64, value=11, time=560),\n",
      "    Message('control_change', channel=0, control=64, value=11, time=160),\n",
      "    Message('control_change', channel=0, control=64, value=11, time=80),\n",
      "    Message('control_change', channel=0, control=64, value=12, time=480),\n",
      "    Message('control_change', channel=0, control=64, value=13, time=80),\n",
      "    Message('control_change', channel=0, control=64, value=14, time=240),\n",
      "    Message('control_change', channel=0, control=64, value=15, time=240),\n",
      "    Message('control_change', channel=0, control=64, value=15, time=80),\n",
      "    Message('control_change', channel=0, control=64, value=16, time=160),\n",
      "    Message('control_change', channel=0, control=64, value=16, time=80),\n",
      "    Message('control_change', channel=0, control=64, value=17, time=80),\n",
      "    Message('control_change', channel=0, control=64, value=18, time=80),\n",
      "    Message('control_change', channel=0, control=64, value=19, time=80),\n",
      "    Message('control_change', channel=0, control=64, value=20, time=80),\n",
      "    Message('control_change', channel=0, control=64, value=21, time=80),\n",
      "    Message('control_change', channel=0, control=64, value=21, time=80),\n",
      "    Message('control_change', channel=0, control=64, value=22, time=80),\n",
      "    Message('control_change', channel=0, control=64, value=22, time=160),\n",
      "    Message('control_change', channel=0, control=64, value=23, time=240),\n",
      "    Message('control_change', channel=0, control=64, value=24, time=160),\n",
      "    Message('control_change', channel=0, control=64, value=25, time=80),\n",
      "    Message('control_change', channel=0, control=64, value=27, time=80),\n",
      "    Message('control_change', channel=0, control=64, value=30, time=80),\n",
      "    Message('control_change', channel=0, control=64, value=36, time=80),\n",
      "    Message('control_change', channel=0, control=64, value=41, time=80),\n",
      "    Message('control_change', channel=0, control=64, value=47, time=80),\n",
      "    Message('control_change', channel=0, control=64, value=52, time=80),\n",
      "    Message('control_change', channel=0, control=64, value=58, time=80),\n",
      "    Message('control_change', channel=0, control=64, value=64, time=80),\n",
      "    Message('control_change', channel=0, control=64, value=70, time=80),\n",
      "    Message('control_change', channel=0, control=64, value=75, time=80),\n",
      "    Message('control_change', channel=0, control=64, value=80, time=80),\n",
      "    Message('control_change', channel=0, control=64, value=84, time=80),\n",
      "    Message('control_change', channel=0, control=64, value=86, time=80),\n",
      "    Message('control_change', channel=0, control=64, value=88, time=80),\n",
      "    Message('control_change', channel=0, control=64, value=89, time=80),\n",
      "    Message('control_change', channel=0, control=64, value=89, time=80),\n",
      "    Message('control_change', channel=0, control=64, value=90, time=240),\n",
      "    Message('control_change', channel=0, control=64, value=92, time=80),\n",
      "    Message('control_change', channel=0, control=64, value=94, time=80),\n",
      "    Message('control_change', channel=0, control=64, value=97, time=80),\n",
      "    Message('control_change', channel=0, control=64, value=101, time=80),\n",
      "    Message('control_change', channel=0, control=64, value=104, time=80),\n",
      "    Message('control_change', channel=0, control=64, value=107, time=80),\n",
      "    Message('control_change', channel=0, control=64, value=109, time=80),\n",
      "    Message('control_change', channel=0, control=64, value=112, time=80),\n",
      "    Message('control_change', channel=0, control=64, value=113, time=80),\n",
      "    Message('control_change', channel=0, control=64, value=115, time=80),\n",
      "    Message('control_change', channel=0, control=64, value=116, time=80),\n",
      "    Message('control_change', channel=0, control=64, value=117, time=80),\n",
      "    Message('control_change', channel=0, control=64, value=117, time=80),\n",
      "    Message('control_change', channel=0, control=64, value=118, time=320),\n",
      "    Message('control_change', channel=0, control=64, value=118, time=80),\n",
      "    Message('control_change', channel=0, control=64, value=119, time=80),\n",
      "    Message('control_change', channel=0, control=64, value=120, time=80),\n",
      "    Message('control_change', channel=0, control=64, value=120, time=80),\n",
      "    Message('control_change', channel=0, control=64, value=121, time=80),\n",
      "    Message('control_change', channel=0, control=64, value=122, time=160),\n",
      "    Message('control_change', channel=0, control=64, value=121, time=160),\n",
      "    Message('control_change', channel=0, control=64, value=122, time=160),\n",
      "    Message('control_change', channel=0, control=64, value=121, time=400),\n",
      "    Message('control_change', channel=0, control=64, value=122, time=160),\n",
      "    Message('control_change', channel=0, control=64, value=121, time=400),\n",
      "    Message('control_change', channel=0, control=64, value=122, time=80),\n",
      "    Message('control_change', channel=0, control=64, value=121, time=80),\n",
      "    Message('control_change', channel=0, control=64, value=122, time=80),\n",
      "    Message('control_change', channel=0, control=64, value=121, time=480),\n",
      "    Message('control_change', channel=0, control=64, value=122, time=240),\n",
      "    Message('control_change', channel=0, control=64, value=121, time=480),\n",
      "    Message('control_change', channel=0, control=64, value=122, time=160),\n",
      "    Message('control_change', channel=0, control=64, value=121, time=160),\n",
      "    Message('control_change', channel=0, control=64, value=120, time=160),\n",
      "    Message('control_change', channel=0, control=64, value=119, time=80),\n",
      "    Message('control_change', channel=0, control=64, value=118, time=80),\n",
      "    Message('control_change', channel=0, control=64, value=118, time=80),\n",
      "    Message('control_change', channel=0, control=64, value=116, time=160),\n",
      "    Message('control_change', channel=0, control=64, value=115, time=80),\n",
      "    Message('control_change', channel=0, control=64, value=112, time=80),\n",
      "    Message('control_change', channel=0, control=64, value=109, time=80),\n",
      "    Message('control_change', channel=0, control=64, value=105, time=80),\n",
      "    Message('control_change', channel=0, control=64, value=102, time=80),\n",
      "    Message('control_change', channel=0, control=64, value=98, time=80),\n",
      "    Message('control_change', channel=0, control=64, value=94, time=80),\n",
      "    Message('control_change', channel=0, control=64, value=90, time=80),\n",
      "    Message('control_change', channel=0, control=64, value=86, time=80),\n",
      "    Message('control_change', channel=0, control=64, value=84, time=80),\n",
      "    Message('control_change', channel=0, control=64, value=82, time=80),\n",
      "    Message('control_change', channel=0, control=64, value=81, time=80),\n",
      "    Message('control_change', channel=0, control=64, value=80, time=80),\n",
      "    Message('control_change', channel=0, control=64, value=78, time=80),\n",
      "    Message('control_change', channel=0, control=64, value=75, time=80),\n",
      "    Message('control_change', channel=0, control=64, value=71, time=80),\n",
      "    Message('control_change', channel=0, control=64, value=67, time=80),\n",
      "    Message('control_change', channel=0, control=64, value=62, time=80),\n",
      "    Message('control_change', channel=0, control=64, value=57, time=80),\n",
      "    Message('control_change', channel=0, control=64, value=51, time=80),\n",
      "    Message('control_change', channel=0, control=64, value=45, time=80),\n",
      "    Message('control_change', channel=0, control=64, value=39, time=80),\n",
      "    Message('control_change', channel=0, control=64, value=33, time=80),\n",
      "    Message('control_change', channel=0, control=64, value=28, time=80),\n",
      "    Message('control_change', channel=0, control=64, value=24, time=80),\n",
      "    Message('control_change', channel=0, control=64, value=20, time=80),\n",
      "    Message('control_change', channel=0, control=64, value=19, time=80),\n",
      "    Message('control_change', channel=0, control=64, value=18, time=80),\n",
      "    Message('control_change', channel=0, control=64, value=18, time=80),\n",
      "    Message('control_change', channel=0, control=64, value=17, time=80),\n",
      "    Message('control_change', channel=0, control=64, value=18, time=160),\n",
      "    Message('control_change', channel=0, control=64, value=17, time=80),\n",
      "    Message('control_change', channel=0, control=64, value=18, time=560),\n",
      "    Message('control_change', channel=0, control=64, value=19, time=80),\n",
      "    Message('control_change', channel=0, control=64, value=20, time=80),\n",
      "    Message('control_change', channel=0, control=64, value=22, time=80),\n",
      "    Message('control_change', channel=0, control=64, value=25, time=80),\n",
      "    Message('control_change', channel=0, control=64, value=28, time=80),\n",
      "    Message('control_change', channel=0, control=64, value=30, time=80),\n",
      "    Message('control_change', channel=0, control=64, value=32, time=80),\n",
      "    Message('control_change', channel=0, control=64, value=35, time=80),\n",
      "    Message('control_change', channel=0, control=64, value=41, time=80),\n",
      "    Message('control_change', channel=0, control=64, value=49, time=80),\n",
      "    Message('control_change', channel=0, control=64, value=56, time=80),\n",
      "    Message('control_change', channel=0, control=64, value=64, time=80),\n",
      "    Message('control_change', channel=0, control=64, value=71, time=80),\n",
      "    Message('control_change', channel=0, control=64, value=78, time=80),\n",
      "    Message('control_change', channel=0, control=64, value=85, time=80),\n",
      "    Message('control_change', channel=0, control=64, value=92, time=80),\n",
      "    Message('control_change', channel=0, control=64, value=98, time=80),\n",
      "    Message('control_change', channel=0, control=64, value=102, time=80),\n",
      "    Message('control_change', channel=0, control=64, value=104, time=80),\n",
      "    Message('control_change', channel=0, control=64, value=105, time=80),\n",
      "    Message('control_change', channel=0, control=64, value=106, time=720),\n",
      "    Message('control_change', channel=0, control=64, value=107, time=80),\n",
      "    Message('control_change', channel=0, control=64, value=108, time=80),\n",
      "    Message('control_change', channel=0, control=64, value=110, time=80),\n",
      "    Message('control_change', channel=0, control=64, value=112, time=80),\n",
      "    Message('control_change', channel=0, control=64, value=113, time=80),\n",
      "    Message('control_change', channel=0, control=64, value=113, time=10160),\n",
      "    Message('control_change', channel=0, control=64, value=112, time=2000),\n",
      "    Message('control_change', channel=0, control=64, value=110, time=80),\n",
      "    Message('control_change', channel=0, control=64, value=109, time=80),\n",
      "    Message('control_change', channel=0, control=64, value=107, time=80),\n",
      "    Message('control_change', channel=0, control=64, value=106, time=80),\n",
      "    Message('control_change', channel=0, control=64, value=103, time=80),\n",
      "    Message('control_change', channel=0, control=64, value=101, time=80),\n",
      "    Message('control_change', channel=0, control=64, value=97, time=80),\n",
      "    Message('control_change', channel=0, control=64, value=92, time=80),\n",
      "    Message('control_change', channel=0, control=64, value=88, time=80),\n",
      "    Message('control_change', channel=0, control=64, value=84, time=80),\n",
      "    Message('control_change', channel=0, control=64, value=81, time=80),\n",
      "    Message('control_change', channel=0, control=64, value=81, time=80),\n",
      "    Message('control_change', channel=0, control=64, value=79, time=80),\n",
      "    Message('control_change', channel=0, control=64, value=77, time=80),\n",
      "    Message('control_change', channel=0, control=64, value=74, time=80),\n",
      "    Message('control_change', channel=0, control=64, value=71, time=80),\n",
      "    Message('control_change', channel=0, control=64, value=68, time=80),\n",
      "    Message('control_change', channel=0, control=64, value=65, time=80),\n",
      "    Message('control_change', channel=0, control=64, value=61, time=80),\n",
      "    Message('control_change', channel=0, control=64, value=55, time=80),\n",
      "    Message('control_change', channel=0, control=64, value=48, time=80),\n",
      "    Message('control_change', channel=0, control=64, value=40, time=80),\n",
      "    Message('control_change', channel=0, control=64, value=32, time=80),\n",
      "    Message('control_change', channel=0, control=64, value=25, time=80),\n",
      "    Message('control_change', channel=0, control=64, value=19, time=80),\n",
      "    Message('control_change', channel=0, control=64, value=15, time=80),\n",
      "    Message('control_change', channel=0, control=64, value=14, time=80),\n",
      "    Message('control_change', channel=0, control=64, value=12, time=80),\n",
      "    Message('control_change', channel=0, control=64, value=11, time=80),\n",
      "    Message('control_change', channel=0, control=64, value=10, time=160),\n",
      "    Message('control_change', channel=0, control=64, value=10, time=160),\n",
      "    Message('control_change', channel=0, control=64, value=10, time=1280),\n",
      "    Message('control_change', channel=0, control=64, value=11, time=240),\n",
      "    Message('control_change', channel=0, control=64, value=11, time=160),\n",
      "    Message('control_change', channel=0, control=64, value=12, time=160),\n",
      "    Message('control_change', channel=0, control=64, value=12, time=80),\n",
      "    Message('control_change', channel=0, control=64, value=13, time=80),\n",
      "    Message('control_change', channel=0, control=64, value=14, time=80),\n",
      "    Message('control_change', channel=0, control=64, value=14, time=80),\n",
      "    Message('control_change', channel=0, control=64, value=15, time=80),\n",
      "    Message('control_change', channel=0, control=64, value=15, time=80),\n",
      "    Message('control_change', channel=0, control=64, value=16, time=80),\n",
      "    Message('control_change', channel=0, control=64, value=16, time=240),\n",
      "    Message('control_change', channel=0, control=64, value=17, time=80),\n",
      "    Message('control_change', channel=0, control=64, value=17, time=160),\n",
      "    Message('control_change', channel=0, control=64, value=18, time=80),\n",
      "    Message('control_change', channel=0, control=64, value=18, time=80),\n",
      "    Message('control_change', channel=0, control=64, value=19, time=80),\n",
      "    Message('control_change', channel=0, control=64, value=20, time=80),\n",
      "    Message('control_change', channel=0, control=64, value=21, time=80),\n",
      "    Message('control_change', channel=0, control=64, value=21, time=80),\n",
      "    Message('control_change', channel=0, control=64, value=22, time=80),\n",
      "    Message('control_change', channel=0, control=64, value=22, time=80),\n",
      "    Message('control_change', channel=0, control=64, value=23, time=80),\n",
      "    Message('control_change', channel=0, control=64, value=23, time=80),\n",
      "    Message('control_change', channel=0, control=64, value=24, time=80),\n",
      "    Message('control_change', channel=0, control=64, value=24, time=80),\n",
      "    Message('control_change', channel=0, control=64, value=25, time=160),\n",
      "    Message('control_change', channel=0, control=64, value=25, time=80),\n",
      "    Message('control_change', channel=0, control=64, value=26, time=80),\n",
      "    Message('control_change', channel=0, control=64, value=27, time=80),\n",
      "    Message('control_change', channel=0, control=64, value=30, time=80),\n",
      "    Message('control_change', channel=0, control=64, value=35, time=80),\n",
      "    Message('control_change', channel=0, control=64, value=41, time=80),\n",
      "    Message('control_change', channel=0, control=64, value=48, time=80),\n",
      "    Message('control_change', channel=0, control=64, value=54, time=80),\n",
      "    Message('control_change', channel=0, control=64, value=60, time=80),\n",
      "    Message('control_change', channel=0, control=64, value=67, time=80),\n",
      "    Message('control_change', channel=0, control=64, value=75, time=80),\n",
      "    Message('control_change', channel=0, control=64, value=82, time=80),\n",
      "    Message('control_change', channel=0, control=64, value=89, time=80),\n",
      "    Message('control_change', channel=0, control=64, value=95, time=80),\n",
      "    Message('control_change', channel=0, control=64, value=99, time=80),\n",
      "    Message('control_change', channel=0, control=64, value=102, time=80),\n",
      "    Message('control_change', channel=0, control=64, value=103, time=80),\n",
      "    Message('control_change', channel=0, control=64, value=102, time=8800),\n",
      "    Message('control_change', channel=0, control=64, value=100, time=80),\n",
      "    Message('control_change', channel=0, control=64, value=96, time=80),\n",
      "    Message('control_change', channel=0, control=64, value=89, time=80),\n",
      "    Message('control_change', channel=0, control=64, value=80, time=80),\n",
      "    Message('control_change', channel=0, control=64, value=71, time=80),\n",
      "    Message('control_change', channel=0, control=64, value=63, time=80),\n",
      "    Message('control_change', channel=0, control=64, value=53, time=80),\n",
      "    Message('control_change', channel=0, control=64, value=41, time=80),\n",
      "    Message('control_change', channel=0, control=64, value=28, time=80),\n",
      "    Message('control_change', channel=0, control=64, value=19, time=80),\n",
      "    Message('control_change', channel=0, control=64, value=16, time=80),\n",
      "    Message('control_change', channel=0, control=64, value=14, time=80),\n",
      "    Message('control_change', channel=0, control=64, value=12, time=80),\n",
      "    Message('control_change', channel=0, control=64, value=12, time=80),\n",
      "    Message('control_change', channel=0, control=64, value=12, time=320),\n",
      "    Message('control_change', channel=0, control=64, value=14, time=80),\n",
      "    Message('control_change', channel=0, control=64, value=15, time=80),\n",
      "    Message('control_change', channel=0, control=64, value=16, time=80),\n",
      "    Message('control_change', channel=0, control=64, value=18, time=80),\n",
      "    Message('control_change', channel=0, control=64, value=21, time=80),\n",
      "    Message('control_change', channel=0, control=64, value=24, time=80),\n",
      "    Message('control_change', channel=0, control=64, value=27, time=80),\n",
      "    Message('control_change', channel=0, control=64, value=30, time=80),\n",
      "    Message('control_change', channel=0, control=64, value=35, time=80),\n",
      "    Message('control_change', channel=0, control=64, value=43, time=80),\n",
      "    Message('control_change', channel=0, control=64, value=52, time=80),\n",
      "    Message('control_change', channel=0, control=64, value=63, time=80),\n",
      "    Message('control_change', channel=0, control=64, value=75, time=80),\n",
      "    Message('control_change', channel=0, control=64, value=85, time=80),\n",
      "    Message('control_change', channel=0, control=64, value=96, time=80),\n",
      "    Message('control_change', channel=0, control=64, value=105, time=80),\n",
      "    Message('control_change', channel=0, control=64, value=112, time=80),\n",
      "    Message('control_change', channel=0, control=64, value=116, time=80),\n",
      "    Message('control_change', channel=0, control=64, value=116, time=80),\n",
      "    Message('control_change', channel=0, control=64, value=116, time=10160),\n",
      "    Message('control_change', channel=0, control=64, value=116, time=3360),\n",
      "    Message('control_change', channel=0, control=64, value=114, time=80),\n",
      "    Message('control_change', channel=0, control=64, value=111, time=80),\n",
      "    Message('control_change', channel=0, control=64, value=108, time=80),\n",
      "    Message('control_change', channel=0, control=64, value=104, time=80),\n",
      "    Message('control_change', channel=0, control=64, value=99, time=80),\n",
      "    Message('control_change', channel=0, control=64, value=94, time=80),\n",
      "    Message('control_change', channel=0, control=64, value=88, time=80),\n",
      "    Message('control_change', channel=0, control=64, value=82, time=80),\n",
      "    Message('control_change', channel=0, control=64, value=80, time=80),\n",
      "    Message('control_change', channel=0, control=64, value=78, time=80),\n",
      "    Message('control_change', channel=0, control=64, value=74, time=80),\n",
      "    Message('control_change', channel=0, control=64, value=67, time=80),\n",
      "    Message('control_change', channel=0, control=64, value=60, time=80),\n",
      "    Message('control_change', channel=0, control=64, value=54, time=80),\n",
      "    Message('control_change', channel=0, control=64, value=48, time=80),\n",
      "    Message('control_change', channel=0, control=64, value=42, time=80),\n",
      "    Message('control_change', channel=0, control=64, value=35, time=80),\n",
      "    Message('control_change', channel=0, control=64, value=28, time=80),\n",
      "    Message('control_change', channel=0, control=64, value=22, time=80),\n",
      "    Message('control_change', channel=0, control=64, value=18, time=80),\n",
      "    Message('control_change', channel=0, control=64, value=16, time=80),\n",
      "    Message('control_change', channel=0, control=64, value=14, time=80),\n",
      "    Message('control_change', channel=0, control=64, value=12, time=80),\n",
      "    Message('control_change', channel=0, control=64, value=11, time=80),\n",
      "    Message('control_change', channel=0, control=64, value=9, time=80),\n",
      "    Message('control_change', channel=0, control=64, value=8, time=80),\n",
      "    Message('control_change', channel=0, control=64, value=6, time=80),\n",
      "    Message('control_change', channel=0, control=64, value=5, time=80),\n",
      "    Message('control_change', channel=0, control=64, value=8, time=1440),\n",
      "    Message('control_change', channel=0, control=64, value=13, time=80),\n",
      "    Message('control_change', channel=0, control=64, value=14, time=80),\n",
      "    Message('control_change', channel=0, control=64, value=17, time=80),\n",
      "    Message('control_change', channel=0, control=64, value=21, time=80),\n",
      "    Message('control_change', channel=0, control=64, value=24, time=80),\n",
      "    Message('control_change', channel=0, control=64, value=26, time=80),\n",
      "    Message('control_change', channel=0, control=64, value=27, time=80),\n",
      "    Message('control_change', channel=0, control=64, value=28, time=80),\n",
      "    Message('control_change', channel=0, control=64, value=30, time=80),\n",
      "    Message('control_change', channel=0, control=64, value=31, time=80),\n",
      "    Message('control_change', channel=0, control=64, value=32, time=240),\n",
      "    Message('control_change', channel=0, control=64, value=32, time=80),\n",
      "    Message('control_change', channel=0, control=64, value=33, time=80),\n",
      "    Message('control_change', channel=0, control=64, value=35, time=80),\n",
      "    Message('control_change', channel=0, control=64, value=38, time=80),\n",
      "    Message('control_change', channel=0, control=64, value=43, time=80),\n",
      "    Message('control_change', channel=0, control=64, value=47, time=80),\n",
      "    Message('control_change', channel=0, control=64, value=52, time=80),\n",
      "    Message('control_change', channel=0, control=64, value=56, time=80),\n",
      "    Message('control_change', channel=0, control=64, value=60, time=80),\n",
      "    Message('control_change', channel=0, control=64, value=63, time=80),\n",
      "    Message('control_change', channel=0, control=64, value=67, time=80),\n",
      "    Message('control_change', channel=0, control=64, value=71, time=80),\n",
      "    Message('control_change', channel=0, control=64, value=75, time=80),\n",
      "    Message('control_change', channel=0, control=64, value=78, time=80),\n",
      "    Message('control_change', channel=0, control=64, value=81, time=80),\n",
      "    Message('control_change', channel=0, control=64, value=83, time=80),\n",
      "    Message('control_change', channel=0, control=64, value=86, time=80),\n",
      "    Message('control_change', channel=0, control=64, value=87, time=80),\n",
      "    Message('control_change', channel=0, control=64, value=88, time=80),\n",
      "    Message('control_change', channel=0, control=64, value=88, time=80),\n",
      "    Message('control_change', channel=0, control=64, value=89, time=160),\n",
      "    Message('control_change', channel=0, control=64, value=89, time=80),\n",
      "    Message('control_change', channel=0, control=64, value=91, time=80),\n",
      "    Message('control_change', channel=0, control=64, value=92, time=80),\n",
      "    Message('control_change', channel=0, control=64, value=94, time=80),\n",
      "    Message('control_change', channel=0, control=64, value=96, time=80),\n",
      "    Message('control_change', channel=0, control=64, value=99, time=80),\n",
      "    Message('control_change', channel=0, control=64, value=100, time=80),\n",
      "    Message('control_change', channel=0, control=64, value=102, time=80),\n",
      "    Message('control_change', channel=0, control=64, value=103, time=80),\n",
      "    Message('control_change', channel=0, control=64, value=105, time=80),\n",
      "    Message('control_change', channel=0, control=64, value=106, time=80),\n",
      "    Message('control_change', channel=0, control=64, value=106, time=80),\n",
      "    Message('control_change', channel=0, control=64, value=107, time=1360),\n",
      "    Message('control_change', channel=0, control=64, value=106, time=80),\n",
      "    Message('control_change', channel=0, control=64, value=107, time=1040),\n",
      "    Message('control_change', channel=0, control=64, value=106, time=80),\n",
      "    Message('control_change', channel=0, control=64, value=107, time=80),\n",
      "    Message('control_change', channel=0, control=64, value=106, time=160),\n",
      "    Message('control_change', channel=0, control=64, value=107, time=320),\n",
      "    Message('control_change', channel=0, control=64, value=106, time=80),\n",
      "    Message('control_change', channel=0, control=64, value=107, time=80),\n",
      "    Message('control_change', channel=0, control=64, value=106, time=160),\n",
      "    Message('control_change', channel=0, control=64, value=107, time=320),\n",
      "    Message('control_change', channel=0, control=64, value=106, time=80),\n",
      "    Message('control_change', channel=0, control=64, value=107, time=80),\n",
      "    Message('control_change', channel=0, control=64, value=106, time=80),\n",
      "    Message('control_change', channel=0, control=64, value=107, time=720),\n",
      "    Message('control_change', channel=0, control=64, value=106, time=80),\n",
      "    Message('control_change', channel=0, control=64, value=107, time=240),\n",
      "    Message('control_change', channel=0, control=64, value=106, time=80),\n",
      "    Message('control_change', channel=0, control=64, value=107, time=80),\n",
      "    Message('control_change', channel=0, control=64, value=106, time=80),\n",
      "    Message('control_change', channel=0, control=64, value=107, time=160),\n",
      "    Message('control_change', channel=0, control=64, value=106, time=80),\n",
      "    Message('control_change', channel=0, control=64, value=107, time=240),\n",
      "    Message('control_change', channel=0, control=64, value=106, time=80),\n",
      "    Message('control_change', channel=0, control=64, value=107, time=160),\n",
      "    Message('control_change', channel=0, control=64, value=106, time=80),\n",
      "    Message('control_change', channel=0, control=64, value=107, time=80),\n",
      "    Message('control_change', channel=0, control=64, value=106, time=240),\n",
      "    Message('control_change', channel=0, control=64, value=107, time=160),\n",
      "    Message('control_change', channel=0, control=64, value=106, time=80),\n",
      "    Message('control_change', channel=0, control=64, value=107, time=320),\n",
      "    Message('control_change', channel=0, control=64, value=106, time=80),\n",
      "    Message('control_change', channel=0, control=64, value=107, time=80),\n",
      "    Message('control_change', channel=0, control=64, value=106, time=80),\n",
      "    Message('control_change', channel=0, control=64, value=107, time=1120),\n",
      "    Message('control_change', channel=0, control=64, value=106, time=80),\n",
      "    Message('control_change', channel=0, control=64, value=107, time=160),\n",
      "    Message('control_change', channel=0, control=64, value=106, time=80),\n",
      "    Message('control_change', channel=0, control=64, value=105, time=80),\n",
      "    Message('control_change', channel=0, control=64, value=99, time=80),\n",
      "    Message('control_change', channel=0, control=64, value=88, time=80),\n",
      "    Message('control_change', channel=0, control=64, value=75, time=80),\n",
      "    Message('control_change', channel=0, control=64, value=64, time=80),\n",
      "    Message('control_change', channel=0, control=64, value=54, time=80),\n",
      "    Message('control_change', channel=0, control=64, value=42, time=80),\n",
      "    Message('control_change', channel=0, control=64, value=30, time=80),\n",
      "    Message('control_change', channel=0, control=64, value=21, time=80),\n",
      "    Message('control_change', channel=0, control=64, value=18, time=80),\n",
      "    Message('control_change', channel=0, control=64, value=17, time=80),\n",
      "    Message('control_change', channel=0, control=64, value=16, time=80),\n",
      "    Message('control_change', channel=0, control=64, value=17, time=240),\n",
      "    Message('control_change', channel=0, control=64, value=18, time=80),\n",
      "    Message('control_change', channel=0, control=64, value=20, time=80),\n",
      "    Message('control_change', channel=0, control=64, value=23, time=80),\n",
      "    Message('control_change', channel=0, control=64, value=27, time=80),\n",
      "    Message('control_change', channel=0, control=64, value=31, time=80),\n",
      "    Message('control_change', channel=0, control=64, value=36, time=80),\n",
      "    Message('control_change', channel=0, control=64, value=42, time=80),\n",
      "    Message('control_change', channel=0, control=64, value=51, time=80),\n",
      "    Message('control_change', channel=0, control=64, value=60, time=80),\n",
      "    Message('control_change', channel=0, control=64, value=69, time=80),\n",
      "    Message('control_change', channel=0, control=64, value=78, time=80),\n",
      "    Message('control_change', channel=0, control=64, value=86, time=80),\n",
      "    Message('control_change', channel=0, control=64, value=95, time=80),\n",
      "    Message('control_change', channel=0, control=64, value=102, time=80),\n",
      "    Message('control_change', channel=0, control=64, value=107, time=80),\n",
      "    Message('control_change', channel=0, control=64, value=109, time=80),\n",
      "    Message('control_change', channel=0, control=64, value=110, time=80),\n",
      "    Message('control_change', channel=0, control=64, value=110, time=10160),\n",
      "    Message('control_change', channel=0, control=64, value=109, time=3680),\n",
      "    Message('control_change', channel=0, control=64, value=108, time=80),\n",
      "    Message('control_change', channel=0, control=64, value=106, time=80),\n",
      "    Message('control_change', channel=0, control=64, value=103, time=80),\n",
      "    Message('control_change', channel=0, control=64, value=99, time=80),\n",
      "    Message('control_change', channel=0, control=64, value=94, time=80),\n",
      "    Message('control_change', channel=0, control=64, value=89, time=80),\n",
      "    Message('control_change', channel=0, control=64, value=84, time=80),\n",
      "    Message('control_change', channel=0, control=64, value=81, time=80),\n",
      "    Message('control_change', channel=0, control=64, value=80, time=80),\n",
      "    Message('control_change', channel=0, control=64, value=78, time=80),\n",
      "    Message('control_change', channel=0, control=64, value=73, time=80),\n",
      "    Message('control_change', channel=0, control=64, value=66, time=80),\n",
      "    Message('control_change', channel=0, control=64, value=61, time=80),\n",
      "    Message('control_change', channel=0, control=64, value=56, time=80),\n",
      "    Message('control_change', channel=0, control=64, value=50, time=80),\n",
      "    Message('control_change', channel=0, control=64, value=41, time=80),\n",
      "    Message('control_change', channel=0, control=64, value=31, time=80),\n",
      "    Message('control_change', channel=0, control=64, value=23, time=80),\n",
      "    Message('control_change', channel=0, control=64, value=17, time=80),\n",
      "    Message('control_change', channel=0, control=64, value=13, time=80),\n",
      "    Message('control_change', channel=0, control=64, value=11, time=80),\n",
      "    Message('control_change', channel=0, control=64, value=8, time=80),\n",
      "    Message('control_change', channel=0, control=64, value=6, time=80),\n",
      "    Message('control_change', channel=0, control=64, value=5, time=80),\n",
      "    Message('control_change', channel=0, control=64, value=7, time=1280),\n",
      "    Message('control_change', channel=0, control=64, value=11, time=80),\n",
      "    Message('control_change', channel=0, control=64, value=12, time=80),\n",
      "    Message('control_change', channel=0, control=64, value=14, time=80),\n",
      "    Message('control_change', channel=0, control=64, value=17, time=80),\n",
      "    Message('control_change', channel=0, control=64, value=20, time=80),\n",
      "    Message('control_change', channel=0, control=64, value=22, time=80),\n",
      "    Message('control_change', channel=0, control=64, value=24, time=80),\n",
      "    Message('control_change', channel=0, control=64, value=26, time=80),\n",
      "    Message('control_change', channel=0, control=64, value=27, time=80),\n",
      "    Message('control_change', channel=0, control=64, value=29, time=80),\n",
      "    Message('control_change', channel=0, control=64, value=31, time=80),\n",
      "    Message('control_change', channel=0, control=64, value=36, time=80),\n",
      "    Message('control_change', channel=0, control=64, value=41, time=80),\n",
      "    Message('control_change', channel=0, control=64, value=46, time=80),\n",
      "    Message('control_change', channel=0, control=64, value=53, time=80),\n",
      "    Message('control_change', channel=0, control=64, value=60, time=80),\n",
      "    Message('control_change', channel=0, control=64, value=67, time=80),\n",
      "    Message('control_change', channel=0, control=64, value=76, time=80),\n",
      "    Message('control_change', channel=0, control=64, value=85, time=80),\n",
      "    Message('control_change', channel=0, control=64, value=94, time=80),\n",
      "    Message('control_change', channel=0, control=64, value=102, time=80),\n",
      "    Message('control_change', channel=0, control=64, value=109, time=80),\n",
      "    Message('control_change', channel=0, control=64, value=113, time=80),\n",
      "    Message('control_change', channel=0, control=64, value=115, time=80),\n",
      "    Message('control_change', channel=0, control=64, value=116, time=2240),\n",
      "    Message('control_change', channel=0, control=64, value=115, time=80),\n",
      "    Message('control_change', channel=0, control=64, value=116, time=1120),\n",
      "    Message('control_change', channel=0, control=64, value=115, time=80),\n",
      "    Message('control_change', channel=0, control=64, value=116, time=800),\n",
      "    Message('control_change', channel=0, control=64, value=115, time=80),\n",
      "    Message('control_change', channel=0, control=64, value=116, time=640),\n",
      "    Message('control_change', channel=0, control=64, value=115, time=80),\n",
      "    Message('control_change', channel=0, control=64, value=116, time=640),\n",
      "    Message('control_change', channel=0, control=64, value=115, time=80),\n",
      "    Message('control_change', channel=0, control=64, value=116, time=560),\n",
      "    Message('control_change', channel=0, control=64, value=115, time=80),\n",
      "    Message('control_change', channel=0, control=64, value=116, time=320),\n",
      "    Message('control_change', channel=0, control=64, value=115, time=80),\n",
      "    Message('control_change', channel=0, control=64, value=116, time=1280),\n",
      "    Message('control_change', channel=0, control=64, value=115, time=80),\n",
      "    Message('control_change', channel=0, control=64, value=116, time=1920),\n",
      "    Message('control_change', channel=0, control=64, value=115, time=80),\n",
      "    Message('control_change', channel=0, control=64, value=114, time=400),\n",
      "    Message('control_change', channel=0, control=64, value=112, time=80),\n",
      "    Message('control_change', channel=0, control=64, value=110, time=80),\n",
      "    Message('control_change', channel=0, control=64, value=109, time=80),\n",
      "    Message('control_change', channel=0, control=64, value=107, time=80),\n",
      "    Message('control_change', channel=0, control=64, value=105, time=80),\n",
      "    Message('control_change', channel=0, control=64, value=102, time=80),\n",
      "    Message('control_change', channel=0, control=64, value=100, time=80),\n",
      "    Message('control_change', channel=0, control=64, value=97, time=80),\n",
      "    Message('control_change', channel=0, control=64, value=94, time=80),\n",
      "    Message('control_change', channel=0, control=64, value=92, time=80),\n",
      "    Message('control_change', channel=0, control=64, value=90, time=80),\n",
      "    Message('control_change', channel=0, control=64, value=87, time=80),\n",
      "    Message('control_change', channel=0, control=64, value=85, time=80),\n",
      "    Message('control_change', channel=0, control=64, value=83, time=80),\n",
      "    Message('control_change', channel=0, control=64, value=82, time=80),\n",
      "    Message('control_change', channel=0, control=64, value=81, time=80),\n",
      "    Message('control_change', channel=0, control=64, value=77, time=80),\n",
      "    Message('control_change', channel=0, control=64, value=72, time=80),\n",
      "    Message('control_change', channel=0, control=64, value=67, time=80),\n",
      "    Message('control_change', channel=0, control=64, value=63, time=80),\n",
      "    Message('control_change', channel=0, control=64, value=57, time=80),\n",
      "    Message('control_change', channel=0, control=64, value=51, time=80),\n",
      "    Message('control_change', channel=0, control=64, value=43, time=80),\n",
      "    Message('control_change', channel=0, control=64, value=35, time=80),\n",
      "    Message('control_change', channel=0, control=64, value=28, time=80),\n",
      "    Message('control_change', channel=0, control=64, value=22, time=80),\n",
      "    Message('control_change', channel=0, control=64, value=17, time=80),\n",
      "    Message('control_change', channel=0, control=64, value=15, time=80),\n",
      "    Message('control_change', channel=0, control=64, value=12, time=80),\n",
      "    Message('control_change', channel=0, control=64, value=10, time=80),\n",
      "    Message('control_change', channel=0, control=64, value=9, time=80),\n",
      "    Message('control_change', channel=0, control=64, value=7, time=80),\n",
      "    Message('control_change', channel=0, control=64, value=7, time=80),\n",
      "    Message('control_change', channel=0, control=64, value=7, time=1040),\n",
      "    Message('control_change', channel=0, control=64, value=9, time=80),\n",
      "    Message('control_change', channel=0, control=64, value=11, time=80),\n",
      "    Message('control_change', channel=0, control=64, value=12, time=160),\n",
      "    Message('control_change', channel=0, control=64, value=13, time=80),\n",
      "    Message('control_change', channel=0, control=64, value=13, time=240),\n",
      "    Message('control_change', channel=0, control=64, value=14, time=160),\n",
      "    Message('control_change', channel=0, control=64, value=15, time=80),\n",
      "    Message('control_change', channel=0, control=64, value=16, time=80),\n",
      "    Message('control_change', channel=0, control=64, value=17, time=80),\n",
      "    Message('control_change', channel=0, control=64, value=19, time=80),\n",
      "    Message('control_change', channel=0, control=64, value=22, time=80),\n",
      "    Message('control_change', channel=0, control=64, value=25, time=80),\n",
      "    Message('control_change', channel=0, control=64, value=27, time=80),\n",
      "    Message('control_change', channel=0, control=64, value=28, time=80),\n",
      "    Message('control_change', channel=0, control=64, value=31, time=80),\n",
      "    Message('control_change', channel=0, control=64, value=36, time=80),\n",
      "    Message('control_change', channel=0, control=64, value=42, time=80),\n",
      "    Message('control_change', channel=0, control=64, value=48, time=80),\n",
      "    Message('control_change', channel=0, control=64, value=53, time=80),\n",
      "    Message('control_change', channel=0, control=64, value=58, time=80),\n",
      "    Message('control_change', channel=0, control=64, value=63, time=80),\n",
      "    Message('control_change', channel=0, control=64, value=69, time=80),\n",
      "    Message('control_change', channel=0, control=64, value=75, time=80),\n",
      "    Message('control_change', channel=0, control=64, value=81, time=80),\n",
      "    Message('control_change', channel=0, control=64, value=88, time=80),\n",
      "    Message('control_change', channel=0, control=64, value=92, time=80),\n",
      "    Message('control_change', channel=0, control=64, value=96, time=80),\n",
      "    Message('control_change', channel=0, control=64, value=98, time=80),\n",
      "    Message('control_change', channel=0, control=64, value=99, time=80),\n",
      "    Message('control_change', channel=0, control=64, value=100, time=80),\n",
      "    Message('control_change', channel=0, control=64, value=98, time=4880),\n",
      "    Message('control_change', channel=0, control=64, value=93, time=80),\n",
      "    Message('control_change', channel=0, control=64, value=84, time=80),\n",
      "    Message('control_change', channel=0, control=64, value=76, time=80),\n",
      "    Message('control_change', channel=0, control=64, value=70, time=80),\n",
      "    Message('control_change', channel=0, control=64, value=66, time=80),\n",
      "    Message('control_change', channel=0, control=64, value=60, time=80),\n",
      "    Message('control_change', channel=0, control=64, value=55, time=80),\n",
      "    Message('control_change', channel=0, control=64, value=53, time=80),\n",
      "    Message('control_change', channel=0, control=64, value=54, time=240),\n",
      "    Message('control_change', channel=0, control=64, value=55, time=80),\n",
      "    Message('control_change', channel=0, control=64, value=57, time=80),\n",
      "    Message('control_change', channel=0, control=64, value=58, time=80),\n",
      "    Message('control_change', channel=0, control=64, value=60, time=80),\n",
      "    Message('control_change', channel=0, control=64, value=64, time=80),\n",
      "    Message('control_change', channel=0, control=64, value=70, time=80),\n",
      "    Message('control_change', channel=0, control=64, value=78, time=80),\n",
      "    Message('control_change', channel=0, control=64, value=85, time=80),\n",
      "    Message('control_change', channel=0, control=64, value=89, time=80),\n",
      "    Message('control_change', channel=0, control=64, value=92, time=80),\n",
      "    Message('control_change', channel=0, control=64, value=95, time=80),\n",
      "    Message('control_change', channel=0, control=64, value=97, time=80),\n",
      "    Message('control_change', channel=0, control=64, value=99, time=80),\n",
      "    Message('control_change', channel=0, control=64, value=100, time=80),\n",
      "    Message('control_change', channel=0, control=64, value=99, time=2240),\n",
      "    Message('control_change', channel=0, control=64, value=98, time=80),\n",
      "    Message('control_change', channel=0, control=64, value=96, time=80),\n",
      "    Message('control_change', channel=0, control=64, value=94, time=80),\n",
      "    Message('control_change', channel=0, control=64, value=91, time=80),\n",
      "    Message('control_change', channel=0, control=64, value=88, time=80),\n",
      "    Message('control_change', channel=0, control=64, value=85, time=80),\n",
      "    Message('control_change', channel=0, control=64, value=82, time=80),\n",
      "    Message('control_change', channel=0, control=64, value=82, time=80),\n",
      "    Message('control_change', channel=0, control=64, value=81, time=80),\n",
      "    Message('control_change', channel=0, control=64, value=76, time=80),\n",
      "    Message('control_change', channel=0, control=64, value=69, time=80),\n",
      "    Message('control_change', channel=0, control=64, value=60, time=80),\n",
      "    Message('control_change', channel=0, control=64, value=52, time=80),\n",
      "    Message('control_change', channel=0, control=64, value=43, time=80),\n",
      "    Message('control_change', channel=0, control=64, value=35, time=80),\n",
      "    Message('control_change', channel=0, control=64, value=27, time=80),\n",
      "    Message('control_change', channel=0, control=64, value=19, time=80),\n",
      "    Message('control_change', channel=0, control=64, value=16, time=80),\n",
      "    Message('control_change', channel=0, control=64, value=15, time=80),\n",
      "    Message('control_change', channel=0, control=64, value=14, time=80),\n",
      "    Message('control_change', channel=0, control=64, value=13, time=80),\n",
      "    Message('control_change', channel=0, control=64, value=14, time=640),\n",
      "    Message('control_change', channel=0, control=64, value=15, time=80),\n",
      "    Message('control_change', channel=0, control=64, value=16, time=80),\n",
      "    Message('control_change', channel=0, control=64, value=18, time=80),\n",
      "    Message('control_change', channel=0, control=64, value=20, time=80),\n",
      "    Message('control_change', channel=0, control=64, value=23, time=80),\n",
      "    Message('control_change', channel=0, control=64, value=26, time=80),\n",
      "    Message('control_change', channel=0, control=64, value=29, time=80),\n",
      "    Message('control_change', channel=0, control=64, value=30, time=80),\n",
      "    Message('control_change', channel=0, control=64, value=32, time=80),\n",
      "    Message('control_change', channel=0, control=64, value=37, time=80),\n",
      "    Message('control_change', channel=0, control=64, value=44, time=80),\n",
      "    Message('control_change', channel=0, control=64, value=51, time=80),\n",
      "    Message('control_change', channel=0, control=64, value=58, time=80),\n",
      "    Message('control_change', channel=0, control=64, value=66, time=80),\n",
      "    Message('control_change', channel=0, control=64, value=73, time=80),\n",
      "    Message('control_change', channel=0, control=64, value=81, time=80),\n",
      "    Message('control_change', channel=0, control=64, value=88, time=80),\n",
      "    Message('control_change', channel=0, control=64, value=94, time=80),\n",
      "    Message('control_change', channel=0, control=64, value=97, time=80),\n",
      "    Message('control_change', channel=0, control=64, value=99, time=80),\n",
      "    Message('control_change', channel=0, control=64, value=98, time=1840),\n",
      "    Message('control_change', channel=0, control=64, value=98, time=80),\n",
      "    Message('control_change', channel=0, control=64, value=97, time=80),\n",
      "    Message('control_change', channel=0, control=64, value=95, time=80),\n",
      "    Message('control_change', channel=0, control=64, value=93, time=80),\n",
      "    Message('control_change', channel=0, control=64, value=91, time=80),\n",
      "    Message('control_change', channel=0, control=64, value=86, time=80),\n",
      "    Message('control_change', channel=0, control=64, value=82, time=80),\n",
      "    Message('control_change', channel=0, control=64, value=78, time=80),\n",
      "    Message('control_change', channel=0, control=64, value=74, time=80),\n",
      "    Message('control_change', channel=0, control=64, value=65, time=80),\n",
      "    Message('control_change', channel=0, control=64, value=54, time=80),\n",
      "    Message('control_change', channel=0, control=64, value=44, time=80),\n",
      "    Message('control_change', channel=0, control=64, value=38, time=80),\n",
      "    Message('control_change', channel=0, control=64, value=33, time=80),\n",
      "    Message('control_change', channel=0, control=64, value=30, time=80),\n",
      "    Message('control_change', channel=0, control=64, value=27, time=80),\n",
      "    Message('control_change', channel=0, control=64, value=26, time=80),\n",
      "    Message('control_change', channel=0, control=64, value=26, time=400),\n",
      "    Message('control_change', channel=0, control=64, value=27, time=80),\n",
      "    Message('control_change', channel=0, control=64, value=29, time=80),\n",
      "    Message('control_change', channel=0, control=64, value=31, time=80),\n",
      "    Message('control_change', channel=0, control=64, value=34, time=80),\n",
      "    Message('control_change', channel=0, control=64, value=35, time=80),\n",
      "    Message('control_change', channel=0, control=64, value=36, time=160),\n",
      "    Message('control_change', channel=0, control=64, value=37, time=80),\n",
      "    Message('control_change', channel=0, control=64, value=39, time=80),\n",
      "    Message('control_change', channel=0, control=64, value=41, time=80),\n",
      "    Message('control_change', channel=0, control=64, value=44, time=80),\n",
      "    Message('control_change', channel=0, control=64, value=47, time=80),\n",
      "    Message('control_change', channel=0, control=64, value=51, time=80),\n",
      "    Message('control_change', channel=0, control=64, value=57, time=80),\n",
      "    Message('control_change', channel=0, control=64, value=62, time=80),\n",
      "    Message('control_change', channel=0, control=64, value=68, time=80),\n",
      "    Message('control_change', channel=0, control=64, value=74, time=80),\n",
      "    Message('control_change', channel=0, control=64, value=80, time=80),\n",
      "    Message('control_change', channel=0, control=64, value=86, time=80),\n",
      "    Message('control_change', channel=0, control=64, value=89, time=80),\n",
      "    Message('control_change', channel=0, control=64, value=92, time=80),\n",
      "    Message('control_change', channel=0, control=64, value=93, time=80),\n",
      "    Message('control_change', channel=0, control=64, value=92, time=4160),\n",
      "    Message('control_change', channel=0, control=64, value=88, time=80),\n",
      "    Message('control_change', channel=0, control=64, value=81, time=80),\n",
      "    Message('control_change', channel=0, control=64, value=76, time=80),\n",
      "    Message('control_change', channel=0, control=64, value=72, time=80),\n",
      "    Message('control_change', channel=0, control=64, value=67, time=80),\n",
      "    Message('control_change', channel=0, control=64, value=62, time=80),\n",
      "    Message('control_change', channel=0, control=64, value=57, time=80),\n",
      "    Message('control_change', channel=0, control=64, value=54, time=80),\n",
      "    Message('control_change', channel=0, control=64, value=54, time=400),\n",
      "    Message('control_change', channel=0, control=64, value=55, time=80),\n",
      "    Message('control_change', channel=0, control=64, value=57, time=80),\n",
      "    Message('control_change', channel=0, control=64, value=58, time=80),\n",
      "    Message('control_change', channel=0, control=64, value=58, time=80),\n",
      "    Message('control_change', channel=0, control=64, value=59, time=80),\n",
      "    Message('control_change', channel=0, control=64, value=62, time=80),\n",
      "    Message('control_change', channel=0, control=64, value=65, time=80),\n",
      "    Message('control_change', channel=0, control=64, value=69, time=80),\n",
      "    Message('control_change', channel=0, control=64, value=74, time=80),\n",
      "    Message('control_change', channel=0, control=64, value=79, time=80),\n",
      "    Message('control_change', channel=0, control=64, value=83, time=80),\n",
      "    Message('control_change', channel=0, control=64, value=86, time=80),\n",
      "    Message('control_change', channel=0, control=64, value=87, time=80),\n",
      "    Message('control_change', channel=0, control=64, value=85, time=1600),\n",
      "    Message('control_change', channel=0, control=64, value=80, time=80),\n",
      "    Message('control_change', channel=0, control=64, value=74, time=80),\n",
      "    Message('control_change', channel=0, control=64, value=67, time=80),\n",
      "    Message('control_change', channel=0, control=64, value=59, time=80),\n",
      "    Message('control_change', channel=0, control=64, value=50, time=80),\n",
      "    Message('control_change', channel=0, control=64, value=42, time=80),\n",
      "    Message('control_change', channel=0, control=64, value=36, time=80),\n",
      "    Message('control_change', channel=0, control=64, value=33, time=80),\n",
      "    Message('control_change', channel=0, control=64, value=31, time=80),\n",
      "    Message('control_change', channel=0, control=64, value=30, time=80),\n",
      "    Message('control_change', channel=0, control=64, value=31, time=320),\n",
      "    Message('control_change', channel=0, control=64, value=34, time=80),\n",
      "    Message('control_change', channel=0, control=64, value=37, time=80),\n",
      "    Message('control_change', channel=0, control=64, value=40, time=80),\n",
      "    Message('control_change', channel=0, control=64, value=40, time=80),\n",
      "    Message('control_change', channel=0, control=64, value=42, time=80),\n",
      "    Message('control_change', channel=0, control=64, value=45, time=80),\n",
      "    Message('control_change', channel=0, control=64, value=50, time=80),\n",
      "    Message('control_change', channel=0, control=64, value=55, time=80),\n",
      "    Message('control_change', channel=0, control=64, value=61, time=80),\n",
      "    Message('control_change', channel=0, control=64, value=66, time=80),\n",
      "    Message('control_change', channel=0, control=64, value=70, time=80),\n",
      "    Message('control_change', channel=0, control=64, value=75, time=80),\n",
      "    Message('control_change', channel=0, control=64, value=78, time=80),\n",
      "    Message('control_change', channel=0, control=64, value=82, time=80),\n",
      "    Message('control_change', channel=0, control=64, value=85, time=80),\n",
      "    Message('control_change', channel=0, control=64, value=87, time=80),\n",
      "    Message('control_change', channel=0, control=64, value=85, time=2160),\n",
      "    Message('control_change', channel=0, control=64, value=81, time=80),\n",
      "    Message('control_change', channel=0, control=64, value=78, time=80),\n",
      "    Message('control_change', channel=0, control=64, value=75, time=80),\n",
      "    Message('control_change', channel=0, control=64, value=67, time=80),\n",
      "    Message('control_change', channel=0, control=64, value=57, time=80),\n",
      "    Message('control_change', channel=0, control=64, value=45, time=80),\n",
      "    Message('control_change', channel=0, control=64, value=35, time=80),\n",
      "    Message('control_change', channel=0, control=64, value=28, time=80),\n",
      "    Message('control_change', channel=0, control=64, value=22, time=80),\n",
      "    Message('control_change', channel=0, control=64, value=19, time=80),\n",
      "    Message('control_change', channel=0, control=64, value=18, time=80),\n",
      "    Message('control_change', channel=0, control=64, value=17, time=80),\n",
      "    Message('control_change', channel=0, control=64, value=18, time=560),\n",
      "    Message('control_change', channel=0, control=64, value=19, time=80),\n",
      "    Message('control_change', channel=0, control=64, value=21, time=80),\n",
      "    Message('control_change', channel=0, control=64, value=23, time=80),\n",
      "    Message('control_change', channel=0, control=64, value=27, time=80),\n",
      "    Message('control_change', channel=0, control=64, value=30, time=80),\n",
      "    Message('control_change', channel=0, control=64, value=32, time=80),\n",
      "    Message('control_change', channel=0, control=64, value=35, time=80),\n",
      "    Message('control_change', channel=0, control=64, value=39, time=80),\n",
      "    Message('control_change', channel=0, control=64, value=45, time=80),\n",
      "    Message('control_change', channel=0, control=64, value=52, time=80),\n",
      "    Message('control_change', channel=0, control=64, value=59, time=80),\n",
      "    Message('control_change', channel=0, control=64, value=66, time=80),\n",
      "    Message('control_change', channel=0, control=64, value=72, time=80),\n",
      "    Message('control_change', channel=0, control=64, value=78, time=80),\n",
      "    Message('control_change', channel=0, control=64, value=83, time=80),\n",
      "    Message('control_change', channel=0, control=64, value=86, time=80),\n",
      "    Message('control_change', channel=0, control=64, value=88, time=80),\n",
      "    Message('control_change', channel=0, control=64, value=87, time=8720),\n",
      "    Message('control_change', channel=0, control=64, value=86, time=80),\n",
      "    Message('control_change', channel=0, control=64, value=85, time=80),\n",
      "    Message('control_change', channel=0, control=64, value=83, time=80),\n",
      "    Message('control_change', channel=0, control=64, value=81, time=80),\n",
      "    Message('control_change', channel=0, control=64, value=81, time=80),\n",
      "    Message('control_change', channel=0, control=64, value=80, time=80),\n",
      "    Message('control_change', channel=0, control=64, value=78, time=80),\n",
      "    Message('control_change', channel=0, control=64, value=75, time=80),\n",
      "    Message('control_change', channel=0, control=64, value=71, time=80),\n",
      "    Message('control_change', channel=0, control=64, value=66, time=80),\n",
      "    Message('control_change', channel=0, control=64, value=62, time=80),\n",
      "    Message('control_change', channel=0, control=64, value=58, time=80),\n",
      "    Message('control_change', channel=0, control=64, value=53, time=80),\n",
      "    Message('control_change', channel=0, control=64, value=47, time=80),\n",
      "    Message('control_change', channel=0, control=64, value=42, time=80),\n",
      "    Message('control_change', channel=0, control=64, value=37, time=80),\n",
      "    Message('control_change', channel=0, control=64, value=31, time=80),\n",
      "    Message('control_change', channel=0, control=64, value=27, time=80),\n",
      "    Message('control_change', channel=0, control=64, value=23, time=80),\n",
      "    Message('control_change', channel=0, control=64, value=21, time=80),\n",
      "    Message('control_change', channel=0, control=64, value=20, time=80),\n",
      "    Message('control_change', channel=0, control=64, value=18, time=80),\n",
      "    Message('control_change', channel=0, control=64, value=17, time=80),\n",
      "    Message('control_change', channel=0, control=64, value=17, time=80),\n",
      "    Message('control_change', channel=0, control=64, value=16, time=80),\n",
      "    Message('control_change', channel=0, control=64, value=15, time=80),\n",
      "    Message('control_change', channel=0, control=64, value=15, time=80),\n",
      "    Message('control_change', channel=0, control=64, value=14, time=80),\n",
      "    Message('control_change', channel=0, control=64, value=13, time=80),\n",
      "    Message('control_change', channel=0, control=64, value=12, time=80),\n",
      "    Message('control_change', channel=0, control=64, value=12, time=80),\n",
      "    Message('control_change', channel=0, control=64, value=11, time=80),\n",
      "    Message('control_change', channel=0, control=64, value=11, time=160),\n",
      "    Message('control_change', channel=0, control=64, value=12, time=1920),\n",
      "    Message('control_change', channel=0, control=64, value=14, time=80),\n",
      "    Message('control_change', channel=0, control=64, value=15, time=80),\n",
      "    Message('control_change', channel=0, control=64, value=16, time=80),\n",
      "    Message('control_change', channel=0, control=64, value=19, time=80),\n",
      "    Message('control_change', channel=0, control=64, value=22, time=80),\n",
      "    Message('control_change', channel=0, control=64, value=24, time=80),\n",
      "    Message('control_change', channel=0, control=64, value=25, time=80),\n",
      "    Message('control_change', channel=0, control=64, value=26, time=80),\n",
      "    Message('control_change', channel=0, control=64, value=27, time=80),\n",
      "    Message('control_change', channel=0, control=64, value=27, time=80),\n",
      "    Message('control_change', channel=0, control=64, value=28, time=80),\n",
      "    Message('control_change', channel=0, control=64, value=29, time=80),\n",
      "    Message('control_change', channel=0, control=64, value=30, time=80),\n",
      "    Message('control_change', channel=0, control=64, value=31, time=80),\n",
      "    Message('control_change', channel=0, control=64, value=34, time=80),\n",
      "    Message('control_change', channel=0, control=64, value=38, time=80),\n",
      "    Message('control_change', channel=0, control=64, value=43, time=80),\n",
      "    Message('control_change', channel=0, control=64, value=49, time=80),\n",
      "    Message('control_change', channel=0, control=64, value=56, time=80),\n",
      "    Message('control_change', channel=0, control=64, value=64, time=80),\n",
      "    Message('control_change', channel=0, control=64, value=72, time=80),\n",
      "    Message('control_change', channel=0, control=64, value=80, time=80),\n",
      "    Message('control_change', channel=0, control=64, value=87, time=80),\n",
      "    Message('control_change', channel=0, control=64, value=94, time=80),\n",
      "    Message('control_change', channel=0, control=64, value=100, time=80),\n",
      "    Message('control_change', channel=0, control=64, value=104, time=80),\n",
      "    Message('control_change', channel=0, control=64, value=107, time=80),\n",
      "    Message('control_change', channel=0, control=64, value=108, time=80),\n",
      "    Message('control_change', channel=0, control=64, value=108, time=10000),\n",
      "    Message('control_change', channel=0, control=64, value=107, time=80),\n",
      "    Message('control_change', channel=0, control=64, value=105, time=80),\n",
      "    Message('control_change', channel=0, control=64, value=103, time=80),\n",
      "    Message('control_change', channel=0, control=64, value=102, time=80),\n",
      "    Message('control_change', channel=0, control=64, value=101, time=80),\n",
      "    Message('control_change', channel=0, control=64, value=99, time=80),\n",
      "    Message('control_change', channel=0, control=64, value=97, time=80),\n",
      "    Message('control_change', channel=0, control=64, value=95, time=80),\n",
      "    Message('control_change', channel=0, control=64, value=93, time=80),\n",
      "    Message('control_change', channel=0, control=64, value=91, time=80),\n",
      "    Message('control_change', channel=0, control=64, value=89, time=80),\n",
      "    Message('control_change', channel=0, control=64, value=88, time=80),\n",
      "    Message('control_change', channel=0, control=64, value=87, time=80),\n",
      "    Message('control_change', channel=0, control=64, value=86, time=80),\n",
      "    Message('control_change', channel=0, control=64, value=85, time=80),\n",
      "    Message('control_change', channel=0, control=64, value=84, time=80),\n",
      "    Message('control_change', channel=0, control=64, value=84, time=80),\n",
      "    Message('control_change', channel=0, control=64, value=83, time=80),\n",
      "    Message('control_change', channel=0, control=64, value=83, time=80),\n",
      "    Message('control_change', channel=0, control=64, value=82, time=80),\n",
      "    Message('control_change', channel=0, control=64, value=82, time=80),\n",
      "    Message('control_change', channel=0, control=64, value=81, time=80),\n",
      "    Message('control_change', channel=0, control=64, value=80, time=80),\n",
      "    Message('control_change', channel=0, control=64, value=78, time=80),\n",
      "    Message('control_change', channel=0, control=64, value=76, time=80),\n",
      "    Message('control_change', channel=0, control=64, value=72, time=80),\n",
      "    Message('control_change', channel=0, control=64, value=68, time=80),\n",
      "    Message('control_change', channel=0, control=64, value=65, time=80),\n",
      "    Message('control_change', channel=0, control=64, value=61, time=80),\n",
      "    Message('control_change', channel=0, control=64, value=56, time=80),\n",
      "    Message('control_change', channel=0, control=64, value=52, time=80),\n",
      "    Message('control_change', channel=0, control=64, value=47, time=80),\n",
      "    Message('control_change', channel=0, control=64, value=42, time=80),\n",
      "    Message('control_change', channel=0, control=64, value=38, time=80),\n",
      "    Message('control_change', channel=0, control=64, value=33, time=80),\n",
      "    Message('control_change', channel=0, control=64, value=29, time=80),\n",
      "    Message('control_change', channel=0, control=64, value=25, time=80),\n",
      "    Message('control_change', channel=0, control=64, value=21, time=80),\n",
      "    Message('control_change', channel=0, control=64, value=19, time=80),\n",
      "    Message('control_change', channel=0, control=64, value=16, time=80),\n",
      "    Message('control_change', channel=0, control=64, value=15, time=80),\n",
      "    Message('control_change', channel=0, control=64, value=13, time=80),\n",
      "    Message('control_change', channel=0, control=64, value=12, time=80),\n",
      "    Message('control_change', channel=0, control=64, value=12, time=80),\n",
      "    Message('control_change', channel=0, control=64, value=11, time=240),\n",
      "    Message('control_change', channel=0, control=64, value=12, time=160),\n",
      "    Message('control_change', channel=0, control=64, value=11, time=80),\n",
      "    Message('control_change', channel=0, control=64, value=12, time=160),\n",
      "    Message('control_change', channel=0, control=64, value=13, time=160),\n",
      "    Message('control_change', channel=0, control=64, value=15, time=80),\n",
      "    Message('control_change', channel=0, control=64, value=16, time=80),\n",
      "    Message('control_change', channel=0, control=64, value=19, time=80),\n",
      "    Message('control_change', channel=0, control=64, value=22, time=80),\n",
      "    Message('control_change', channel=0, control=64, value=25, time=80),\n",
      "    Message('control_change', channel=0, control=64, value=27, time=80),\n",
      "    Message('control_change', channel=0, control=64, value=28, time=80),\n",
      "    Message('control_change', channel=0, control=64, value=29, time=80),\n",
      "    Message('control_change', channel=0, control=64, value=30, time=80),\n",
      "    Message('control_change', channel=0, control=64, value=32, time=80),\n",
      "    Message('control_change', channel=0, control=64, value=35, time=80),\n",
      "    Message('control_change', channel=0, control=64, value=37, time=80),\n",
      "    Message('control_change', channel=0, control=64, value=40, time=80),\n",
      "    Message('control_change', channel=0, control=64, value=44, time=80),\n",
      "    Message('control_change', channel=0, control=64, value=49, time=80),\n",
      "    Message('control_change', channel=0, control=64, value=55, time=80),\n",
      "    Message('control_change', channel=0, control=64, value=61, time=80),\n",
      "    Message('control_change', channel=0, control=64, value=68, time=80),\n",
      "    Message('control_change', channel=0, control=64, value=76, time=80),\n",
      "    Message('control_change', channel=0, control=64, value=82, time=80),\n",
      "    Message('control_change', channel=0, control=64, value=89, time=80),\n",
      "    Message('control_change', channel=0, control=64, value=94, time=80),\n",
      "    Message('control_change', channel=0, control=64, value=98, time=80),\n",
      "    Message('control_change', channel=0, control=64, value=101, time=80),\n",
      "    Message('control_change', channel=0, control=64, value=102, time=80),\n",
      "    Message('control_change', channel=0, control=64, value=101, time=8160),\n",
      "    Message('control_change', channel=0, control=64, value=100, time=80),\n",
      "    Message('control_change', channel=0, control=64, value=98, time=80),\n",
      "    Message('control_change', channel=0, control=64, value=95, time=80),\n",
      "    Message('control_change', channel=0, control=64, value=92, time=80),\n",
      "    Message('control_change', channel=0, control=64, value=88, time=80),\n",
      "    Message('control_change', channel=0, control=64, value=85, time=80),\n",
      "    Message('control_change', channel=0, control=64, value=82, time=80),\n",
      "    Message('control_change', channel=0, control=64, value=81, time=80),\n",
      "    Message('control_change', channel=0, control=64, value=79, time=80),\n",
      "    Message('control_change', channel=0, control=64, value=74, time=80),\n",
      "    Message('control_change', channel=0, control=64, value=66, time=80),\n",
      "    Message('control_change', channel=0, control=64, value=56, time=80),\n",
      "    Message('control_change', channel=0, control=64, value=47, time=80),\n",
      "    Message('control_change', channel=0, control=64, value=39, time=80),\n",
      "    Message('control_change', channel=0, control=64, value=29, time=80),\n",
      "    Message('control_change', channel=0, control=64, value=20, time=80),\n",
      "    Message('control_change', channel=0, control=64, value=14, time=80),\n",
      "    Message('control_change', channel=0, control=64, value=12, time=80),\n",
      "    Message('control_change', channel=0, control=64, value=9, time=80),\n",
      "    Message('control_change', channel=0, control=64, value=6, time=80),\n",
      "    Message('control_change', channel=0, control=64, value=5, time=80),\n",
      "    Message('control_change', channel=0, control=64, value=5, time=80),\n",
      "    Message('control_change', channel=0, control=64, value=5, time=80),\n",
      "    Message('control_change', channel=0, control=64, value=5, time=80),\n",
      "    Message('control_change', channel=0, control=64, value=5, time=240),\n",
      "    Message('control_change', channel=0, control=64, value=6, time=320),\n",
      "    Message('control_change', channel=0, control=64, value=9, time=80),\n",
      "    Message('control_change', channel=0, control=64, value=11, time=80),\n",
      "    Message('control_change', channel=0, control=64, value=12, time=80),\n",
      "    Message('control_change', channel=0, control=64, value=14, time=80),\n",
      "    Message('control_change', channel=0, control=64, value=17, time=80),\n",
      "    Message('control_change', channel=0, control=64, value=19, time=80),\n",
      "    Message('control_change', channel=0, control=64, value=21, time=80),\n",
      "    Message('control_change', channel=0, control=64, value=23, time=80),\n",
      "    Message('control_change', channel=0, control=64, value=24, time=80),\n",
      "    Message('control_change', channel=0, control=64, value=24, time=80),\n",
      "    Message('control_change', channel=0, control=64, value=25, time=80),\n",
      "    Message('control_change', channel=0, control=64, value=25, time=80),\n",
      "    Message('control_change', channel=0, control=64, value=26, time=80),\n",
      "    Message('control_change', channel=0, control=64, value=27, time=80),\n",
      "    Message('control_change', channel=0, control=64, value=29, time=80),\n",
      "    Message('control_change', channel=0, control=64, value=31, time=80),\n",
      "    Message('control_change', channel=0, control=64, value=35, time=80),\n",
      "    Message('control_change', channel=0, control=64, value=40, time=80),\n",
      "    Message('control_change', channel=0, control=64, value=47, time=80),\n",
      "    Message('control_change', channel=0, control=64, value=53, time=80),\n",
      "    Message('control_change', channel=0, control=64, value=61, time=80),\n",
      "    Message('control_change', channel=0, control=64, value=68, time=80),\n",
      "    Message('control_change', channel=0, control=64, value=75, time=80),\n",
      "    Message('control_change', channel=0, control=64, value=82, time=80),\n",
      "    Message('control_change', channel=0, control=64, value=87, time=80),\n",
      "    Message('control_change', channel=0, control=64, value=92, time=80),\n",
      "    Message('control_change', channel=0, control=64, value=95, time=80),\n",
      "    Message('control_change', channel=0, control=64, value=97, time=80),\n",
      "    Message('control_change', channel=0, control=64, value=98, time=80),\n",
      "    Message('control_change', channel=0, control=64, value=98, time=400),\n",
      "    Message('control_change', channel=0, control=64, value=98, time=80),\n",
      "    Message('control_change', channel=0, control=64, value=98, time=480),\n",
      "    Message('control_change', channel=0, control=64, value=98, time=80),\n",
      "    Message('control_change', channel=0, control=64, value=98, time=160),\n",
      "    Message('control_change', channel=0, control=64, value=98, time=80),\n",
      "    Message('control_change', channel=0, control=64, value=98, time=160),\n",
      "    Message('control_change', channel=0, control=64, value=98, time=80),\n",
      "    Message('control_change', channel=0, control=64, value=98, time=160),\n",
      "    Message('control_change', channel=0, control=64, value=98, time=80),\n",
      "    Message('control_change', channel=0, control=64, value=98, time=240),\n",
      "    Message('control_change', channel=0, control=64, value=98, time=6560),\n",
      "    Message('control_change', channel=0, control=64, value=96, time=80),\n",
      "    Message('control_change', channel=0, control=64, value=94, time=80),\n",
      "    Message('control_change', channel=0, control=64, value=91, time=80),\n",
      "    Message('control_change', channel=0, control=64, value=87, time=80),\n",
      "    Message('control_change', channel=0, control=64, value=83, time=80),\n",
      "    Message('control_change', channel=0, control=64, value=81, time=80),\n",
      "    Message('control_change', channel=0, control=64, value=80, time=80),\n",
      "    Message('control_change', channel=0, control=64, value=79, time=80),\n",
      "    Message('control_change', channel=0, control=64, value=75, time=80),\n",
      "    Message('control_change', channel=0, control=64, value=69, time=80),\n",
      "    Message('control_change', channel=0, control=64, value=65, time=80),\n",
      "    Message('control_change', channel=0, control=64, value=60, time=80),\n",
      "    Message('control_change', channel=0, control=64, value=56, time=80),\n",
      "    Message('control_change', channel=0, control=64, value=52, time=80),\n",
      "    Message('control_change', channel=0, control=64, value=46, time=80),\n",
      "    Message('control_change', channel=0, control=64, value=40, time=80),\n",
      "    Message('control_change', channel=0, control=64, value=34, time=80),\n",
      "    Message('control_change', channel=0, control=64, value=29, time=80),\n",
      "    Message('control_change', channel=0, control=64, value=23, time=80),\n",
      "    Message('control_change', channel=0, control=64, value=18, time=80),\n",
      "    Message('control_change', channel=0, control=64, value=16, time=80),\n",
      "    Message('control_change', channel=0, control=64, value=13, time=80),\n",
      "    Message('control_change', channel=0, control=64, value=11, time=80),\n",
      "    Message('control_change', channel=0, control=64, value=8, time=80),\n",
      "    Message('control_change', channel=0, control=64, value=6, time=80),\n",
      "    Message('control_change', channel=0, control=64, value=5, time=80),\n",
      "    Message('control_change', channel=0, control=64, value=6, time=1600),\n",
      "    Message('control_change', channel=0, control=64, value=7, time=80),\n",
      "    Message('control_change', channel=0, control=64, value=8, time=80),\n",
      "    Message('control_change', channel=0, control=64, value=8, time=80),\n",
      "    Message('control_change', channel=0, control=64, value=9, time=80),\n",
      "    Message('control_change', channel=0, control=64, value=10, time=80),\n",
      "    Message('control_change', channel=0, control=64, value=10, time=160),\n",
      "    Message('control_change', channel=0, control=64, value=12, time=80),\n",
      "    Message('control_change', channel=0, control=64, value=12, time=80),\n",
      "    Message('control_change', channel=0, control=64, value=13, time=80),\n",
      "    Message('control_change', channel=0, control=64, value=14, time=80),\n",
      "    Message('control_change', channel=0, control=64, value=15, time=80),\n",
      "    Message('control_change', channel=0, control=64, value=15, time=80),\n",
      "    Message('control_change', channel=0, control=64, value=16, time=80),\n",
      "    Message('control_change', channel=0, control=64, value=17, time=80),\n",
      "    Message('control_change', channel=0, control=64, value=18, time=80),\n",
      "    Message('control_change', channel=0, control=64, value=19, time=80),\n",
      "    Message('control_change', channel=0, control=64, value=20, time=80),\n",
      "    Message('control_change', channel=0, control=64, value=21, time=80),\n",
      "    Message('control_change', channel=0, control=64, value=23, time=80),\n",
      "    Message('control_change', channel=0, control=64, value=24, time=80),\n",
      "    Message('control_change', channel=0, control=64, value=25, time=80),\n",
      "    Message('control_change', channel=0, control=64, value=26, time=80),\n",
      "    Message('control_change', channel=0, control=64, value=28, time=80),\n",
      "    Message('control_change', channel=0, control=64, value=30, time=80),\n",
      "    Message('control_change', channel=0, control=64, value=33, time=80),\n",
      "    Message('control_change', channel=0, control=64, value=36, time=80),\n",
      "    Message('control_change', channel=0, control=64, value=40, time=80),\n",
      "    Message('control_change', channel=0, control=64, value=45, time=80),\n",
      "    Message('control_change', channel=0, control=64, value=50, time=80),\n",
      "    Message('control_change', channel=0, control=64, value=56, time=80),\n",
      "    Message('control_change', channel=0, control=64, value=63, time=80),\n",
      "    Message('control_change', channel=0, control=64, value=71, time=80),\n",
      "    Message('control_change', channel=0, control=64, value=78, time=80),\n",
      "    Message('control_change', channel=0, control=64, value=85, time=80),\n",
      "    Message('control_change', channel=0, control=64, value=90, time=80),\n",
      "    Message('control_change', channel=0, control=64, value=94, time=80),\n",
      "    Message('control_change', channel=0, control=64, value=97, time=80),\n",
      "    Message('control_change', channel=0, control=64, value=99, time=80),\n",
      "    Message('control_change', channel=0, control=64, value=100, time=320),\n",
      "    Message('control_change', channel=0, control=64, value=99, time=80),\n",
      "    Message('control_change', channel=0, control=64, value=100, time=160),\n",
      "    Message('control_change', channel=0, control=64, value=99, time=80),\n",
      "    Message('control_change', channel=0, control=64, value=100, time=80),\n",
      "    Message('control_change', channel=0, control=64, value=100, time=640),\n",
      "    Message('control_change', channel=0, control=64, value=100, time=160),\n",
      "    Message('control_change', channel=0, control=64, value=100, time=80),\n",
      "    Message('control_change', channel=0, control=64, value=101, time=400),\n",
      "    Message('control_change', channel=0, control=64, value=101, time=320),\n",
      "    Message('control_change', channel=0, control=64, value=102, time=480),\n",
      "    Message('control_change', channel=0, control=64, value=102, time=1200),\n",
      "    Message('control_change', channel=0, control=64, value=102, time=80),\n",
      "    Message('control_change', channel=0, control=64, value=102, time=80),\n",
      "    Message('control_change', channel=0, control=64, value=102, time=80),\n",
      "    Message('control_change', channel=0, control=64, value=102, time=80),\n",
      "    Message('control_change', channel=0, control=64, value=102, time=160),\n",
      "    Message('control_change', channel=0, control=64, value=102, time=160),\n",
      "    Message('control_change', channel=0, control=64, value=102, time=160),\n",
      "    Message('control_change', channel=0, control=64, value=102, time=160),\n",
      "    Message('control_change', channel=0, control=64, value=102, time=160),\n",
      "    Message('control_change', channel=0, control=64, value=102, time=80),\n",
      "    Message('control_change', channel=0, control=64, value=102, time=240),\n",
      "    Message('control_change', channel=0, control=64, value=102, time=160),\n",
      "    Message('control_change', channel=0, control=64, value=102, time=80),\n",
      "    Message('control_change', channel=0, control=64, value=102, time=80),\n",
      "    Message('control_change', channel=0, control=64, value=102, time=560),\n",
      "    Message('control_change', channel=0, control=64, value=102, time=80),\n",
      "    Message('control_change', channel=0, control=64, value=102, time=160),\n",
      "    Message('control_change', channel=0, control=64, value=102, time=80),\n",
      "    Message('control_change', channel=0, control=64, value=102, time=80),\n",
      "    Message('control_change', channel=0, control=64, value=102, time=80),\n",
      "    Message('control_change', channel=0, control=64, value=102, time=160),\n",
      "    Message('control_change', channel=0, control=64, value=102, time=80),\n",
      "    Message('control_change', channel=0, control=64, value=102, time=800),\n",
      "    Message('control_change', channel=0, control=64, value=101, time=80),\n",
      "    Message('control_change', channel=0, control=64, value=99, time=80),\n",
      "    Message('control_change', channel=0, control=64, value=97, time=80),\n",
      "    Message('control_change', channel=0, control=64, value=94, time=80),\n",
      "    Message('control_change', channel=0, control=64, value=90, time=80),\n",
      "    Message('control_change', channel=0, control=64, value=86, time=80),\n",
      "    Message('control_change', channel=0, control=64, value=81, time=80),\n",
      "    Message('control_change', channel=0, control=64, value=77, time=80),\n",
      "    Message('control_change', channel=0, control=64, value=71, time=80),\n",
      "    Message('control_change', channel=0, control=64, value=60, time=80),\n",
      "    Message('control_change', channel=0, control=64, value=44, time=80),\n",
      "    Message('control_change', channel=0, control=64, value=28, time=80),\n",
      "    Message('control_change', channel=0, control=64, value=17, time=80),\n",
      "    Message('control_change', channel=0, control=64, value=12, time=80),\n",
      "    Message('control_change', channel=0, control=64, value=8, time=80),\n",
      "    Message('control_change', channel=0, control=64, value=3, time=80),\n",
      "    Message('control_change', channel=0, control=64, value=1, time=80),\n",
      "    Message('control_change', channel=0, control=64, value=2, time=640),\n",
      "    Message('control_change', channel=0, control=64, value=3, time=80),\n",
      "    Message('control_change', channel=0, control=64, value=8, time=80),\n",
      "    Message('control_change', channel=0, control=64, value=12, time=80),\n",
      "    Message('control_change', channel=0, control=64, value=13, time=80),\n",
      "    Message('control_change', channel=0, control=64, value=17, time=80),\n",
      "    Message('control_change', channel=0, control=64, value=21, time=80),\n",
      "    Message('control_change', channel=0, control=64, value=24, time=80),\n",
      "    Message('control_change', channel=0, control=64, value=27, time=80),\n",
      "    Message('control_change', channel=0, control=64, value=29, time=80),\n",
      "    Message('control_change', channel=0, control=64, value=34, time=80),\n",
      "    Message('control_change', channel=0, control=64, value=40, time=80),\n",
      "    Message('control_change', channel=0, control=64, value=45, time=80),\n",
      "    Message('control_change', channel=0, control=64, value=51, time=80),\n",
      "    Message('control_change', channel=0, control=64, value=55, time=80),\n",
      "    Message('control_change', channel=0, control=64, value=60, time=80),\n",
      "    Message('control_change', channel=0, control=64, value=66, time=80),\n",
      "    Message('control_change', channel=0, control=64, value=73, time=80),\n",
      "    Message('control_change', channel=0, control=64, value=79, time=80),\n",
      "    Message('control_change', channel=0, control=64, value=84, time=80),\n",
      "    Message('control_change', channel=0, control=64, value=88, time=80),\n",
      "    Message('control_change', channel=0, control=64, value=91, time=80),\n",
      "    Message('control_change', channel=0, control=64, value=93, time=80),\n",
      "    Message('control_change', channel=0, control=64, value=95, time=80),\n",
      "    Message('control_change', channel=0, control=64, value=95, time=80),\n",
      "    Message('control_change', channel=0, control=64, value=96, time=800),\n",
      "    Message('control_change', channel=0, control=64, value=96, time=2720),\n",
      "    Message('control_change', channel=0, control=64, value=95, time=5920),\n",
      "    Message('control_change', channel=0, control=64, value=94, time=80),\n",
      "    Message('control_change', channel=0, control=64, value=92, time=80),\n",
      "    Message('control_change', channel=0, control=64, value=88, time=80),\n",
      "    Message('control_change', channel=0, control=64, value=83, time=80),\n",
      "    Message('control_change', channel=0, control=64, value=79, time=80),\n",
      "    Message('control_change', channel=0, control=64, value=75, time=80),\n",
      "    Message('control_change', channel=0, control=64, value=69, time=80),\n",
      "    Message('control_change', channel=0, control=64, value=57, time=80),\n",
      "    Message('control_change', channel=0, control=64, value=41, time=80),\n",
      "    Message('control_change', channel=0, control=64, value=26, time=80),\n",
      "    Message('control_change', channel=0, control=64, value=15, time=80),\n",
      "    Message('control_change', channel=0, control=64, value=11, time=80),\n",
      "    Message('control_change', channel=0, control=64, value=7, time=80),\n",
      "    Message('control_change', channel=0, control=64, value=2, time=80),\n",
      "    Message('control_change', channel=0, control=64, value=1, time=80),\n",
      "    Message('control_change', channel=0, control=64, value=5, time=800),\n",
      "    Message('control_change', channel=0, control=64, value=11, time=80),\n",
      "    Message('control_change', channel=0, control=64, value=14, time=80),\n",
      "    Message('control_change', channel=0, control=64, value=17, time=80),\n",
      "    Message('control_change', channel=0, control=64, value=24, time=80),\n",
      "    Message('control_change', channel=0, control=64, value=30, time=80),\n",
      "    Message('control_change', channel=0, control=64, value=37, time=80),\n",
      "    Message('control_change', channel=0, control=64, value=47, time=80),\n",
      "    Message('control_change', channel=0, control=64, value=59, time=80),\n",
      "    Message('control_change', channel=0, control=64, value=71, time=80),\n",
      "    Message('control_change', channel=0, control=64, value=81, time=80),\n",
      "    Message('control_change', channel=0, control=64, value=91, time=80),\n",
      "    Message('control_change', channel=0, control=64, value=98, time=80),\n",
      "    Message('control_change', channel=0, control=64, value=106, time=80),\n",
      "    Message('control_change', channel=0, control=64, value=112, time=80),\n",
      "    Message('control_change', channel=0, control=64, value=115, time=80),\n",
      "    Message('control_change', channel=0, control=64, value=116, time=80),\n",
      "    Message('control_change', channel=0, control=64, value=116, time=4080),\n",
      "    Message('control_change', channel=0, control=64, value=116, time=80),\n",
      "    Message('control_change', channel=0, control=64, value=116, time=160),\n",
      "    Message('control_change', channel=0, control=64, value=116, time=7840),\n",
      "    Message('control_change', channel=0, control=64, value=113, time=80),\n",
      "    Message('control_change', channel=0, control=64, value=109, time=80),\n",
      "    Message('control_change', channel=0, control=64, value=103, time=80),\n",
      "    Message('control_change', channel=0, control=64, value=94, time=80),\n",
      "    Message('control_change', channel=0, control=64, value=82, time=80),\n",
      "    Message('control_change', channel=0, control=64, value=70, time=80),\n",
      "    Message('control_change', channel=0, control=64, value=60, time=80),\n",
      "    Message('control_change', channel=0, control=64, value=47, time=80),\n",
      "    Message('control_change', channel=0, control=64, value=32, time=80),\n",
      "    Message('control_change', channel=0, control=64, value=20, time=80),\n",
      "    Message('control_change', channel=0, control=64, value=15, time=80),\n",
      "    Message('control_change', channel=0, control=64, value=15, time=80),\n",
      "    Message('control_change', channel=0, control=64, value=12, time=80),\n",
      "    Message('control_change', channel=0, control=64, value=11, time=80),\n",
      "    Message('control_change', channel=0, control=64, value=13, time=480),\n",
      "    Message('control_change', channel=0, control=64, value=14, time=80),\n",
      "    Message('control_change', channel=0, control=64, value=16, time=80),\n",
      "    Message('control_change', channel=0, control=64, value=19, time=80),\n",
      "    Message('control_change', channel=0, control=64, value=23, time=80),\n",
      "    Message('control_change', channel=0, control=64, value=27, time=80),\n",
      "    Message('control_change', channel=0, control=64, value=31, time=80),\n",
      "    Message('control_change', channel=0, control=64, value=35, time=80),\n",
      "    Message('control_change', channel=0, control=64, value=41, time=80),\n",
      "    Message('control_change', channel=0, control=64, value=50, time=80),\n",
      "    Message('control_change', channel=0, control=64, value=60, time=80),\n",
      "    Message('control_change', channel=0, control=64, value=69, time=80),\n",
      "    Message('control_change', channel=0, control=64, value=78, time=80),\n",
      "    Message('control_change', channel=0, control=64, value=86, time=80),\n",
      "    Message('control_change', channel=0, control=64, value=93, time=80),\n",
      "    Message('control_change', channel=0, control=64, value=99, time=80),\n",
      "    Message('control_change', channel=0, control=64, value=104, time=80),\n",
      "    Message('control_change', channel=0, control=64, value=107, time=80),\n",
      "    Message('control_change', channel=0, control=64, value=108, time=80),\n",
      "    Message('control_change', channel=0, control=64, value=108, time=2240),\n",
      "    Message('control_change', channel=0, control=64, value=107, time=80),\n",
      "    Message('control_change', channel=0, control=64, value=104, time=80),\n",
      "    Message('control_change', channel=0, control=64, value=99, time=80),\n",
      "    Message('control_change', channel=0, control=64, value=91, time=80),\n",
      "    Message('control_change', channel=0, control=64, value=79, time=80),\n",
      "    Message('control_change', channel=0, control=64, value=69, time=80),\n",
      "    Message('control_change', channel=0, control=64, value=60, time=80),\n",
      "    Message('control_change', channel=0, control=64, value=48, time=80),\n",
      "    Message('control_change', channel=0, control=64, value=35, time=80),\n",
      "    Message('control_change', channel=0, control=64, value=25, time=80),\n",
      "    Message('control_change', channel=0, control=64, value=20, time=80),\n",
      "    Message('control_change', channel=0, control=64, value=19, time=160),\n",
      "    Message('control_change', channel=0, control=64, value=20, time=320),\n",
      "    Message('control_change', channel=0, control=64, value=23, time=80),\n",
      "    Message('control_change', channel=0, control=64, value=26, time=80),\n",
      "    Message('control_change', channel=0, control=64, value=30, time=80),\n",
      "    Message('control_change', channel=0, control=64, value=33, time=80),\n",
      "    Message('control_change', channel=0, control=64, value=37, time=80),\n",
      "    Message('control_change', channel=0, control=64, value=43, time=80),\n",
      "    Message('control_change', channel=0, control=64, value=52, time=80),\n",
      "    Message('control_change', channel=0, control=64, value=62, time=80),\n",
      "    Message('control_change', channel=0, control=64, value=71, time=80),\n",
      "    Message('control_change', channel=0, control=64, value=80, time=80),\n",
      "    Message('control_change', channel=0, control=64, value=88, time=80),\n",
      "    Message('control_change', channel=0, control=64, value=96, time=80),\n",
      "    Message('control_change', channel=0, control=64, value=102, time=80),\n",
      "    Message('control_change', channel=0, control=64, value=109, time=80),\n",
      "    Message('control_change', channel=0, control=64, value=112, time=80),\n",
      "    Message('control_change', channel=0, control=64, value=112, time=80),\n",
      "    Message('control_change', channel=0, control=64, value=112, time=10160),\n",
      "    Message('control_change', channel=0, control=64, value=112, time=800),\n",
      "    Message('control_change', channel=0, control=64, value=111, time=160),\n",
      "    Message('control_change', channel=0, control=64, value=111, time=80),\n",
      "    Message('control_change', channel=0, control=64, value=110, time=160),\n",
      "    Message('control_change', channel=0, control=64, value=110, time=80),\n",
      "    Message('control_change', channel=0, control=64, value=109, time=80),\n",
      "    Message('control_change', channel=0, control=64, value=109, time=80),\n",
      "    Message('control_change', channel=0, control=64, value=108, time=80),\n",
      "    Message('control_change', channel=0, control=64, value=107, time=80),\n",
      "    Message('control_change', channel=0, control=64, value=106, time=80),\n",
      "    Message('control_change', channel=0, control=64, value=104, time=80),\n",
      "    Message('control_change', channel=0, control=64, value=103, time=80),\n",
      "    Message('control_change', channel=0, control=64, value=101, time=80),\n",
      "    Message('control_change', channel=0, control=64, value=98, time=80),\n",
      "    Message('control_change', channel=0, control=64, value=95, time=80),\n",
      "    Message('control_change', channel=0, control=64, value=93, time=80),\n",
      "    Message('control_change', channel=0, control=64, value=90, time=80),\n",
      "    Message('control_change', channel=0, control=64, value=88, time=80),\n",
      "    Message('control_change', channel=0, control=64, value=87, time=80),\n",
      "    Message('control_change', channel=0, control=64, value=86, time=80),\n",
      "    Message('control_change', channel=0, control=64, value=85, time=80),\n",
      "    Message('control_change', channel=0, control=64, value=85, time=80),\n",
      "    Message('control_change', channel=0, control=64, value=84, time=80),\n",
      "    Message('control_change', channel=0, control=64, value=84, time=80),\n",
      "    Message('control_change', channel=0, control=64, value=83, time=80),\n",
      "    Message('control_change', channel=0, control=64, value=82, time=80),\n",
      "    Message('control_change', channel=0, control=64, value=81, time=80),\n",
      "    Message('control_change', channel=0, control=64, value=79, time=80),\n",
      "    Message('control_change', channel=0, control=64, value=76, time=80),\n",
      "    Message('control_change', channel=0, control=64, value=72, time=80),\n",
      "    Message('control_change', channel=0, control=64, value=69, time=80),\n",
      "    Message('control_change', channel=0, control=64, value=66, time=80),\n",
      "    Message('control_change', channel=0, control=64, value=62, time=80),\n",
      "    Message('control_change', channel=0, control=64, value=58, time=80),\n",
      "    Message('control_change', channel=0, control=64, value=55, time=80),\n",
      "    Message('control_change', channel=0, control=64, value=51, time=80),\n",
      "    Message('control_change', channel=0, control=64, value=48, time=80),\n",
      "    Message('control_change', channel=0, control=64, value=46, time=80),\n",
      "    Message('control_change', channel=0, control=64, value=43, time=80),\n",
      "    Message('control_change', channel=0, control=64, value=41, time=80),\n",
      "    Message('control_change', channel=0, control=64, value=38, time=80),\n",
      "    Message('control_change', channel=0, control=64, value=36, time=80),\n",
      "    Message('control_change', channel=0, control=64, value=34, time=80),\n",
      "    Message('control_change', channel=0, control=64, value=32, time=80),\n",
      "    Message('control_change', channel=0, control=64, value=30, time=80),\n",
      "    Message('control_change', channel=0, control=64, value=29, time=80),\n",
      "    Message('control_change', channel=0, control=64, value=27, time=80),\n",
      "    Message('control_change', channel=0, control=64, value=25, time=80),\n",
      "    Message('control_change', channel=0, control=64, value=24, time=80),\n",
      "    Message('control_change', channel=0, control=64, value=23, time=80),\n",
      "    Message('control_change', channel=0, control=64, value=22, time=80),\n",
      "    Message('control_change', channel=0, control=64, value=21, time=80),\n",
      "    Message('control_change', channel=0, control=64, value=20, time=80),\n",
      "    Message('control_change', channel=0, control=64, value=19, time=80),\n",
      "    Message('control_change', channel=0, control=64, value=18, time=80),\n",
      "    Message('control_change', channel=0, control=64, value=18, time=80),\n",
      "    Message('control_change', channel=0, control=64, value=17, time=80),\n",
      "    Message('control_change', channel=0, control=64, value=17, time=80),\n",
      "    Message('control_change', channel=0, control=64, value=16, time=80),\n",
      "    Message('control_change', channel=0, control=64, value=15, time=80),\n",
      "    Message('control_change', channel=0, control=64, value=15, time=160),\n",
      "    Message('control_change', channel=0, control=64, value=15, time=880),\n",
      "    Message('control_change', channel=0, control=64, value=16, time=80),\n",
      "    Message('control_change', channel=0, control=64, value=17, time=80),\n",
      "    Message('control_change', channel=0, control=64, value=18, time=80),\n",
      "    Message('control_change', channel=0, control=64, value=18, time=80),\n",
      "    Message('control_change', channel=0, control=64, value=19, time=80),\n",
      "    Message('control_change', channel=0, control=64, value=19, time=80),\n",
      "    Message('control_change', channel=0, control=64, value=20, time=80),\n",
      "    Message('control_change', channel=0, control=64, value=20, time=160),\n",
      "    Message('control_change', channel=0, control=64, value=21, time=80),\n",
      "    Message('control_change', channel=0, control=64, value=22, time=80),\n",
      "    Message('control_change', channel=0, control=64, value=23, time=80),\n",
      "    Message('control_change', channel=0, control=64, value=24, time=80),\n",
      "    Message('control_change', channel=0, control=64, value=26, time=80),\n",
      "    Message('control_change', channel=0, control=64, value=28, time=80),\n",
      "    Message('control_change', channel=0, control=64, value=29, time=80),\n",
      "    Message('control_change', channel=0, control=64, value=29, time=80),\n",
      "    Message('control_change', channel=0, control=64, value=30, time=80),\n",
      "    Message('control_change', channel=0, control=64, value=31, time=80),\n",
      "    Message('control_change', channel=0, control=64, value=32, time=80),\n",
      "    Message('control_change', channel=0, control=64, value=32, time=80),\n",
      "    Message('control_change', channel=0, control=64, value=33, time=80),\n",
      "    Message('control_change', channel=0, control=64, value=33, time=160),\n",
      "    Message('control_change', channel=0, control=64, value=35, time=80),\n",
      "    Message('control_change', channel=0, control=64, value=37, time=80),\n",
      "    Message('control_change', channel=0, control=64, value=41, time=80),\n",
      "    Message('control_change', channel=0, control=64, value=45, time=80),\n",
      "    Message('control_change', channel=0, control=64, value=50, time=80),\n",
      "    Message('control_change', channel=0, control=64, value=56, time=80),\n",
      "    Message('control_change', channel=0, control=64, value=62, time=80),\n",
      "    Message('control_change', channel=0, control=64, value=67, time=80),\n",
      "    Message('control_change', channel=0, control=64, value=73, time=80),\n",
      "    Message('control_change', channel=0, control=64, value=77, time=80),\n",
      "    Message('control_change', channel=0, control=64, value=81, time=80),\n",
      "    Message('control_change', channel=0, control=64, value=85, time=80),\n",
      "    Message('control_change', channel=0, control=64, value=87, time=80),\n",
      "    Message('control_change', channel=0, control=64, value=88, time=80),\n",
      "    Message('control_change', channel=0, control=64, value=87, time=9600),\n",
      "    Message('control_change', channel=0, control=64, value=86, time=80),\n",
      "    Message('control_change', channel=0, control=64, value=85, time=80),\n",
      "    Message('control_change', channel=0, control=64, value=85, time=80),\n",
      "    Message('control_change', channel=0, control=64, value=84, time=160),\n",
      "    Message('control_change', channel=0, control=64, value=82, time=80),\n",
      "    Message('control_change', channel=0, control=64, value=82, time=80),\n",
      "    Message('control_change', channel=0, control=64, value=81, time=160),\n",
      "    Message('control_change', channel=0, control=64, value=81, time=80),\n",
      "    Message('control_change', channel=0, control=64, value=80, time=80),\n",
      "    Message('control_change', channel=0, control=64, value=79, time=80),\n",
      "    Message('control_change', channel=0, control=64, value=77, time=80),\n",
      "    Message('control_change', channel=0, control=64, value=75, time=80),\n",
      "    Message('control_change', channel=0, control=64, value=71, time=80),\n",
      "    Message('control_change', channel=0, control=64, value=68, time=80),\n",
      "    Message('control_change', channel=0, control=64, value=65, time=80),\n",
      "    Message('control_change', channel=0, control=64, value=62, time=80),\n",
      "    Message('control_change', channel=0, control=64, value=59, time=80),\n",
      "    Message('control_change', channel=0, control=64, value=55, time=80),\n",
      "    Message('control_change', channel=0, control=64, value=52, time=80),\n",
      "    Message('control_change', channel=0, control=64, value=48, time=80),\n",
      "    Message('control_change', channel=0, control=64, value=45, time=80),\n",
      "    Message('control_change', channel=0, control=64, value=42, time=80),\n",
      "    Message('control_change', channel=0, control=64, value=39, time=80),\n",
      "    Message('control_change', channel=0, control=64, value=35, time=80),\n",
      "    Message('control_change', channel=0, control=64, value=32, time=80),\n",
      "    Message('control_change', channel=0, control=64, value=29, time=80),\n",
      "    Message('control_change', channel=0, control=64, value=26, time=80),\n",
      "    Message('control_change', channel=0, control=64, value=24, time=80),\n",
      "    Message('control_change', channel=0, control=64, value=22, time=80),\n",
      "    Message('control_change', channel=0, control=64, value=21, time=80),\n",
      "    Message('control_change', channel=0, control=64, value=20, time=80),\n",
      "    Message('control_change', channel=0, control=64, value=19, time=80),\n",
      "    Message('control_change', channel=0, control=64, value=18, time=80),\n",
      "    Message('control_change', channel=0, control=64, value=18, time=80),\n",
      "    Message('control_change', channel=0, control=64, value=17, time=80),\n",
      "    Message('control_change', channel=0, control=64, value=16, time=80),\n",
      "    Message('control_change', channel=0, control=64, value=16, time=80),\n",
      "    Message('control_change', channel=0, control=64, value=15, time=80),\n",
      "    Message('control_change', channel=0, control=64, value=15, time=80),\n",
      "    Message('control_change', channel=0, control=64, value=14, time=80),\n",
      "    Message('control_change', channel=0, control=64, value=14, time=80),\n",
      "    Message('control_change', channel=0, control=64, value=13, time=80),\n",
      "    Message('control_change', channel=0, control=64, value=13, time=80),\n",
      "    Message('control_change', channel=0, control=64, value=12, time=320),\n",
      "    Message('control_change', channel=0, control=64, value=13, time=240),\n",
      "    Message('control_change', channel=0, control=64, value=12, time=320),\n",
      "    Message('control_change', channel=0, control=64, value=13, time=80),\n",
      "    Message('control_change', channel=0, control=64, value=12, time=80),\n",
      "    Message('control_change', channel=0, control=64, value=13, time=80),\n",
      "    Message('control_change', channel=0, control=64, value=12, time=80),\n",
      "    Message('control_change', channel=0, control=64, value=13, time=160),\n",
      "    Message('control_change', channel=0, control=64, value=12, time=240),\n",
      "    Message('control_change', channel=0, control=64, value=13, time=80),\n",
      "    Message('control_change', channel=0, control=64, value=13, time=240),\n",
      "    Message('control_change', channel=0, control=64, value=14, time=80),\n",
      "    Message('control_change', channel=0, control=64, value=14, time=80),\n",
      "    Message('control_change', channel=0, control=64, value=15, time=80),\n",
      "    Message('control_change', channel=0, control=64, value=16, time=80),\n",
      "    Message('control_change', channel=0, control=64, value=17, time=80),\n",
      "    Message('control_change', channel=0, control=64, value=17, time=80),\n",
      "    Message('control_change', channel=0, control=64, value=18, time=80),\n",
      "    Message('control_change', channel=0, control=64, value=20, time=80),\n",
      "    Message('control_change', channel=0, control=64, value=21, time=80),\n",
      "    Message('control_change', channel=0, control=64, value=22, time=80),\n",
      "    Message('control_change', channel=0, control=64, value=23, time=80),\n",
      "    Message('control_change', channel=0, control=64, value=24, time=80),\n",
      "    Message('control_change', channel=0, control=64, value=25, time=80),\n",
      "    Message('control_change', channel=0, control=64, value=26, time=80),\n",
      "    Message('control_change', channel=0, control=64, value=27, time=80),\n",
      "    Message('control_change', channel=0, control=64, value=27, time=80),\n",
      "    Message('control_change', channel=0, control=64, value=28, time=80),\n",
      "    Message('control_change', channel=0, control=64, value=29, time=80),\n",
      "    Message('control_change', channel=0, control=64, value=29, time=80),\n",
      "    Message('control_change', channel=0, control=64, value=31, time=80),\n",
      "    Message('control_change', channel=0, control=64, value=32, time=80),\n",
      "    Message('control_change', channel=0, control=64, value=34, time=80),\n",
      "    Message('control_change', channel=0, control=64, value=36, time=80),\n",
      "    Message('control_change', channel=0, control=64, value=39, time=80),\n",
      "    Message('control_change', channel=0, control=64, value=43, time=80),\n",
      "    Message('control_change', channel=0, control=64, value=48, time=80),\n",
      "    Message('control_change', channel=0, control=64, value=52, time=80),\n",
      "    Message('control_change', channel=0, control=64, value=57, time=80),\n",
      "    Message('control_change', channel=0, control=64, value=62, time=80),\n",
      "    Message('control_change', channel=0, control=64, value=66, time=80),\n",
      "    Message('control_change', channel=0, control=64, value=72, time=80),\n",
      "    Message('control_change', channel=0, control=64, value=76, time=80),\n",
      "    Message('control_change', channel=0, control=64, value=80, time=80),\n",
      "    Message('control_change', channel=0, control=64, value=83, time=80),\n",
      "    Message('control_change', channel=0, control=64, value=85, time=80),\n",
      "    Message('control_change', channel=0, control=64, value=86, time=80),\n",
      "    Message('control_change', channel=0, control=64, value=87, time=80),\n",
      "    Message('control_change', channel=0, control=64, value=86, time=7120),\n",
      "    Message('control_change', channel=0, control=64, value=83, time=80),\n",
      "    Message('control_change', channel=0, control=64, value=79, time=80),\n",
      "    Message('control_change', channel=0, control=64, value=75, time=80),\n",
      "    Message('control_change', channel=0, control=64, value=68, time=80),\n",
      "    Message('control_change', channel=0, control=64, value=58, time=80),\n",
      "    Message('control_change', channel=0, control=64, value=46, time=80),\n",
      "    Message('control_change', channel=0, control=64, value=35, time=80),\n",
      "    Message('control_change', channel=0, control=64, value=27, time=80),\n",
      "    Message('control_change', channel=0, control=64, value=21, time=80),\n",
      "    Message('control_change', channel=0, control=64, value=18, time=80),\n",
      "    Message('control_change', channel=0, control=64, value=18, time=80),\n",
      "    Message('control_change', channel=0, control=64, value=19, time=320),\n",
      "    Message('control_change', channel=0, control=64, value=22, time=80),\n",
      "    Message('control_change', channel=0, control=64, value=24, time=80),\n",
      "    Message('control_change', channel=0, control=64, value=28, time=80),\n",
      "    Message('control_change', channel=0, control=64, value=30, time=80),\n",
      "    Message('control_change', channel=0, control=64, value=32, time=80),\n",
      "    Message('control_change', channel=0, control=64, value=35, time=80),\n",
      "    Message('control_change', channel=0, control=64, value=40, time=80),\n",
      "    Message('control_change', channel=0, control=64, value=46, time=80),\n",
      "    Message('control_change', channel=0, control=64, value=52, time=80),\n",
      "    Message('control_change', channel=0, control=64, value=59, time=80),\n",
      "    Message('control_change', channel=0, control=64, value=66, time=80),\n",
      "    Message('control_change', channel=0, control=64, value=72, time=80),\n",
      "    Message('control_change', channel=0, control=64, value=78, time=80),\n",
      "    Message('control_change', channel=0, control=64, value=83, time=80),\n",
      "    Message('control_change', channel=0, control=64, value=88, time=80),\n",
      "    Message('control_change', channel=0, control=64, value=92, time=80),\n",
      "    Message('control_change', channel=0, control=64, value=94, time=80),\n",
      "    Message('control_change', channel=0, control=64, value=94, time=80),\n",
      "    Message('control_change', channel=0, control=64, value=94, time=10160),\n",
      "    Message('control_change', channel=0, control=64, value=94, time=3360),\n",
      "    Message('control_change', channel=0, control=64, value=93, time=80),\n",
      "    Message('control_change', channel=0, control=64, value=92, time=80),\n",
      "    Message('control_change', channel=0, control=64, value=90, time=80),\n",
      "    Message('control_change', channel=0, control=64, value=87, time=80),\n",
      "    Message('control_change', channel=0, control=64, value=84, time=80),\n",
      "    Message('control_change', channel=0, control=64, value=82, time=80),\n",
      "    Message('control_change', channel=0, control=64, value=81, time=80),\n",
      "    Message('control_change', channel=0, control=64, value=81, time=80),\n",
      "    Message('control_change', channel=0, control=64, value=79, time=80),\n",
      "    Message('control_change', channel=0, control=64, value=77, time=80),\n",
      "    Message('control_change', channel=0, control=64, value=74, time=80),\n",
      "    Message('control_change', channel=0, control=64, value=69, time=80),\n",
      "    Message('control_change', channel=0, control=64, value=66, time=80),\n",
      "    Message('control_change', channel=0, control=64, value=63, time=80),\n",
      "    Message('control_change', channel=0, control=64, value=59, time=80),\n",
      "    Message('control_change', channel=0, control=64, value=54, time=80),\n",
      "    Message('control_change', channel=0, control=64, value=49, time=80),\n",
      "    Message('control_change', channel=0, control=64, value=45, time=80),\n",
      "    Message('control_change', channel=0, control=64, value=41, time=80),\n",
      "    Message('control_change', channel=0, control=64, value=37, time=80),\n",
      "    Message('control_change', channel=0, control=64, value=33, time=80),\n",
      "    Message('control_change', channel=0, control=64, value=29, time=80),\n",
      "    Message('control_change', channel=0, control=64, value=27, time=80),\n",
      "    Message('control_change', channel=0, control=64, value=25, time=80),\n",
      "    Message('control_change', channel=0, control=64, value=23, time=80),\n",
      "    Message('control_change', channel=0, control=64, value=21, time=80),\n",
      "    Message('control_change', channel=0, control=64, value=20, time=80),\n",
      "    Message('control_change', channel=0, control=64, value=19, time=80),\n",
      "    Message('control_change', channel=0, control=64, value=17, time=80),\n",
      "    Message('control_change', channel=0, control=64, value=15, time=80),\n",
      "    Message('control_change', channel=0, control=64, value=13, time=80),\n",
      "    Message('control_change', channel=0, control=64, value=11, time=80),\n",
      "    Message('control_change', channel=0, control=64, value=8, time=80),\n",
      "    Message('control_change', channel=0, control=64, value=5, time=80),\n",
      "    Message('control_change', channel=0, control=64, value=4, time=80),\n",
      "    Message('control_change', channel=0, control=64, value=4, time=80),\n",
      "    Message('control_change', channel=0, control=64, value=4, time=80),\n",
      "    Message('control_change', channel=0, control=64, value=4, time=160),\n",
      "    Message('control_change', channel=0, control=64, value=4, time=80),\n",
      "    Message('control_change', channel=0, control=64, value=4, time=160),\n",
      "    Message('control_change', channel=0, control=64, value=4, time=80),\n",
      "    Message('control_change', channel=0, control=64, value=4, time=160),\n",
      "    Message('control_change', channel=0, control=64, value=4, time=80),\n",
      "    Message('control_change', channel=0, control=64, value=4, time=160),\n",
      "    Message('control_change', channel=0, control=64, value=4, time=80),\n",
      "    Message('control_change', channel=0, control=64, value=4, time=160),\n",
      "    Message('control_change', channel=0, control=64, value=4, time=80),\n",
      "    Message('control_change', channel=0, control=64, value=4, time=160),\n",
      "    Message('control_change', channel=0, control=64, value=4, time=80),\n",
      "    Message('control_change', channel=0, control=64, value=4, time=160),\n",
      "    Message('control_change', channel=0, control=64, value=4, time=80),\n",
      "    Message('control_change', channel=0, control=64, value=4, time=160),\n",
      "    Message('control_change', channel=0, control=64, value=4, time=80),\n",
      "    Message('control_change', channel=0, control=64, value=4, time=160),\n",
      "    Message('control_change', channel=0, control=64, value=4, time=80),\n",
      "    Message('control_change', channel=0, control=64, value=4, time=160),\n",
      "    Message('control_change', channel=0, control=64, value=7, time=160),\n",
      "    Message('control_change', channel=0, control=64, value=12, time=80),\n",
      "    Message('control_change', channel=0, control=64, value=13, time=80),\n",
      "    Message('control_change', channel=0, control=64, value=15, time=80),\n",
      "    Message('control_change', channel=0, control=64, value=18, time=80),\n",
      "    Message('control_change', channel=0, control=64, value=19, time=80),\n",
      "    Message('control_change', channel=0, control=64, value=20, time=80),\n",
      "    Message('control_change', channel=0, control=64, value=21, time=80),\n",
      "    Message('control_change', channel=0, control=64, value=21, time=80),\n",
      "    Message('control_change', channel=0, control=64, value=22, time=80),\n",
      "    Message('control_change', channel=0, control=64, value=22, time=80),\n",
      "    Message('control_change', channel=0, control=64, value=23, time=80),\n",
      "    Message('control_change', channel=0, control=64, value=24, time=80),\n",
      "    Message('control_change', channel=0, control=64, value=25, time=80),\n",
      "    Message('control_change', channel=0, control=64, value=26, time=80),\n",
      "    Message('control_change', channel=0, control=64, value=28, time=80),\n",
      "    Message('control_change', channel=0, control=64, value=30, time=80),\n",
      "    Message('control_change', channel=0, control=64, value=33, time=80),\n",
      "    Message('control_change', channel=0, control=64, value=38, time=80),\n",
      "    Message('control_change', channel=0, control=64, value=44, time=80),\n",
      "    Message('control_change', channel=0, control=64, value=51, time=80),\n",
      "    Message('control_change', channel=0, control=64, value=57, time=80),\n",
      "    Message('control_change', channel=0, control=64, value=64, time=80),\n",
      "    Message('control_change', channel=0, control=64, value=70, time=80),\n",
      "    Message('control_change', channel=0, control=64, value=76, time=80),\n",
      "    Message('control_change', channel=0, control=64, value=81, time=80),\n",
      "    Message('control_change', channel=0, control=64, value=86, time=80),\n",
      "    Message('control_change', channel=0, control=64, value=89, time=80),\n",
      "    Message('control_change', channel=0, control=64, value=91, time=80),\n",
      "    Message('control_change', channel=0, control=64, value=91, time=80),\n",
      "    Message('control_change', channel=0, control=64, value=91, time=7680),\n",
      "    Message('control_change', channel=0, control=64, value=90, time=80),\n",
      "    Message('control_change', channel=0, control=64, value=89, time=80),\n",
      "    Message('control_change', channel=0, control=64, value=87, time=80),\n",
      "    Message('control_change', channel=0, control=64, value=85, time=80),\n",
      "    Message('control_change', channel=0, control=64, value=81, time=80),\n",
      "    Message('control_change', channel=0, control=64, value=78, time=80),\n",
      "    Message('control_change', channel=0, control=64, value=74, time=80),\n",
      "    Message('control_change', channel=0, control=64, value=66, time=80),\n",
      "    Message('control_change', channel=0, control=64, value=53, time=80),\n",
      "    Message('control_change', channel=0, control=64, value=40, time=80),\n",
      "    Message('control_change', channel=0, control=64, value=29, time=80),\n",
      "    Message('control_change', channel=0, control=64, value=21, time=80),\n",
      "    Message('control_change', channel=0, control=64, value=16, time=80),\n",
      "    Message('control_change', channel=0, control=64, value=14, time=80),\n",
      "    Message('control_change', channel=0, control=64, value=12, time=80),\n",
      "    Message('control_change', channel=0, control=64, value=14, time=400),\n",
      "    Message('control_change', channel=0, control=64, value=16, time=80),\n",
      "    Message('control_change', channel=0, control=64, value=18, time=80),\n",
      "    Message('control_change', channel=0, control=64, value=21, time=80),\n",
      "    Message('control_change', channel=0, control=64, value=24, time=80),\n",
      "    Message('control_change', channel=0, control=64, value=27, time=80),\n",
      "    Message('control_change', channel=0, control=64, value=29, time=80),\n",
      "    Message('control_change', channel=0, control=64, value=33, time=80),\n",
      "    Message('control_change', channel=0, control=64, value=39, time=80),\n",
      "    Message('control_change', channel=0, control=64, value=46, time=80),\n",
      "    Message('control_change', channel=0, control=64, value=54, time=80),\n",
      "    Message('control_change', channel=0, control=64, value=61, time=80),\n",
      "    Message('control_change', channel=0, control=64, value=68, time=80),\n",
      "    Message('control_change', channel=0, control=64, value=74, time=80),\n",
      "    Message('control_change', channel=0, control=64, value=78, time=80),\n",
      "    Message('control_change', channel=0, control=64, value=82, time=80),\n",
      "    Message('control_change', channel=0, control=64, value=85, time=80),\n",
      "    Message('control_change', channel=0, control=64, value=87, time=80),\n",
      "    Message('control_change', channel=0, control=64, value=87, time=10160),\n",
      "    Message('control_change', channel=0, control=64, value=86, time=3360),\n",
      "    Message('control_change', channel=0, control=64, value=85, time=80),\n",
      "    Message('control_change', channel=0, control=64, value=83, time=80),\n",
      "    Message('control_change', channel=0, control=64, value=81, time=80),\n",
      "    Message('control_change', channel=0, control=64, value=79, time=80),\n",
      "    Message('control_change', channel=0, control=64, value=78, time=160),\n",
      "    Message('control_change', channel=0, control=64, value=76, time=80),\n",
      "    Message('control_change', channel=0, control=64, value=73, time=80),\n",
      "    Message('control_change', channel=0, control=64, value=68, time=80),\n",
      "    Message('control_change', channel=0, control=64, value=63, time=80),\n",
      "    Message('control_change', channel=0, control=64, value=59, time=80),\n",
      "    Message('control_change', channel=0, control=64, value=54, time=80),\n",
      "    Message('control_change', channel=0, control=64, value=49, time=80),\n",
      "    Message('control_change', channel=0, control=64, value=44, time=80),\n",
      "    Message('control_change', channel=0, control=64, value=39, time=80),\n",
      "    Message('control_change', channel=0, control=64, value=34, time=80),\n",
      "    Message('control_change', channel=0, control=64, value=29, time=80),\n",
      "    Message('control_change', channel=0, control=64, value=25, time=80),\n",
      "    Message('control_change', channel=0, control=64, value=22, time=80),\n",
      "    Message('control_change', channel=0, control=64, value=19, time=80),\n",
      "    Message('control_change', channel=0, control=64, value=17, time=80),\n",
      "    Message('control_change', channel=0, control=64, value=15, time=80),\n",
      "    Message('control_change', channel=0, control=64, value=13, time=80),\n",
      "    Message('control_change', channel=0, control=64, value=11, time=80),\n",
      "    Message('control_change', channel=0, control=64, value=9, time=80),\n",
      "    Message('control_change', channel=0, control=64, value=6, time=80),\n",
      "    Message('control_change', channel=0, control=64, value=4, time=80),\n",
      "    Message('control_change', channel=0, control=64, value=5, time=1280),\n",
      "    Message('control_change', channel=0, control=64, value=11, time=80),\n",
      "    Message('control_change', channel=0, control=64, value=14, time=80),\n",
      "    Message('control_change', channel=0, control=64, value=16, time=80),\n",
      "    Message('control_change', channel=0, control=64, value=20, time=80),\n",
      "    Message('control_change', channel=0, control=64, value=23, time=80),\n",
      "    Message('control_change', channel=0, control=64, value=26, time=80),\n",
      "    Message('control_change', channel=0, control=64, value=28, time=80),\n",
      "    Message('control_change', channel=0, control=64, value=30, time=80),\n",
      "    Message('control_change', channel=0, control=64, value=33, time=80),\n",
      "    Message('control_change', channel=0, control=64, value=37, time=80),\n",
      "    Message('control_change', channel=0, control=64, value=41, time=80),\n",
      "    Message('control_change', channel=0, control=64, value=44, time=80),\n",
      "    Message('control_change', channel=0, control=64, value=48, time=80),\n",
      "    Message('control_change', channel=0, control=64, value=53, time=80),\n",
      "    Message('control_change', channel=0, control=64, value=59, time=80),\n",
      "    Message('control_change', channel=0, control=64, value=65, time=80),\n",
      "    Message('control_change', channel=0, control=64, value=71, time=80),\n",
      "    Message('control_change', channel=0, control=64, value=78, time=80),\n",
      "    Message('control_change', channel=0, control=64, value=85, time=80),\n",
      "    Message('control_change', channel=0, control=64, value=91, time=80),\n",
      "    Message('control_change', channel=0, control=64, value=96, time=80),\n",
      "    Message('control_change', channel=0, control=64, value=100, time=80),\n",
      "    Message('control_change', channel=0, control=64, value=103, time=80),\n",
      "    Message('control_change', channel=0, control=64, value=104, time=80),\n",
      "    Message('control_change', channel=0, control=64, value=104, time=1120),\n",
      "    Message('control_change', channel=0, control=64, value=103, time=9120),\n",
      "    Message('control_change', channel=0, control=64, value=101, time=80),\n",
      "    Message('control_change', channel=0, control=64, value=98, time=80),\n",
      "    Message('control_change', channel=0, control=64, value=94, time=80),\n",
      "    Message('control_change', channel=0, control=64, value=91, time=80),\n",
      "    Message('control_change', channel=0, control=64, value=88, time=80),\n",
      "    Message('control_change', channel=0, control=64, value=86, time=80),\n",
      "    Message('control_change', channel=0, control=64, value=85, time=80),\n",
      "    Message('control_change', channel=0, control=64, value=83, time=80),\n",
      "    Message('control_change', channel=0, control=64, value=82, time=80),\n",
      "    Message('control_change', channel=0, control=64, value=82, time=80),\n",
      "    Message('control_change', channel=0, control=64, value=81, time=80),\n",
      "    Message('control_change', channel=0, control=64, value=81, time=80),\n",
      "    Message('control_change', channel=0, control=64, value=79, time=80),\n",
      "    Message('control_change', channel=0, control=64, value=77, time=80),\n",
      "    Message('control_change', channel=0, control=64, value=74, time=80),\n",
      "    Message('control_change', channel=0, control=64, value=70, time=80),\n",
      "    Message('control_change', channel=0, control=64, value=65, time=80),\n",
      "    Message('control_change', channel=0, control=64, value=60, time=80),\n",
      "    Message('control_change', channel=0, control=64, value=54, time=80),\n",
      "    Message('control_change', channel=0, control=64, value=48, time=80),\n",
      "    Message('control_change', channel=0, control=64, value=40, time=80),\n",
      "    Message('control_change', channel=0, control=64, value=33, time=80),\n",
      "    Message('control_change', channel=0, control=64, value=27, time=80),\n",
      "    Message('control_change', channel=0, control=64, value=21, time=80),\n",
      "    Message('control_change', channel=0, control=64, value=18, time=80),\n",
      "    Message('control_change', channel=0, control=64, value=16, time=80),\n",
      "    Message('control_change', channel=0, control=64, value=14, time=80),\n",
      "    Message('control_change', channel=0, control=64, value=12, time=80),\n",
      "    Message('control_change', channel=0, control=64, value=12, time=80),\n",
      "    Message('control_change', channel=0, control=64, value=11, time=160),\n",
      "    Message('control_change', channel=0, control=64, value=12, time=720),\n",
      "    Message('control_change', channel=0, control=64, value=13, time=80),\n",
      "    Message('control_change', channel=0, control=64, value=15, time=80),\n",
      "    Message('control_change', channel=0, control=64, value=16, time=80),\n",
      "    Message('control_change', channel=0, control=64, value=19, time=80),\n",
      "    Message('control_change', channel=0, control=64, value=20, time=80),\n",
      "    Message('control_change', channel=0, control=64, value=22, time=80),\n",
      "    Message('control_change', channel=0, control=64, value=23, time=80),\n",
      "    Message('control_change', channel=0, control=64, value=24, time=80),\n",
      "    Message('control_change', channel=0, control=64, value=24, time=80),\n",
      "    Message('control_change', channel=0, control=64, value=25, time=80),\n",
      "    Message('control_change', channel=0, control=64, value=25, time=80),\n",
      "    Message('control_change', channel=0, control=64, value=26, time=80),\n",
      "    Message('control_change', channel=0, control=64, value=27, time=80),\n",
      "    Message('control_change', channel=0, control=64, value=29, time=80),\n",
      "    Message('control_change', channel=0, control=64, value=31, time=80),\n",
      "    Message('control_change', channel=0, control=64, value=34, time=80),\n",
      "    Message('control_change', channel=0, control=64, value=39, time=80),\n",
      "    Message('control_change', channel=0, control=64, value=45, time=80),\n",
      "    Message('control_change', channel=0, control=64, value=52, time=80),\n",
      "    Message('control_change', channel=0, control=64, value=60, time=80),\n",
      "    Message('control_change', channel=0, control=64, value=67, time=80),\n",
      "    Message('control_change', channel=0, control=64, value=74, time=80),\n",
      "    Message('control_change', channel=0, control=64, value=80, time=80),\n",
      "    Message('control_change', channel=0, control=64, value=86, time=80),\n",
      "    Message('control_change', channel=0, control=64, value=91, time=80),\n",
      "    Message('control_change', channel=0, control=64, value=94, time=80),\n",
      "    Message('control_change', channel=0, control=64, value=96, time=80),\n",
      "    Message('control_change', channel=0, control=64, value=96, time=80),\n",
      "    Message('control_change', channel=0, control=64, value=96, time=10160),\n",
      "    Message('control_change', channel=0, control=64, value=95, time=80),\n",
      "    Message('control_change', channel=0, control=64, value=94, time=80),\n",
      "    Message('control_change', channel=0, control=64, value=92, time=80),\n",
      "    Message('control_change', channel=0, control=64, value=91, time=80),\n",
      "    Message('control_change', channel=0, control=64, value=88, time=80),\n",
      "    Message('control_change', channel=0, control=64, value=85, time=80),\n",
      "    Message('control_change', channel=0, control=64, value=81, time=80),\n",
      "    Message('control_change', channel=0, control=64, value=79, time=80),\n",
      "    Message('control_change', channel=0, control=64, value=77, time=80),\n",
      "    Message('control_change', channel=0, control=64, value=72, time=80),\n",
      "    Message('control_change', channel=0, control=64, value=63, time=80),\n",
      "    Message('control_change', channel=0, control=64, value=52, time=80),\n",
      "    Message('control_change', channel=0, control=64, value=43, time=80),\n",
      "    Message('control_change', channel=0, control=64, value=36, time=80),\n",
      "    Message('control_change', channel=0, control=64, value=29, time=80),\n",
      "    Message('control_change', channel=0, control=64, value=22, time=80),\n",
      "    Message('control_change', channel=0, control=64, value=18, time=80),\n",
      "    Message('control_change', channel=0, control=64, value=17, time=80),\n",
      "    Message('control_change', channel=0, control=64, value=16, time=80),\n",
      "    Message('control_change', channel=0, control=64, value=15, time=80),\n",
      "    Message('control_change', channel=0, control=64, value=16, time=800),\n",
      "    Message('control_change', channel=0, control=64, value=18, time=80),\n",
      "    Message('control_change', channel=0, control=64, value=19, time=80),\n",
      "    Message('control_change', channel=0, control=64, value=22, time=80),\n",
      "    Message('control_change', channel=0, control=64, value=25, time=80),\n",
      "    Message('control_change', channel=0, control=64, value=28, time=80),\n",
      "    Message('control_change', channel=0, control=64, value=30, time=80),\n",
      "    Message('control_change', channel=0, control=64, value=33, time=80),\n",
      "    Message('control_change', channel=0, control=64, value=37, time=80),\n",
      "    Message('control_change', channel=0, control=64, value=42, time=80),\n",
      "    Message('control_change', channel=0, control=64, value=49, time=80),\n",
      "    Message('control_change', channel=0, control=64, value=55, time=80),\n",
      "    Message('control_change', channel=0, control=64, value=61, time=80),\n",
      "    Message('control_change', channel=0, control=64, value=67, time=80),\n",
      "    Message('control_change', channel=0, control=64, value=73, time=80),\n",
      "    Message('control_change', channel=0, control=64, value=78, time=80),\n",
      "    Message('control_change', channel=0, control=64, value=82, time=80),\n",
      "    Message('control_change', channel=0, control=64, value=86, time=80),\n",
      "    Message('control_change', channel=0, control=64, value=89, time=80),\n",
      "    Message('control_change', channel=0, control=64, value=90, time=80),\n",
      "    Message('control_change', channel=0, control=64, value=90, time=80),\n",
      "    Message('control_change', channel=0, control=64, value=90, time=320),\n",
      "    Message('control_change', channel=0, control=64, value=90, time=640),\n",
      "    Message('control_change', channel=0, control=64, value=90, time=80),\n",
      "    Message('control_change', channel=0, control=64, value=90, time=80),\n",
      "    Message('control_change', channel=0, control=64, value=88, time=80),\n",
      "    Message('control_change', channel=0, control=64, value=83, time=80),\n",
      "    Message('control_change', channel=0, control=64, value=77, time=80),\n",
      "    Message('control_change', channel=0, control=64, value=72, time=80),\n",
      "    Message('control_change', channel=0, control=64, value=66, time=80),\n",
      "    Message('control_change', channel=0, control=64, value=58, time=80),\n",
      "    Message('control_change', channel=0, control=64, value=49, time=80),\n",
      "    Message('control_change', channel=0, control=64, value=41, time=80),\n",
      "    Message('control_change', channel=0, control=64, value=37, time=80),\n",
      "    Message('control_change', channel=0, control=64, value=35, time=80),\n",
      "    Message('control_change', channel=0, control=64, value=34, time=80),\n",
      "    Message('control_change', channel=0, control=64, value=33, time=80),\n",
      "    Message('control_change', channel=0, control=64, value=34, time=400),\n",
      "    Message('control_change', channel=0, control=64, value=36, time=80),\n",
      "    Message('control_change', channel=0, control=64, value=37, time=80),\n",
      "    Message('control_change', channel=0, control=64, value=39, time=80),\n",
      "    Message('control_change', channel=0, control=64, value=40, time=80),\n",
      "    Message('control_change', channel=0, control=64, value=41, time=80),\n",
      "    Message('control_change', channel=0, control=64, value=43, time=80),\n",
      "    Message('control_change', channel=0, control=64, value=46, time=80),\n",
      "    Message('control_change', channel=0, control=64, value=49, time=80),\n",
      "    Message('control_change', channel=0, control=64, value=52, time=80),\n",
      "    Message('control_change', channel=0, control=64, value=56, time=80),\n",
      "    Message('control_change', channel=0, control=64, value=61, time=80),\n",
      "    Message('control_change', channel=0, control=64, value=66, time=80),\n",
      "    Message('control_change', channel=0, control=64, value=71, time=80),\n",
      "    Message('control_change', channel=0, control=64, value=76, time=80),\n",
      "    Message('control_change', channel=0, control=64, value=79, time=80),\n",
      "    Message('control_change', channel=0, control=64, value=83, time=80),\n",
      "    Message('control_change', channel=0, control=64, value=85, time=80),\n",
      "    Message('control_change', channel=0, control=64, value=86, time=80),\n",
      "    Message('control_change', channel=0, control=64, value=86, time=1600),\n",
      "    Message('control_change', channel=0, control=64, value=86, time=80),\n",
      "    Message('control_change', channel=0, control=64, value=86, time=240),\n",
      "    Message('control_change', channel=0, control=64, value=86, time=80),\n",
      "    Message('control_change', channel=0, control=64, value=86, time=1840),\n",
      "    Message('control_change', channel=0, control=64, value=86, time=80),\n",
      "    Message('control_change', channel=0, control=64, value=86, time=720),\n",
      "    Message('control_change', channel=0, control=64, value=86, time=80),\n",
      "    Message('control_change', channel=0, control=64, value=86, time=160),\n",
      "    Message('control_change', channel=0, control=64, value=86, time=80),\n",
      "    Message('control_change', channel=0, control=64, value=86, time=160),\n",
      "    Message('control_change', channel=0, control=64, value=86, time=80),\n",
      "    Message('control_change', channel=0, control=64, value=86, time=160),\n",
      "    Message('control_change', channel=0, control=64, value=86, time=80),\n",
      "    Message('control_change', channel=0, control=64, value=86, time=160),\n",
      "    Message('control_change', channel=0, control=64, value=86, time=80),\n",
      "    Message('control_change', channel=0, control=64, value=86, time=1200),\n",
      "    Message('control_change', channel=0, control=64, value=86, time=80),\n",
      "    Message('control_change', channel=0, control=64, value=82, time=960),\n",
      "    Message('control_change', channel=0, control=64, value=76, time=80),\n",
      "    Message('control_change', channel=0, control=64, value=67, time=80),\n",
      "    Message('control_change', channel=0, control=64, value=58, time=80),\n",
      "    Message('control_change', channel=0, control=64, value=48, time=80),\n",
      "    Message('control_change', channel=0, control=64, value=39, time=80),\n",
      "    Message('control_change', channel=0, control=64, value=31, time=80),\n",
      "    Message('control_change', channel=0, control=64, value=27, time=80),\n",
      "    Message('control_change', channel=0, control=64, value=25, time=80),\n",
      "    Message('control_change', channel=0, control=64, value=26, time=320),\n",
      "    Message('control_change', channel=0, control=64, value=28, time=80),\n",
      "    Message('control_change', channel=0, control=64, value=30, time=80),\n",
      "    Message('control_change', channel=0, control=64, value=33, time=80),\n",
      "    Message('control_change', channel=0, control=64, value=35, time=80),\n",
      "    Message('control_change', channel=0, control=64, value=36, time=80),\n",
      "    Message('control_change', channel=0, control=64, value=39, time=80),\n",
      "    Message('control_change', channel=0, control=64, value=43, time=80),\n",
      "    Message('control_change', channel=0, control=64, value=48, time=80),\n",
      "    Message('control_change', channel=0, control=64, value=54, time=80),\n",
      "    Message('control_change', channel=0, control=64, value=60, time=80),\n",
      "    Message('control_change', channel=0, control=64, value=66, time=80),\n",
      "    Message('control_change', channel=0, control=64, value=72, time=80),\n",
      "    Message('control_change', channel=0, control=64, value=78, time=80),\n",
      "    Message('control_change', channel=0, control=64, value=84, time=80),\n",
      "    Message('control_change', channel=0, control=64, value=89, time=80),\n",
      "    Message('control_change', channel=0, control=64, value=92, time=80),\n",
      "    Message('control_change', channel=0, control=64, value=94, time=80),\n",
      "    Message('control_change', channel=0, control=64, value=95, time=80),\n",
      "    Message('control_change', channel=0, control=64, value=94, time=1840),\n",
      "    Message('control_change', channel=0, control=64, value=93, time=80),\n",
      "    Message('control_change', channel=0, control=64, value=89, time=80),\n",
      "    Message('control_change', channel=0, control=64, value=81, time=80),\n",
      "    Message('control_change', channel=0, control=64, value=73, time=80),\n",
      "    Message('control_change', channel=0, control=64, value=64, time=80),\n",
      "    Message('control_change', channel=0, control=64, value=53, time=80),\n",
      "    Message('control_change', channel=0, control=64, value=39, time=80),\n",
      "    Message('control_change', channel=0, control=64, value=27, time=80),\n",
      "    Message('control_change', channel=0, control=64, value=20, time=80),\n",
      "    Message('control_change', channel=0, control=64, value=18, time=80),\n",
      "    Message('control_change', channel=0, control=64, value=17, time=80),\n",
      "    Message('control_change', channel=0, control=64, value=16, time=80),\n",
      "    Message('control_change', channel=0, control=64, value=17, time=320),\n",
      "    Message('control_change', channel=0, control=64, value=18, time=80),\n",
      "    Message('control_change', channel=0, control=64, value=20, time=80),\n",
      "    Message('control_change', channel=0, control=64, value=22, time=80),\n",
      "    Message('control_change', channel=0, control=64, value=24, time=80),\n",
      "    Message('control_change', channel=0, control=64, value=27, time=80),\n",
      "    Message('control_change', channel=0, control=64, value=29, time=80),\n",
      "    Message('control_change', channel=0, control=64, value=31, time=80),\n",
      "    Message('control_change', channel=0, control=64, value=33, time=80),\n",
      "    Message('control_change', channel=0, control=64, value=38, time=80),\n",
      "    Message('control_change', channel=0, control=64, value=44, time=80),\n",
      "    Message('control_change', channel=0, control=64, value=52, time=80),\n",
      "    Message('control_change', channel=0, control=64, value=59, time=80),\n",
      "    Message('control_change', channel=0, control=64, value=66, time=80),\n",
      "    Message('control_change', channel=0, control=64, value=73, time=80),\n",
      "    Message('control_change', channel=0, control=64, value=79, time=80),\n",
      "    Message('control_change', channel=0, control=64, value=83, time=80),\n",
      "    Message('control_change', channel=0, control=64, value=87, time=80),\n",
      "    Message('control_change', channel=0, control=64, value=90, time=80),\n",
      "    Message('control_change', channel=0, control=64, value=90, time=80),\n",
      "    Message('control_change', channel=0, control=64, value=89, time=8960),\n",
      "    Message('control_change', channel=0, control=64, value=88, time=80),\n",
      "    Message('control_change', channel=0, control=64, value=87, time=80),\n",
      "    Message('control_change', channel=0, control=64, value=86, time=80),\n",
      "    Message('control_change', channel=0, control=64, value=84, time=80),\n",
      "    Message('control_change', channel=0, control=64, value=82, time=80),\n",
      "    Message('control_change', channel=0, control=64, value=81, time=80),\n",
      "    Message('control_change', channel=0, control=64, value=80, time=80),\n",
      "    Message('control_change', channel=0, control=64, value=80, time=80),\n",
      "    Message('control_change', channel=0, control=64, value=79, time=80),\n",
      "    Message('control_change', channel=0, control=64, value=77, time=80),\n",
      "    Message('control_change', channel=0, control=64, value=74, time=80),\n",
      "    Message('control_change', channel=0, control=64, value=71, time=80),\n",
      "    Message('control_change', channel=0, control=64, value=67, time=80),\n",
      "    Message('control_change', channel=0, control=64, value=63, time=80),\n",
      "    Message('control_change', channel=0, control=64, value=59, time=80),\n",
      "    Message('control_change', channel=0, control=64, value=54, time=80),\n",
      "    Message('control_change', channel=0, control=64, value=49, time=80),\n",
      "    Message('control_change', channel=0, control=64, value=44, time=80),\n",
      "    Message('control_change', channel=0, control=64, value=39, time=80),\n",
      "    Message('control_change', channel=0, control=64, value=34, time=80),\n",
      "    Message('control_change', channel=0, control=64, value=30, time=80),\n",
      "    Message('control_change', channel=0, control=64, value=27, time=80),\n",
      "    Message('control_change', channel=0, control=64, value=25, time=80),\n",
      "    Message('control_change', channel=0, control=64, value=24, time=80),\n",
      "    Message('control_change', channel=0, control=64, value=22, time=80),\n",
      "    Message('control_change', channel=0, control=64, value=21, time=80),\n",
      "    Message('control_change', channel=0, control=64, value=20, time=80),\n",
      "    Message('control_change', channel=0, control=64, value=19, time=80),\n",
      "    Message('control_change', channel=0, control=64, value=18, time=80),\n",
      "    Message('control_change', channel=0, control=64, value=17, time=80),\n",
      "    Message('control_change', channel=0, control=64, value=16, time=80),\n",
      "    Message('control_change', channel=0, control=64, value=16, time=80),\n",
      "    Message('control_change', channel=0, control=64, value=15, time=80),\n",
      "    Message('control_change', channel=0, control=64, value=14, time=80),\n",
      "    Message('control_change', channel=0, control=64, value=14, time=80),\n",
      "    Message('control_change', channel=0, control=64, value=13, time=80),\n",
      "    Message('control_change', channel=0, control=64, value=13, time=240),\n",
      "    Message('control_change', channel=0, control=64, value=12, time=400),\n",
      "    Message('control_change', channel=0, control=64, value=13, time=1280),\n",
      "    Message('control_change', channel=0, control=64, value=16, time=80),\n",
      "    Message('control_change', channel=0, control=64, value=17, time=80),\n",
      "    Message('control_change', channel=0, control=64, value=19, time=80),\n",
      "    Message('control_change', channel=0, control=64, value=23, time=80),\n",
      "    Message('control_change', channel=0, control=64, value=25, time=80),\n",
      "    Message('control_change', channel=0, control=64, value=27, time=80),\n",
      "    Message('control_change', channel=0, control=64, value=29, time=80),\n",
      "    Message('control_change', channel=0, control=64, value=31, time=80),\n",
      "    Message('control_change', channel=0, control=64, value=34, time=80),\n",
      "    Message('control_change', channel=0, control=64, value=39, time=80),\n",
      "    Message('control_change', channel=0, control=64, value=44, time=80),\n",
      "    Message('control_change', channel=0, control=64, value=51, time=80),\n",
      "    Message('control_change', channel=0, control=64, value=58, time=80),\n",
      "    Message('control_change', channel=0, control=64, value=65, time=80),\n",
      "    Message('control_change', channel=0, control=64, value=74, time=80),\n",
      "    Message('control_change', channel=0, control=64, value=81, time=80),\n",
      "    Message('control_change', channel=0, control=64, value=89, time=80),\n",
      "    Message('control_change', channel=0, control=64, value=97, time=80),\n",
      "    Message('control_change', channel=0, control=64, value=102, time=80),\n",
      "    Message('control_change', channel=0, control=64, value=106, time=80),\n",
      "    Message('control_change', channel=0, control=64, value=109, time=80),\n",
      "    Message('control_change', channel=0, control=64, value=109, time=1440),\n",
      "    Message('control_change', channel=0, control=64, value=107, time=8560),\n",
      "    Message('control_change', channel=0, control=64, value=104, time=80),\n",
      "    Message('control_change', channel=0, control=64, value=99, time=80),\n",
      "    Message('control_change', channel=0, control=64, value=92, time=80),\n",
      "    Message('control_change', channel=0, control=64, value=81, time=80),\n",
      "    Message('control_change', channel=0, control=64, value=74, time=80),\n",
      "    Message('control_change', channel=0, control=64, value=66, time=80),\n",
      "    Message('control_change', channel=0, control=64, value=58, time=80),\n",
      "    Message('control_change', channel=0, control=64, value=46, time=80),\n",
      "    Message('control_change', channel=0, control=64, value=35, time=80),\n",
      "    Message('control_change', channel=0, control=64, value=28, time=80),\n",
      "    Message('control_change', channel=0, control=64, value=24, time=80),\n",
      "    Message('control_change', channel=0, control=64, value=22, time=80),\n",
      "    Message('control_change', channel=0, control=64, value=21, time=80),\n",
      "    Message('control_change', channel=0, control=64, value=21, time=80),\n",
      "    Message('control_change', channel=0, control=64, value=21, time=320),\n",
      "    Message('control_change', channel=0, control=64, value=22, time=80),\n",
      "    Message('control_change', channel=0, control=64, value=24, time=80),\n",
      "    Message('control_change', channel=0, control=64, value=26, time=80),\n",
      "    Message('control_change', channel=0, control=64, value=29, time=80),\n",
      "    Message('control_change', channel=0, control=64, value=31, time=80),\n",
      "    Message('control_change', channel=0, control=64, value=33, time=80),\n",
      "    Message('control_change', channel=0, control=64, value=36, time=80),\n",
      "    Message('control_change', channel=0, control=64, value=40, time=80),\n",
      "    Message('control_change', channel=0, control=64, value=46, time=80),\n",
      "    Message('control_change', channel=0, control=64, value=53, time=80),\n",
      "    Message('control_change', channel=0, control=64, value=62, time=80),\n",
      "    Message('control_change', channel=0, control=64, value=70, time=80),\n",
      "    Message('control_change', channel=0, control=64, value=77, time=80),\n",
      "    Message('control_change', channel=0, control=64, value=85, time=80),\n",
      "    Message('control_change', channel=0, control=64, value=91, time=80),\n",
      "    Message('control_change', channel=0, control=64, value=98, time=80),\n",
      "    Message('control_change', channel=0, control=64, value=103, time=80),\n",
      "    Message('control_change', channel=0, control=64, value=107, time=80),\n",
      "    Message('control_change', channel=0, control=64, value=109, time=80),\n",
      "    Message('control_change', channel=0, control=64, value=109, time=10160),\n",
      "    Message('control_change', channel=0, control=64, value=108, time=1760),\n",
      "    Message('control_change', channel=0, control=64, value=107, time=80),\n",
      "    Message('control_change', channel=0, control=64, value=104, time=80),\n",
      "    Message('control_change', channel=0, control=64, value=101, time=80),\n",
      "    Message('control_change', channel=0, control=64, value=96, time=80),\n",
      "    Message('control_change', channel=0, control=64, value=90, time=80),\n",
      "    Message('control_change', channel=0, control=64, value=84, time=80),\n",
      "    Message('control_change', channel=0, control=64, value=80, time=80),\n",
      "    Message('control_change', channel=0, control=64, value=77, time=80),\n",
      "    Message('control_change', channel=0, control=64, value=72, time=80),\n",
      "    Message('control_change', channel=0, control=64, value=60, time=80),\n",
      "    Message('control_change', channel=0, control=64, value=46, time=80),\n",
      "    Message('control_change', channel=0, control=64, value=31, time=80),\n",
      "    Message('control_change', channel=0, control=64, value=21, time=80),\n",
      "    Message('control_change', channel=0, control=64, value=14, time=80),\n",
      "    Message('control_change', channel=0, control=64, value=10, time=80),\n",
      "    Message('control_change', channel=0, control=64, value=6, time=80),\n",
      "    Message('control_change', channel=0, control=64, value=3, time=80),\n",
      "    Message('control_change', channel=0, control=64, value=4, time=640),\n",
      "    Message('control_change', channel=0, control=64, value=8, time=80),\n",
      "    Message('control_change', channel=0, control=64, value=12, time=80),\n",
      "    Message('control_change', channel=0, control=64, value=12, time=80),\n",
      "    Message('control_change', channel=0, control=64, value=15, time=80),\n",
      "    Message('control_change', channel=0, control=64, value=19, time=80),\n",
      "    Message('control_change', channel=0, control=64, value=22, time=80),\n",
      "    Message('control_change', channel=0, control=64, value=23, time=80),\n",
      "    Message('control_change', channel=0, control=64, value=25, time=80),\n",
      "    Message('control_change', channel=0, control=64, value=27, time=80),\n",
      "    Message('control_change', channel=0, control=64, value=29, time=80),\n",
      "    Message('control_change', channel=0, control=64, value=31, time=80),\n",
      "    Message('control_change', channel=0, control=64, value=35, time=80),\n",
      "    Message('control_change', channel=0, control=64, value=39, time=80),\n",
      "    Message('control_change', channel=0, control=64, value=43, time=80),\n",
      "    Message('control_change', channel=0, control=64, value=49, time=80),\n",
      "    Message('control_change', channel=0, control=64, value=55, time=80),\n",
      "    Message('control_change', channel=0, control=64, value=62, time=80),\n",
      "    Message('control_change', channel=0, control=64, value=70, time=80),\n",
      "    Message('control_change', channel=0, control=64, value=78, time=80),\n",
      "    Message('control_change', channel=0, control=64, value=85, time=80),\n",
      "    Message('control_change', channel=0, control=64, value=92, time=80),\n",
      "    Message('control_change', channel=0, control=64, value=97, time=80),\n",
      "    Message('control_change', channel=0, control=64, value=101, time=80),\n",
      "    Message('control_change', channel=0, control=64, value=104, time=80),\n",
      "    Message('control_change', channel=0, control=64, value=106, time=80),\n",
      "    Message('control_change', channel=0, control=64, value=106, time=80),\n",
      "    Message('control_change', channel=0, control=64, value=107, time=3680),\n",
      "    Message('control_change', channel=0, control=64, value=105, time=5840),\n",
      "    Message('control_change', channel=0, control=64, value=98, time=80),\n",
      "    Message('control_change', channel=0, control=64, value=85, time=80),\n",
      "    Message('control_change', channel=0, control=64, value=68, time=80),\n",
      "    Message('control_change', channel=0, control=64, value=53, time=80),\n",
      "    Message('control_change', channel=0, control=64, value=37, time=80),\n",
      "    Message('control_change', channel=0, control=64, value=20, time=80),\n",
      "    Message('control_change', channel=0, control=64, value=9, time=80),\n",
      "    Message('control_change', channel=0, control=64, value=5, time=80),\n",
      "    Message('control_change', channel=0, control=64, value=2, time=80),\n",
      "    Message('control_change', channel=0, control=64, value=3, time=480),\n",
      "    Message('control_change', channel=0, control=64, value=8, time=80),\n",
      "    Message('control_change', channel=0, control=64, value=12, time=80),\n",
      "    Message('control_change', channel=0, control=64, value=14, time=80),\n",
      "    Message('control_change', channel=0, control=64, value=18, time=80),\n",
      "    Message('control_change', channel=0, control=64, value=23, time=80),\n",
      "    Message('control_change', channel=0, control=64, value=28, time=80),\n",
      "    Message('control_change', channel=0, control=64, value=33, time=80),\n",
      "    Message('control_change', channel=0, control=64, value=41, time=80),\n",
      "    Message('control_change', channel=0, control=64, value=52, time=80),\n",
      "    Message('control_change', channel=0, control=64, value=65, time=80),\n",
      "    Message('control_change', channel=0, control=64, value=76, time=80),\n",
      "    Message('control_change', channel=0, control=64, value=87, time=80),\n",
      "    Message('control_change', channel=0, control=64, value=97, time=80),\n",
      "    Message('control_change', channel=0, control=64, value=105, time=80),\n",
      "    Message('control_change', channel=0, control=64, value=110, time=80),\n",
      "    Message('control_change', channel=0, control=64, value=114, time=80),\n",
      "    Message('control_change', channel=0, control=64, value=115, time=80),\n",
      "    Message('control_change', channel=0, control=64, value=115, time=1680),\n",
      "    Message('control_change', channel=0, control=64, value=116, time=240),\n",
      "    Message('control_change', channel=0, control=64, value=116, time=160),\n",
      "    Message('control_change', channel=0, control=64, value=117, time=160),\n",
      "    Message('control_change', channel=0, control=64, value=117, time=160),\n",
      "    Message('control_change', channel=0, control=64, value=118, time=160),\n",
      "    Message('control_change', channel=0, control=64, value=118, time=240),\n",
      "    Message('control_change', channel=0, control=64, value=119, time=240),\n",
      "    Message('control_change', channel=0, control=64, value=119, time=240),\n",
      "    Message('control_change', channel=0, control=64, value=120, time=160),\n",
      "    Message('control_change', channel=0, control=64, value=120, time=320),\n",
      "    Message('control_change', channel=0, control=64, value=121, time=1040),\n",
      "    Message('control_change', channel=0, control=64, value=121, time=400),\n",
      "    Message('control_change', channel=0, control=64, value=122, time=160),\n",
      "    Message('control_change', channel=0, control=64, value=122, time=160),\n",
      "    Message('control_change', channel=0, control=64, value=123, time=720),\n",
      "    Message('control_change', channel=0, control=64, value=122, time=80),\n",
      "    Message('control_change', channel=0, control=64, value=123, time=80),\n",
      "    Message('control_change', channel=0, control=64, value=122, time=400),\n",
      "    Message('control_change', channel=0, control=64, value=123, time=80),\n",
      "    Message('control_change', channel=0, control=64, value=122, time=160),\n",
      "    Message('control_change', channel=0, control=64, value=123, time=160),\n",
      "    Message('control_change', channel=0, control=64, value=122, time=160),\n",
      "    Message('control_change', channel=0, control=64, value=123, time=80),\n",
      "    Message('control_change', channel=0, control=64, value=122, time=160),\n",
      "    Message('control_change', channel=0, control=64, value=123, time=80),\n",
      "    Message('control_change', channel=0, control=64, value=122, time=160),\n",
      "    Message('control_change', channel=0, control=64, value=123, time=80),\n",
      "    Message('control_change', channel=0, control=64, value=122, time=160),\n",
      "    Message('control_change', channel=0, control=64, value=123, time=80),\n",
      "    Message('control_change', channel=0, control=64, value=122, time=160),\n",
      "    Message('control_change', channel=0, control=64, value=123, time=80),\n",
      "    Message('control_change', channel=0, control=64, value=122, time=160),\n",
      "    Message('control_change', channel=0, control=64, value=123, time=80),\n",
      "    Message('control_change', channel=0, control=64, value=122, time=160),\n",
      "    Message('control_change', channel=0, control=64, value=123, time=80),\n",
      "    Message('control_change', channel=0, control=64, value=122, time=320),\n",
      "    Message('control_change', channel=0, control=64, value=123, time=80),\n",
      "    Message('control_change', channel=0, control=64, value=122, time=160),\n",
      "    Message('control_change', channel=0, control=64, value=123, time=80),\n",
      "    Message('control_change', channel=0, control=64, value=122, time=160),\n",
      "    Message('control_change', channel=0, control=64, value=123, time=80),\n",
      "    Message('control_change', channel=0, control=64, value=122, time=80),\n",
      "    Message('control_change', channel=0, control=64, value=123, time=80),\n",
      "    Message('control_change', channel=0, control=64, value=122, time=160),\n",
      "    Message('control_change', channel=0, control=64, value=123, time=80),\n",
      "    Message('control_change', channel=0, control=64, value=122, time=160),\n",
      "    Message('control_change', channel=0, control=64, value=123, time=80),\n",
      "    Message('control_change', channel=0, control=64, value=122, time=400),\n",
      "    Message('control_change', channel=0, control=64, value=123, time=80),\n",
      "    Message('control_change', channel=0, control=64, value=122, time=160),\n",
      "    Message('control_change', channel=0, control=64, value=123, time=80),\n",
      "    Message('control_change', channel=0, control=64, value=122, time=240),\n",
      "    Message('control_change', channel=0, control=64, value=121, time=80),\n",
      "    Message('control_change', channel=0, control=64, value=117, time=80),\n",
      "    Message('control_change', channel=0, control=64, value=111, time=80),\n",
      "    Message('control_change', channel=0, control=64, value=103, time=80),\n",
      "    Message('control_change', channel=0, control=64, value=93, time=80),\n",
      "    Message('control_change', channel=0, control=64, value=82, time=80),\n",
      "    Message('control_change', channel=0, control=64, value=73, time=80),\n",
      "    Message('control_change', channel=0, control=64, value=64, time=80),\n",
      "    Message('control_change', channel=0, control=64, value=50, time=80),\n",
      "    Message('control_change', channel=0, control=64, value=33, time=80),\n",
      "    Message('control_change', channel=0, control=64, value=19, time=80),\n",
      "    Message('control_change', channel=0, control=64, value=11, time=80),\n",
      "    Message('control_change', channel=0, control=64, value=9, time=80),\n",
      "    Message('control_change', channel=0, control=64, value=6, time=80),\n",
      "    Message('control_change', channel=0, control=64, value=2, time=80),\n",
      "    Message('control_change', channel=0, control=64, value=3, time=720),\n",
      "    Message('control_change', channel=0, control=64, value=7, time=80),\n",
      "    Message('control_change', channel=0, control=64, value=12, time=80),\n",
      "    Message('control_change', channel=0, control=64, value=13, time=80),\n",
      "    Message('control_change', channel=0, control=64, value=16, time=80),\n",
      "    Message('control_change', channel=0, control=64, value=21, time=80),\n",
      "    Message('control_change', channel=0, control=64, value=25, time=80),\n",
      "    Message('control_change', channel=0, control=64, value=27, time=80),\n",
      "    Message('control_change', channel=0, control=64, value=30, time=80),\n",
      "    Message('control_change', channel=0, control=64, value=35, time=80),\n",
      "    Message('control_change', channel=0, control=64, value=41, time=80),\n",
      "    Message('control_change', channel=0, control=64, value=47, time=80),\n",
      "    Message('control_change', channel=0, control=64, value=52, time=80),\n",
      "    Message('control_change', channel=0, control=64, value=57, time=80),\n",
      "    Message('control_change', channel=0, control=64, value=62, time=80),\n",
      "    Message('control_change', channel=0, control=64, value=67, time=80),\n",
      "    Message('control_change', channel=0, control=64, value=75, time=80),\n",
      "    Message('control_change', channel=0, control=64, value=82, time=80),\n",
      "    Message('control_change', channel=0, control=64, value=89, time=80),\n",
      "    Message('control_change', channel=0, control=64, value=96, time=80),\n",
      "    Message('control_change', channel=0, control=64, value=101, time=80),\n",
      "    Message('control_change', channel=0, control=64, value=105, time=80),\n",
      "    Message('control_change', channel=0, control=64, value=108, time=80),\n",
      "    Message('control_change', channel=0, control=64, value=109, time=80),\n",
      "    Message('control_change', channel=0, control=64, value=110, time=80),\n",
      "    Message('control_change', channel=0, control=64, value=110, time=560),\n",
      "    Message('control_change', channel=0, control=64, value=111, time=160),\n",
      "    Message('control_change', channel=0, control=64, value=111, time=80),\n",
      "    Message('control_change', channel=0, control=64, value=112, time=320),\n",
      "    Message('control_change', channel=0, control=64, value=112, time=2160),\n",
      "    Message('control_change', channel=0, control=64, value=113, time=240),\n",
      "    Message('control_change', channel=0, control=64, value=113, time=400),\n",
      "    Message('control_change', channel=0, control=64, value=114, time=880),\n",
      "    Message('control_change', channel=0, control=64, value=113, time=80),\n",
      "    Message('control_change', channel=0, control=64, value=114, time=240),\n",
      "    Message('control_change', channel=0, control=64, value=113, time=160),\n",
      "    Message('control_change', channel=0, control=64, value=114, time=160),\n",
      "    Message('control_change', channel=0, control=64, value=113, time=80),\n",
      "    Message('control_change', channel=0, control=64, value=114, time=160),\n",
      "    Message('control_change', channel=0, control=64, value=113, time=80),\n",
      "    Message('control_change', channel=0, control=64, value=114, time=160),\n",
      "    Message('control_change', channel=0, control=64, value=113, time=80),\n",
      "    Message('control_change', channel=0, control=64, value=114, time=160),\n",
      "    Message('control_change', channel=0, control=64, value=113, time=80),\n",
      "    Message('control_change', channel=0, control=64, value=114, time=160),\n",
      "    Message('control_change', channel=0, control=64, value=113, time=80),\n",
      "    Message('control_change', channel=0, control=64, value=114, time=160),\n",
      "    Message('control_change', channel=0, control=64, value=113, time=80),\n",
      "    Message('control_change', channel=0, control=64, value=114, time=80),\n",
      "    Message('control_change', channel=0, control=64, value=114, time=320),\n",
      "    Message('control_change', channel=0, control=64, value=113, time=3440),\n",
      "    Message('control_change', channel=0, control=64, value=108, time=80),\n",
      "    Message('control_change', channel=0, control=64, value=96, time=80),\n",
      "    Message('control_change', channel=0, control=64, value=78, time=80),\n",
      "    Message('control_change', channel=0, control=64, value=61, time=80),\n",
      "    Message('control_change', channel=0, control=64, value=47, time=80),\n",
      "    Message('control_change', channel=0, control=64, value=34, time=80),\n",
      "    Message('control_change', channel=0, control=64, value=22, time=80),\n",
      "    Message('control_change', channel=0, control=64, value=15, time=80),\n",
      "    Message('control_change', channel=0, control=64, value=13, time=80),\n",
      "    Message('control_change', channel=0, control=64, value=13, time=160),\n",
      "    Message('control_change', channel=0, control=64, value=13, time=80),\n",
      "    Message('control_change', channel=0, control=64, value=15, time=160),\n",
      "    Message('control_change', channel=0, control=64, value=17, time=80),\n",
      "    Message('control_change', channel=0, control=64, value=19, time=80),\n",
      "    Message('control_change', channel=0, control=64, value=23, time=80),\n",
      "    Message('control_change', channel=0, control=64, value=27, time=80),\n",
      "    Message('control_change', channel=0, control=64, value=31, time=80),\n",
      "    Message('control_change', channel=0, control=64, value=35, time=80),\n",
      "    Message('control_change', channel=0, control=64, value=42, time=80),\n",
      "    Message('control_change', channel=0, control=64, value=52, time=80),\n",
      "    Message('control_change', channel=0, control=64, value=64, time=80),\n",
      "    Message('control_change', channel=0, control=64, value=77, time=80),\n",
      "    Message('control_change', channel=0, control=64, value=89, time=80),\n",
      "    Message('control_change', channel=0, control=64, value=100, time=80),\n",
      "    Message('control_change', channel=0, control=64, value=110, time=80),\n",
      "    Message('control_change', channel=0, control=64, value=118, time=80),\n",
      "    Message('control_change', channel=0, control=64, value=122, time=80),\n",
      "    Message('control_change', channel=0, control=64, value=122, time=80),\n",
      "    Message('control_change', channel=0, control=64, value=123, time=6240),\n",
      "    Message('control_change', channel=0, control=64, value=123, time=160),\n",
      "    Message('control_change', channel=0, control=64, value=124, time=240),\n",
      "    Message('control_change', channel=0, control=64, value=124, time=80),\n",
      "    Message('control_change', channel=0, control=64, value=125, time=160),\n",
      "    Message('control_change', channel=0, control=64, value=125, time=160),\n",
      "    Message('control_change', channel=0, control=64, value=126, time=240),\n",
      "    Message('control_change', channel=0, control=64, value=126, time=160),\n",
      "    Message('control_change', channel=0, control=64, value=127, time=320),\n",
      "    Message('control_change', channel=0, control=64, value=127, time=1040),\n",
      "    Message('control_change', channel=0, control=64, value=126, time=3280),\n",
      "    Message('control_change', channel=0, control=64, value=120, time=80),\n",
      "    Message('control_change', channel=0, control=64, value=108, time=80),\n",
      "    Message('control_change', channel=0, control=64, value=91, time=80),\n",
      "    Message('control_change', channel=0, control=64, value=71, time=80),\n",
      "    Message('control_change', channel=0, control=64, value=55, time=80),\n",
      "    Message('control_change', channel=0, control=64, value=40, time=80),\n",
      "    Message('control_change', channel=0, control=64, value=25, time=80),\n",
      "    Message('control_change', channel=0, control=64, value=14, time=80),\n",
      "    Message('control_change', channel=0, control=64, value=10, time=80),\n",
      "    Message('control_change', channel=0, control=64, value=9, time=80),\n",
      "    Message('control_change', channel=0, control=64, value=7, time=80),\n",
      "    Message('control_change', channel=0, control=64, value=7, time=80),\n",
      "    Message('control_change', channel=0, control=64, value=8, time=240),\n",
      "    Message('control_change', channel=0, control=64, value=11, time=80),\n",
      "    Message('control_change', channel=0, control=64, value=14, time=80),\n",
      "    Message('control_change', channel=0, control=64, value=16, time=80),\n",
      "    Message('control_change', channel=0, control=64, value=20, time=80),\n",
      "    Message('control_change', channel=0, control=64, value=25, time=80),\n",
      "    Message('control_change', channel=0, control=64, value=30, time=80),\n",
      "    Message('control_change', channel=0, control=64, value=37, time=80),\n",
      "    Message('control_change', channel=0, control=64, value=48, time=80),\n",
      "    Message('control_change', channel=0, control=64, value=62, time=80),\n",
      "    Message('control_change', channel=0, control=64, value=77, time=80),\n",
      "    Message('control_change', channel=0, control=64, value=91, time=80),\n",
      "    Message('control_change', channel=0, control=64, value=104, time=80),\n",
      "    Message('control_change', channel=0, control=64, value=116, time=80),\n",
      "    Message('control_change', channel=0, control=64, value=123, time=80),\n",
      "    Message('control_change', channel=0, control=64, value=127, time=80),\n",
      "    Message('control_change', channel=0, control=64, value=127, time=1120),\n",
      "    Message('control_change', channel=0, control=64, value=125, time=3600),\n",
      "    Message('control_change', channel=0, control=64, value=116, time=80),\n",
      "    Message('control_change', channel=0, control=64, value=98, time=80),\n",
      "    Message('control_change', channel=0, control=64, value=76, time=80),\n",
      "    Message('control_change', channel=0, control=64, value=58, time=80),\n",
      "    Message('control_change', channel=0, control=64, value=46, time=80),\n",
      "    Message('control_change', channel=0, control=64, value=36, time=80),\n",
      "    Message('control_change', channel=0, control=64, value=28, time=80),\n",
      "    Message('control_change', channel=0, control=64, value=22, time=80),\n",
      "    Message('control_change', channel=0, control=64, value=23, time=240),\n",
      "    Message('control_change', channel=0, control=64, value=26, time=80),\n",
      "    Message('control_change', channel=0, control=64, value=31, time=80),\n",
      "    Message('control_change', channel=0, control=64, value=38, time=80),\n",
      "    Message('control_change', channel=0, control=64, value=45, time=80),\n",
      "    Message('control_change', channel=0, control=64, value=56, time=80),\n",
      "    Message('control_change', channel=0, control=64, value=70, time=80),\n",
      "    Message('control_change', channel=0, control=64, value=86, time=80),\n",
      "    Message('control_change', channel=0, control=64, value=102, time=80),\n",
      "    Message('control_change', channel=0, control=64, value=115, time=80),\n",
      "    Message('control_change', channel=0, control=64, value=125, time=80),\n",
      "    Message('control_change', channel=0, control=64, value=127, time=80),\n",
      "    Message('control_change', channel=0, control=64, value=122, time=2640),\n",
      "    Message('control_change', channel=0, control=64, value=106, time=80),\n",
      "    Message('control_change', channel=0, control=64, value=79, time=80),\n",
      "    Message('control_change', channel=0, control=64, value=48, time=80),\n",
      "    Message('control_change', channel=0, control=64, value=23, time=80),\n",
      "    Message('control_change', channel=0, control=64, value=10, time=80),\n",
      "    Message('control_change', channel=0, control=64, value=6, time=80),\n",
      "    Message('control_change', channel=0, control=64, value=3, time=80),\n",
      "    Message('control_change', channel=0, control=64, value=1, time=80),\n",
      "    Message('control_change', channel=0, control=64, value=2, time=160),\n",
      "    Message('control_change', channel=0, control=64, value=8, time=80),\n",
      "    Message('control_change', channel=0, control=64, value=14, time=80),\n",
      "    Message('control_change', channel=0, control=64, value=17, time=80),\n",
      "    Message('control_change', channel=0, control=64, value=23, time=80),\n",
      "    Message('control_change', channel=0, control=64, value=31, time=80),\n",
      "    Message('control_change', channel=0, control=64, value=43, time=80),\n",
      "    Message('control_change', channel=0, control=64, value=57, time=80),\n",
      "    Message('control_change', channel=0, control=64, value=73, time=80),\n",
      "    Message('control_change', channel=0, control=64, value=89, time=80),\n",
      "    Message('control_change', channel=0, control=64, value=104, time=80),\n",
      "    Message('control_change', channel=0, control=64, value=117, time=80),\n",
      "    Message('control_change', channel=0, control=64, value=126, time=80),\n",
      "    Message('control_change', channel=0, control=64, value=127, time=80),\n",
      "    Message('control_change', channel=0, control=64, value=124, time=5040),\n",
      "    Message('control_change', channel=0, control=64, value=120, time=80),\n",
      "    Message('control_change', channel=0, control=64, value=116, time=80),\n",
      "    Message('control_change', channel=0, control=64, value=112, time=80),\n",
      "    Message('control_change', channel=0, control=64, value=107, time=80),\n",
      "    Message('control_change', channel=0, control=64, value=100, time=80),\n",
      "    Message('control_change', channel=0, control=64, value=92, time=80),\n",
      "    Message('control_change', channel=0, control=64, value=85, time=80),\n",
      "    Message('control_change', channel=0, control=64, value=80, time=80),\n",
      "    Message('control_change', channel=0, control=64, value=76, time=80),\n",
      "    Message('control_change', channel=0, control=64, value=69, time=80),\n",
      "    Message('control_change', channel=0, control=64, value=60, time=80),\n",
      "    Message('control_change', channel=0, control=64, value=52, time=80),\n",
      "    Message('control_change', channel=0, control=64, value=45, time=80),\n",
      "    Message('control_change', channel=0, control=64, value=41, time=80),\n",
      "    Message('control_change', channel=0, control=64, value=36, time=80),\n",
      "    Message('control_change', channel=0, control=64, value=30, time=80),\n",
      "    Message('control_change', channel=0, control=64, value=24, time=80),\n",
      "    Message('control_change', channel=0, control=64, value=20, time=80),\n",
      "    Message('control_change', channel=0, control=64, value=17, time=80),\n",
      "    Message('control_change', channel=0, control=64, value=15, time=80),\n",
      "    Message('control_change', channel=0, control=64, value=12, time=80),\n",
      "    Message('control_change', channel=0, control=64, value=10, time=80),\n",
      "    Message('control_change', channel=0, control=64, value=8, time=80),\n",
      "    Message('control_change', channel=0, control=64, value=6, time=80),\n",
      "    Message('control_change', channel=0, control=64, value=6, time=80),\n",
      "    Message('control_change', channel=0, control=64, value=6, time=3680),\n",
      "    Message('control_change', channel=0, control=64, value=9, time=80),\n",
      "    Message('control_change', channel=0, control=64, value=12, time=80),\n",
      "    Message('control_change', channel=0, control=64, value=14, time=160),\n",
      "    Message('control_change', channel=0, control=64, value=16, time=80),\n",
      "    Message('control_change', channel=0, control=64, value=18, time=80),\n",
      "    Message('control_change', channel=0, control=64, value=20, time=80),\n",
      "    Message('control_change', channel=0, control=64, value=22, time=80),\n",
      "    Message('control_change', channel=0, control=64, value=25, time=80),\n",
      "    Message('control_change', channel=0, control=64, value=27, time=80),\n",
      "    Message('control_change', channel=0, control=64, value=28, time=80),\n",
      "    Message('control_change', channel=0, control=64, value=31, time=80),\n",
      "    Message('control_change', channel=0, control=64, value=35, time=80),\n",
      "    Message('control_change', channel=0, control=64, value=39, time=80),\n",
      "    Message('control_change', channel=0, control=64, value=44, time=80),\n",
      "    Message('control_change', channel=0, control=64, value=48, time=80),\n",
      "    Message('control_change', channel=0, control=64, value=53, time=80),\n",
      "    Message('control_change', channel=0, control=64, value=60, time=80),\n",
      "    Message('control_change', channel=0, control=64, value=67, time=80),\n",
      "    Message('control_change', channel=0, control=64, value=75, time=80),\n",
      "    Message('control_change', channel=0, control=64, value=83, time=80),\n",
      "    Message('control_change', channel=0, control=64, value=91, time=80),\n",
      "    Message('control_change', channel=0, control=64, value=97, time=80),\n",
      "    Message('control_change', channel=0, control=64, value=102, time=80),\n",
      "    Message('control_change', channel=0, control=64, value=105, time=80),\n",
      "    Message('control_change', channel=0, control=64, value=107, time=80),\n",
      "    Message('control_change', channel=0, control=64, value=108, time=80),\n",
      "    Message('control_change', channel=0, control=64, value=107, time=80),\n",
      "    Message('control_change', channel=0, control=64, value=108, time=240),\n",
      "    Message('control_change', channel=0, control=64, value=108, time=160),\n",
      "    Message('control_change', channel=0, control=64, value=109, time=160),\n",
      "    Message('control_change', channel=0, control=64, value=110, time=80),\n",
      "    Message('control_change', channel=0, control=64, value=111, time=80),\n",
      "    Message('control_change', channel=0, control=64, value=113, time=80),\n",
      "    Message('control_change', channel=0, control=64, value=114, time=80),\n",
      "    Message('control_change', channel=0, control=64, value=115, time=80),\n",
      "    Message('control_change', channel=0, control=64, value=115, time=2160),\n",
      "    Message('control_change', channel=0, control=64, value=115, time=10160),\n",
      "    Message('control_change', channel=0, control=64, value=114, time=3840),\n",
      "    Message('control_change', channel=0, control=64, value=109, time=80),\n",
      "    Message('control_change', channel=0, control=64, value=97, time=80),\n",
      "    Message('control_change', channel=0, control=64, value=80, time=80),\n",
      "    Message('control_change', channel=0, control=64, value=66, time=80),\n",
      "    Message('control_change', channel=0, control=64, value=56, time=80),\n",
      "    Message('control_change', channel=0, control=64, value=47, time=80),\n",
      "    Message('control_change', channel=0, control=64, value=36, time=80),\n",
      "    Message('control_change', channel=0, control=64, value=28, time=80),\n",
      "    Message('control_change', channel=0, control=64, value=24, time=80),\n",
      "    Message('control_change', channel=0, control=64, value=25, time=400),\n",
      "    Message('control_change', channel=0, control=64, value=28, time=80),\n",
      "    Message('control_change', channel=0, control=64, value=31, time=80),\n",
      "    Message('control_change', channel=0, control=64, value=35, time=80),\n",
      "    Message('control_change', channel=0, control=64, value=39, time=80),\n",
      "    Message('control_change', channel=0, control=64, value=43, time=80),\n",
      "    Message('control_change', channel=0, control=64, value=50, time=80),\n",
      "    Message('control_change', channel=0, control=64, value=61, time=80),\n",
      "    Message('control_change', channel=0, control=64, value=73, time=80),\n",
      "    Message('control_change', channel=0, control=64, value=85, time=80),\n",
      "    Message('control_change', channel=0, control=64, value=97, time=80),\n",
      "    Message('control_change', channel=0, control=64, value=109, time=80),\n",
      "    Message('control_change', channel=0, control=64, value=120, time=80),\n",
      "    Message('control_change', channel=0, control=64, value=125, time=80),\n",
      "    Message('control_change', channel=0, control=64, value=127, time=80),\n",
      "    Message('control_change', channel=0, control=64, value=125, time=1600),\n",
      "    Message('control_change', channel=0, control=64, value=120, time=80),\n",
      "    Message('control_change', channel=0, control=64, value=109, time=80),\n",
      "    Message('control_change', channel=0, control=64, value=92, time=80),\n",
      "    Message('control_change', channel=0, control=64, value=74, time=80),\n",
      "    Message('control_change', channel=0, control=64, value=59, time=80),\n",
      "    Message('control_change', channel=0, control=64, value=48, time=80),\n",
      "    Message('control_change', channel=0, control=64, value=36, time=80),\n",
      "    Message('control_change', channel=0, control=64, value=27, time=80),\n",
      "    Message('control_change', channel=0, control=64, value=22, time=80),\n",
      "    Message('control_change', channel=0, control=64, value=22, time=240),\n",
      "    Message('control_change', channel=0, control=64, value=26, time=80),\n",
      "    Message('control_change', channel=0, control=64, value=31, time=80),\n",
      "    Message('control_change', channel=0, control=64, value=38, time=80),\n",
      "    Message('control_change', channel=0, control=64, value=45, time=80),\n",
      "    Message('control_change', channel=0, control=64, value=56, time=80),\n",
      "    Message('control_change', channel=0, control=64, value=69, time=80),\n",
      "    Message('control_change', channel=0, control=64, value=83, time=80),\n",
      "    Message('control_change', channel=0, control=64, value=97, time=80),\n",
      "    Message('control_change', channel=0, control=64, value=109, time=80),\n",
      "    Message('control_change', channel=0, control=64, value=118, time=80),\n",
      "    Message('control_change', channel=0, control=64, value=122, time=80),\n",
      "    Message('control_change', channel=0, control=64, value=122, time=2640),\n",
      "    Message('control_change', channel=0, control=64, value=121, time=80),\n",
      "    Message('control_change', channel=0, control=64, value=121, time=80),\n",
      "    Message('control_change', channel=0, control=64, value=120, time=160),\n",
      "    Message('control_change', channel=0, control=64, value=120, time=80),\n",
      "    Message('control_change', channel=0, control=64, value=119, time=80),\n",
      "    Message('control_change', channel=0, control=64, value=118, time=80),\n",
      "    Message('control_change', channel=0, control=64, value=117, time=80),\n",
      "    Message('control_change', channel=0, control=64, value=116, time=80),\n",
      "    Message('control_change', channel=0, control=64, value=115, time=80),\n",
      "    Message('control_change', channel=0, control=64, value=113, time=80),\n",
      "    Message('control_change', channel=0, control=64, value=112, time=80),\n",
      "    Message('control_change', channel=0, control=64, value=109, time=80),\n",
      "    Message('control_change', channel=0, control=64, value=107, time=80),\n",
      "    Message('control_change', channel=0, control=64, value=104, time=80),\n",
      "    Message('control_change', channel=0, control=64, value=101, time=80),\n",
      "    Message('control_change', channel=0, control=64, value=98, time=80),\n",
      "    Message('control_change', channel=0, control=64, value=94, time=80),\n",
      "    Message('control_change', channel=0, control=64, value=90, time=80),\n",
      "    Message('control_change', channel=0, control=64, value=87, time=80),\n",
      "    Message('control_change', channel=0, control=64, value=87, time=80),\n",
      "    Message('control_change', channel=0, control=64, value=86, time=80),\n",
      "    Message('control_change', channel=0, control=64, value=84, time=80),\n",
      "    Message('control_change', channel=0, control=64, value=81, time=80),\n",
      "    Message('control_change', channel=0, control=64, value=78, time=80),\n",
      "    Message('control_change', channel=0, control=64, value=76, time=80),\n",
      "    Message('control_change', channel=0, control=64, value=73, time=80),\n",
      "    Message('control_change', channel=0, control=64, value=69, time=80),\n",
      "    Message('control_change', channel=0, control=64, value=65, time=80),\n",
      "    Message('control_change', channel=0, control=64, value=61, time=80),\n",
      "    Message('control_change', channel=0, control=64, value=57, time=80),\n",
      "    Message('control_change', channel=0, control=64, value=53, time=80),\n",
      "    Message('control_change', channel=0, control=64, value=50, time=80),\n",
      "    Message('control_change', channel=0, control=64, value=47, time=80),\n",
      "    Message('control_change', channel=0, control=64, value=44, time=80),\n",
      "    Message('control_change', channel=0, control=64, value=42, time=80),\n",
      "    Message('control_change', channel=0, control=64, value=41, time=80),\n",
      "    Message('control_change', channel=0, control=64, value=39, time=80),\n",
      "    Message('control_change', channel=0, control=64, value=39, time=80),\n",
      "    Message('control_change', channel=0, control=64, value=38, time=80),\n",
      "    Message('control_change', channel=0, control=64, value=37, time=80),\n",
      "    Message('control_change', channel=0, control=64, value=36, time=80),\n",
      "    Message('control_change', channel=0, control=64, value=36, time=80),\n",
      "    Message('control_change', channel=0, control=64, value=35, time=80),\n",
      "    Message('control_change', channel=0, control=64, value=34, time=80),\n",
      "    Message('control_change', channel=0, control=64, value=33, time=80),\n",
      "    Message('control_change', channel=0, control=64, value=32, time=80),\n",
      "    Message('control_change', channel=0, control=64, value=30, time=80),\n",
      "    Message('control_change', channel=0, control=64, value=29, time=80),\n",
      "    Message('control_change', channel=0, control=64, value=28, time=80),\n",
      "    Message('control_change', channel=0, control=64, value=27, time=80),\n",
      "    Message('control_change', channel=0, control=64, value=26, time=80),\n",
      "    Message('control_change', channel=0, control=64, value=25, time=80),\n",
      "    Message('control_change', channel=0, control=64, value=25, time=80),\n",
      "    Message('control_change', channel=0, control=64, value=24, time=80),\n",
      "    Message('control_change', channel=0, control=64, value=24, time=80),\n",
      "    Message('control_change', channel=0, control=64, value=23, time=80),\n",
      "    Message('control_change', channel=0, control=64, value=22, time=80),\n",
      "    Message('control_change', channel=0, control=64, value=22, time=80),\n",
      "    Message('control_change', channel=0, control=64, value=21, time=80),\n",
      "    Message('control_change', channel=0, control=64, value=21, time=80),\n",
      "    Message('control_change', channel=0, control=64, value=20, time=160),\n",
      "    Message('control_change', channel=0, control=64, value=20, time=80),\n",
      "    Message('control_change', channel=0, control=64, value=19, time=80),\n",
      "    Message('control_change', channel=0, control=64, value=19, time=80),\n",
      "    Message('control_change', channel=0, control=64, value=18, time=160),\n",
      "    Message('control_change', channel=0, control=64, value=19, time=960),\n",
      "    Message('control_change', channel=0, control=64, value=21, time=80),\n",
      "    Message('control_change', channel=0, control=64, value=22, time=80),\n",
      "    Message('control_change', channel=0, control=64, value=24, time=80),\n",
      "    Message('control_change', channel=0, control=64, value=27, time=80),\n",
      "    Message('control_change', channel=0, control=64, value=30, time=80),\n",
      "    Message('control_change', channel=0, control=64, value=33, time=80),\n",
      "    Message('control_change', channel=0, control=64, value=33, time=80),\n",
      "    Message('control_change', channel=0, control=64, value=34, time=80),\n",
      "    Message('control_change', channel=0, control=64, value=35, time=80),\n",
      "    Message('control_change', channel=0, control=64, value=37, time=80),\n",
      "    Message('control_change', channel=0, control=64, value=39, time=80),\n",
      "    Message('control_change', channel=0, control=64, value=42, time=80),\n",
      "    Message('control_change', channel=0, control=64, value=44, time=80),\n",
      "    Message('control_change', channel=0, control=64, value=47, time=80),\n",
      "    Message('control_change', channel=0, control=64, value=51, time=80),\n",
      "    Message('control_change', channel=0, control=64, value=55, time=80),\n",
      "    Message('control_change', channel=0, control=64, value=59, time=80),\n",
      "    Message('control_change', channel=0, control=64, value=63, time=80),\n",
      "    Message('control_change', channel=0, control=64, value=67, time=80),\n",
      "    Message('control_change', channel=0, control=64, value=70, time=80),\n",
      "    Message('control_change', channel=0, control=64, value=74, time=80),\n",
      "    Message('control_change', channel=0, control=64, value=77, time=80),\n",
      "    Message('control_change', channel=0, control=64, value=80, time=80),\n",
      "    Message('control_change', channel=0, control=64, value=83, time=80),\n",
      "    Message('control_change', channel=0, control=64, value=86, time=80),\n",
      "    Message('control_change', channel=0, control=64, value=88, time=80),\n",
      "    Message('control_change', channel=0, control=64, value=90, time=80),\n",
      "    Message('control_change', channel=0, control=64, value=90, time=80),\n",
      "    Message('control_change', channel=0, control=64, value=91, time=480),\n",
      "    Message('control_change', channel=0, control=64, value=91, time=240),\n",
      "    Message('control_change', channel=0, control=64, value=92, time=80),\n",
      "    Message('control_change', channel=0, control=64, value=92, time=80),\n",
      "    Message('control_change', channel=0, control=64, value=93, time=80),\n",
      "    Message('control_change', channel=0, control=64, value=94, time=80),\n",
      "    Message('control_change', channel=0, control=64, value=94, time=80),\n",
      "    Message('control_change', channel=0, control=64, value=95, time=80),\n",
      "    Message('control_change', channel=0, control=64, value=95, time=80),\n",
      "    Message('control_change', channel=0, control=64, value=96, time=320),\n",
      "    Message('control_change', channel=0, control=64, value=96, time=80),\n",
      "    Message('control_change', channel=0, control=64, value=97, time=80),\n",
      "    Message('control_change', channel=0, control=64, value=98, time=80),\n",
      "    Message('control_change', channel=0, control=64, value=99, time=80),\n",
      "    Message('control_change', channel=0, control=64, value=100, time=80),\n",
      "    Message('control_change', channel=0, control=64, value=101, time=80),\n",
      "    Message('control_change', channel=0, control=64, value=102, time=80),\n",
      "    Message('control_change', channel=0, control=64, value=103, time=80),\n",
      "    Message('control_change', channel=0, control=64, value=103, time=80),\n",
      "    Message('control_change', channel=0, control=64, value=104, time=560),\n",
      "    Message('control_change', channel=0, control=64, value=105, time=80),\n",
      "    Message('control_change', channel=0, control=64, value=106, time=80),\n",
      "    Message('control_change', channel=0, control=64, value=107, time=80),\n",
      "    Message('control_change', channel=0, control=64, value=109, time=80),\n",
      "    Message('control_change', channel=0, control=64, value=110, time=80),\n",
      "    Message('control_change', channel=0, control=64, value=110, time=80),\n",
      "    Message('control_change', channel=0, control=64, value=111, time=1200),\n",
      "    Message('control_change', channel=0, control=64, value=111, time=480),\n",
      "    Message('control_change', channel=0, control=64, value=112, time=480),\n",
      "    Message('control_change', channel=0, control=64, value=112, time=160),\n",
      "    Message('control_change', channel=0, control=64, value=113, time=80),\n",
      "    Message('control_change', channel=0, control=64, value=113, time=80),\n",
      "    Message('control_change', channel=0, control=64, value=114, time=240),\n",
      "    Message('control_change', channel=0, control=64, value=112, time=3360),\n",
      "    Message('control_change', channel=0, control=64, value=106, time=80),\n",
      "    Message('control_change', channel=0, control=64, value=98, time=80),\n",
      "    Message('control_change', channel=0, control=64, value=86, time=80),\n",
      "    Message('control_change', channel=0, control=64, value=77, time=80),\n",
      "    Message('control_change', channel=0, control=64, value=71, time=80),\n",
      "    Message('control_change', channel=0, control=64, value=65, time=80),\n",
      "    Message('control_change', channel=0, control=64, value=56, time=80),\n",
      "    Message('control_change', channel=0, control=64, value=47, time=80),\n",
      "    Message('control_change', channel=0, control=64, value=41, time=80),\n",
      "    Message('control_change', channel=0, control=64, value=40, time=80),\n",
      "    Message('control_change', channel=0, control=64, value=39, time=160),\n",
      "    Message('control_change', channel=0, control=64, value=40, time=400),\n",
      "    Message('control_change', channel=0, control=64, value=42, time=80),\n",
      "    Message('control_change', channel=0, control=64, value=44, time=80),\n",
      "    Message('control_change', channel=0, control=64, value=46, time=80),\n",
      "    Message('control_change', channel=0, control=64, value=47, time=80),\n",
      "    Message('control_change', channel=0, control=64, value=48, time=80),\n",
      "    Message('control_change', channel=0, control=64, value=52, time=80),\n",
      "    Message('control_change', channel=0, control=64, value=58, time=80),\n",
      "    Message('control_change', channel=0, control=64, value=67, time=80),\n",
      "    Message('control_change', channel=0, control=64, value=76, time=80),\n",
      "    Message('control_change', channel=0, control=64, value=86, time=80),\n",
      "    Message('control_change', channel=0, control=64, value=96, time=80),\n",
      "    Message('control_change', channel=0, control=64, value=103, time=80),\n",
      "    Message('control_change', channel=0, control=64, value=110, time=80),\n",
      "    Message('control_change', channel=0, control=64, value=116, time=80),\n",
      "    Message('control_change', channel=0, control=64, value=116, time=80),\n",
      "    Message('control_change', channel=0, control=64, value=117, time=320),\n",
      "    Message('control_change', channel=0, control=64, value=116, time=80),\n",
      "    Message('control_change', channel=0, control=64, value=117, time=160),\n",
      "    Message('control_change', channel=0, control=64, value=116, time=160),\n",
      "    Message('control_change', channel=0, control=64, value=116, time=80),\n",
      "    Message('control_change', channel=0, control=64, value=111, time=80),\n",
      "    Message('control_change', channel=0, control=64, value=101, time=80),\n",
      "    Message('control_change', channel=0, control=64, value=85, time=80),\n",
      "    Message('control_change', channel=0, control=64, value=71, time=80),\n",
      "    Message('control_change', channel=0, control=64, value=63, time=80),\n",
      "    Message('control_change', channel=0, control=64, value=56, time=80),\n",
      "    Message('control_change', channel=0, control=64, value=47, time=80),\n",
      "    Message('control_change', channel=0, control=64, value=39, time=80),\n",
      "    Message('control_change', channel=0, control=64, value=36, time=80),\n",
      "    Message('control_change', channel=0, control=64, value=36, time=80),\n",
      "    Message('control_change', channel=0, control=64, value=36, time=160),\n",
      "    Message('control_change', channel=0, control=64, value=38, time=80),\n",
      "    Message('control_change', channel=0, control=64, value=42, time=80),\n",
      "    Message('control_change', channel=0, control=64, value=46, time=80),\n",
      "    Message('control_change', channel=0, control=64, value=50, time=80),\n",
      "    Message('control_change', channel=0, control=64, value=55, time=80),\n",
      "    Message('control_change', channel=0, control=64, value=65, time=80),\n",
      "    Message('control_change', channel=0, control=64, value=78, time=80),\n",
      "    Message('control_change', channel=0, control=64, value=91, time=80),\n",
      "    Message('control_change', channel=0, control=64, value=103, time=80),\n",
      "    Message('control_change', channel=0, control=64, value=114, time=80),\n",
      "    Message('control_change', channel=0, control=64, value=121, time=80),\n",
      "    Message('control_change', channel=0, control=64, value=124, time=80),\n",
      "    Message('control_change', channel=0, control=64, value=123, time=1280),\n",
      "    Message('control_change', channel=0, control=64, value=120, time=80),\n",
      "    Message('control_change', channel=0, control=64, value=112, time=80),\n",
      "    Message('control_change', channel=0, control=64, value=96, time=80),\n",
      "    Message('control_change', channel=0, control=64, value=76, time=80),\n",
      "    Message('control_change', channel=0, control=64, value=58, time=80),\n",
      "    Message('control_change', channel=0, control=64, value=44, time=80),\n",
      "    Message('control_change', channel=0, control=64, value=31, time=80),\n",
      "    Message('control_change', channel=0, control=64, value=21, time=80),\n",
      "    Message('control_change', channel=0, control=64, value=16, time=80),\n",
      "    Message('control_change', channel=0, control=64, value=18, time=480),\n",
      "    Message('control_change', channel=0, control=64, value=20, time=80),\n",
      "    Message('control_change', channel=0, control=64, value=22, time=80),\n",
      "    Message('control_change', channel=0, control=64, value=27, time=80),\n",
      "    Message('control_change', channel=0, control=64, value=31, time=80),\n",
      "    Message('control_change', channel=0, control=64, value=37, time=80),\n",
      "    Message('control_change', channel=0, control=64, value=43, time=80),\n",
      "    Message('control_change', channel=0, control=64, value=51, time=80),\n",
      "    Message('control_change', channel=0, control=64, value=62, time=80),\n",
      "    Message('control_change', channel=0, control=64, value=75, time=80),\n",
      "    Message('control_change', channel=0, control=64, value=87, time=80),\n",
      "    Message('control_change', channel=0, control=64, value=100, time=80),\n",
      "    Message('control_change', channel=0, control=64, value=111, time=80),\n",
      "    Message('control_change', channel=0, control=64, value=119, time=80),\n",
      "    Message('control_change', channel=0, control=64, value=122, time=80),\n",
      "    Message('control_change', channel=0, control=64, value=122, time=160),\n",
      "    Message('control_change', channel=0, control=64, value=122, time=80),\n",
      "    Message('control_change', channel=0, control=64, value=122, time=240),\n",
      "    Message('control_change', channel=0, control=64, value=122, time=80),\n",
      "    Message('control_change', channel=0, control=64, value=122, time=160),\n",
      "    Message('control_change', channel=0, control=64, value=122, time=320),\n",
      "    Message('control_change', channel=0, control=64, value=122, time=160),\n",
      "    Message('control_change', channel=0, control=64, value=122, time=160),\n",
      "    Message('control_change', channel=0, control=64, value=119, time=80),\n",
      "    Message('control_change', channel=0, control=64, value=111, time=80),\n",
      "    Message('control_change', channel=0, control=64, value=97, time=80),\n",
      "    Message('control_change', channel=0, control=64, value=80, time=80),\n",
      "    Message('control_change', channel=0, control=64, value=66, time=80),\n",
      "    Message('control_change', channel=0, control=64, value=57, time=80),\n",
      "    Message('control_change', channel=0, control=64, value=48, time=80),\n",
      "    Message('control_change', channel=0, control=64, value=39, time=80),\n",
      "    Message('control_change', channel=0, control=64, value=33, time=80),\n",
      "    Message('control_change', channel=0, control=64, value=33, time=80),\n",
      "    Message('control_change', channel=0, control=64, value=33, time=80),\n",
      "    Message('control_change', channel=0, control=64, value=35, time=80),\n",
      "    Message('control_change', channel=0, control=64, value=39, time=80),\n",
      "    Message('control_change', channel=0, control=64, value=44, time=80),\n",
      "    Message('control_change', channel=0, control=64, value=50, time=80),\n",
      "    Message('control_change', channel=0, control=64, value=57, time=80),\n",
      "    Message('control_change', channel=0, control=64, value=67, time=80),\n",
      "    Message('control_change', channel=0, control=64, value=79, time=80),\n",
      "    Message('control_change', channel=0, control=64, value=92, time=80),\n",
      "    Message('control_change', channel=0, control=64, value=102, time=80),\n",
      "    Message('control_change', channel=0, control=64, value=110, time=80),\n",
      "    Message('control_change', channel=0, control=64, value=115, time=80),\n",
      "    Message('control_change', channel=0, control=64, value=116, time=80),\n",
      "    Message('control_change', channel=0, control=64, value=116, time=2960),\n",
      "    Message('control_change', channel=0, control=64, value=115, time=80),\n",
      "    Message('control_change', channel=0, control=64, value=114, time=80),\n",
      "    Message('control_change', channel=0, control=64, value=112, time=80),\n",
      "    Message('control_change', channel=0, control=64, value=110, time=80),\n",
      "    Message('control_change', channel=0, control=64, value=108, time=80),\n",
      "    Message('control_change', channel=0, control=64, value=106, time=80),\n",
      "    Message('control_change', channel=0, control=64, value=102, time=80),\n",
      "    Message('control_change', channel=0, control=64, value=99, time=80),\n",
      "    Message('control_change', channel=0, control=64, value=95, time=80),\n",
      "    Message('control_change', channel=0, control=64, value=91, time=80),\n",
      "    Message('control_change', channel=0, control=64, value=88, time=80),\n",
      "    Message('control_change', channel=0, control=64, value=86, time=80),\n",
      "    Message('control_change', channel=0, control=64, value=85, time=80),\n",
      "    Message('control_change', channel=0, control=64, value=82, time=80),\n",
      "    Message('control_change', channel=0, control=64, value=77, time=80),\n",
      "    Message('control_change', channel=0, control=64, value=72, time=80),\n",
      "    Message('control_change', channel=0, control=64, value=68, time=80),\n",
      "    Message('control_change', channel=0, control=64, value=65, time=80),\n",
      "    Message('control_change', channel=0, control=64, value=61, time=80),\n",
      "    Message('control_change', channel=0, control=64, value=56, time=80),\n",
      "    Message('control_change', channel=0, control=64, value=49, time=80),\n",
      "    Message('control_change', channel=0, control=64, value=43, time=80),\n",
      "    Message('control_change', channel=0, control=64, value=37, time=80),\n",
      "    Message('control_change', channel=0, control=64, value=30, time=80),\n",
      "    Message('control_change', channel=0, control=64, value=24, time=80),\n",
      "    Message('control_change', channel=0, control=64, value=19, time=80),\n",
      "    Message('control_change', channel=0, control=64, value=18, time=80),\n",
      "    Message('control_change', channel=0, control=64, value=16, time=80),\n",
      "    Message('control_change', channel=0, control=64, value=15, time=80),\n",
      "    Message('control_change', channel=0, control=64, value=15, time=80),\n",
      "    Message('control_change', channel=0, control=64, value=15, time=1040),\n",
      "    Message('control_change', channel=0, control=64, value=17, time=80),\n",
      "    Message('control_change', channel=0, control=64, value=18, time=80),\n",
      "    Message('control_change', channel=0, control=64, value=20, time=80),\n",
      "    Message('control_change', channel=0, control=64, value=22, time=80),\n",
      "    Message('control_change', channel=0, control=64, value=24, time=80),\n",
      "    Message('control_change', channel=0, control=64, value=27, time=80),\n",
      "    Message('control_change', channel=0, control=64, value=30, time=80),\n",
      "    Message('control_change', channel=0, control=64, value=31, time=80),\n",
      "    Message('control_change', channel=0, control=64, value=32, time=80),\n",
      "    Message('control_change', channel=0, control=64, value=33, time=80),\n",
      "    Message('control_change', channel=0, control=64, value=37, time=80),\n",
      "    Message('control_change', channel=0, control=64, value=41, time=80),\n",
      "    Message('control_change', channel=0, control=64, value=47, time=80),\n",
      "    Message('control_change', channel=0, control=64, value=52, time=80),\n",
      "    Message('control_change', channel=0, control=64, value=57, time=80),\n",
      "    Message('control_change', channel=0, control=64, value=63, time=80),\n",
      "    Message('control_change', channel=0, control=64, value=69, time=80),\n",
      "    Message('control_change', channel=0, control=64, value=76, time=80),\n",
      "    Message('control_change', channel=0, control=64, value=82, time=80),\n",
      "    Message('control_change', channel=0, control=64, value=88, time=80),\n",
      "    Message('control_change', channel=0, control=64, value=93, time=80),\n",
      "    Message('control_change', channel=0, control=64, value=96, time=80),\n",
      "    Message('control_change', channel=0, control=64, value=98, time=80),\n",
      "    Message('control_change', channel=0, control=64, value=98, time=80),\n",
      "    Message('control_change', channel=0, control=64, value=97, time=3120),\n",
      "    Message('control_change', channel=0, control=64, value=94, time=80),\n",
      "    Message('control_change', channel=0, control=64, value=86, time=80),\n",
      "    Message('control_change', channel=0, control=64, value=77, time=80),\n",
      "    Message('control_change', channel=0, control=64, value=69, time=80),\n",
      "    Message('control_change', channel=0, control=64, value=62, time=80),\n",
      "    Message('control_change', channel=0, control=64, value=53, time=80),\n",
      "    Message('control_change', channel=0, control=64, value=44, time=80),\n",
      "    Message('control_change', channel=0, control=64, value=36, time=80),\n",
      "    Message('control_change', channel=0, control=64, value=32, time=80),\n",
      "    Message('control_change', channel=0, control=64, value=30, time=80),\n",
      "    Message('control_change', channel=0, control=64, value=30, time=80),\n",
      "    Message('control_change', channel=0, control=64, value=29, time=160),\n",
      "    Message('control_change', channel=0, control=64, value=30, time=160),\n",
      "    Message('control_change', channel=0, control=64, value=30, time=80),\n",
      "    Message('control_change', channel=0, control=64, value=32, time=80),\n",
      "    Message('control_change', channel=0, control=64, value=35, time=80),\n",
      "    Message('control_change', channel=0, control=64, value=38, time=80),\n",
      "    Message('control_change', channel=0, control=64, value=40, time=80),\n",
      "    Message('control_change', channel=0, control=64, value=41, time=160),\n",
      "    Message('control_change', channel=0, control=64, value=43, time=80),\n",
      "    Message('control_change', channel=0, control=64, value=47, time=80),\n",
      "    Message('control_change', channel=0, control=64, value=52, time=80),\n",
      "    Message('control_change', channel=0, control=64, value=57, time=80),\n",
      "    Message('control_change', channel=0, control=64, value=62, time=80),\n",
      "    Message('control_change', channel=0, control=64, value=67, time=80),\n",
      "    Message('control_change', channel=0, control=64, value=72, time=80),\n",
      "    Message('control_change', channel=0, control=64, value=77, time=80),\n",
      "    Message('control_change', channel=0, control=64, value=83, time=80),\n",
      "    Message('control_change', channel=0, control=64, value=89, time=80),\n",
      "    Message('control_change', channel=0, control=64, value=92, time=80),\n",
      "    Message('control_change', channel=0, control=64, value=94, time=80),\n",
      "    Message('control_change', channel=0, control=64, value=94, time=80),\n",
      "    Message('control_change', channel=0, control=64, value=95, time=880),\n",
      "    Message('control_change', channel=0, control=64, value=95, time=400),\n",
      "    Message('control_change', channel=0, control=64, value=93, time=4320),\n",
      "    Message('control_change', channel=0, control=64, value=88, time=80),\n",
      "    Message('control_change', channel=0, control=64, value=81, time=80),\n",
      "    Message('control_change', channel=0, control=64, value=75, time=80),\n",
      "    Message('control_change', channel=0, control=64, value=68, time=80),\n",
      "    Message('control_change', channel=0, control=64, value=59, time=80),\n",
      "    Message('control_change', channel=0, control=64, value=49, time=80),\n",
      "    Message('control_change', channel=0, control=64, value=40, time=80),\n",
      "    Message('control_change', channel=0, control=64, value=34, time=80),\n",
      "    Message('control_change', channel=0, control=64, value=31, time=80),\n",
      "    Message('control_change', channel=0, control=64, value=29, time=80),\n",
      "    Message('control_change', channel=0, control=64, value=27, time=80),\n",
      "    Message('control_change', channel=0, control=64, value=28, time=480),\n",
      "    Message('control_change', channel=0, control=64, value=29, time=80),\n",
      "    Message('control_change', channel=0, control=64, value=31, time=80),\n",
      "    Message('control_change', channel=0, control=64, value=33, time=80),\n",
      "    Message('control_change', channel=0, control=64, value=37, time=80),\n",
      "    Message('control_change', channel=0, control=64, value=39, time=80),\n",
      "    Message('control_change', channel=0, control=64, value=40, time=80),\n",
      "    Message('control_change', channel=0, control=64, value=42, time=80),\n",
      "    Message('control_change', channel=0, control=64, value=48, time=80),\n",
      "    Message('control_change', channel=0, control=64, value=57, time=80),\n",
      "    Message('control_change', channel=0, control=64, value=66, time=80),\n",
      "    Message('control_change', channel=0, control=64, value=75, time=80),\n",
      "    Message('control_change', channel=0, control=64, value=82, time=80),\n",
      "    Message('control_change', channel=0, control=64, value=89, time=80),\n",
      "    Message('control_change', channel=0, control=64, value=95, time=80),\n",
      "    Message('control_change', channel=0, control=64, value=100, time=80),\n",
      "    Message('control_change', channel=0, control=64, value=102, time=80),\n",
      "    Message('control_change', channel=0, control=64, value=103, time=80),\n",
      "    Message('control_change', channel=0, control=64, value=101, time=1600),\n",
      "    Message('control_change', channel=0, control=64, value=94, time=80),\n",
      "    Message('control_change', channel=0, control=64, value=82, time=80),\n",
      "    Message('control_change', channel=0, control=64, value=72, time=80),\n",
      "    Message('control_change', channel=0, control=64, value=66, time=80),\n",
      "    Message('control_change', channel=0, control=64, value=60, time=80),\n",
      "    Message('control_change', channel=0, control=64, value=52, time=80),\n",
      "    Message('control_change', channel=0, control=64, value=45, time=80),\n",
      "    Message('control_change', channel=0, control=64, value=43, time=80),\n",
      "    Message('control_change', channel=0, control=64, value=43, time=240),\n",
      "    Message('control_change', channel=0, control=64, value=46, time=80),\n",
      "    Message('control_change', channel=0, control=64, value=49, time=80),\n",
      "    Message('control_change', channel=0, control=64, value=51, time=80),\n",
      "    Message('control_change', channel=0, control=64, value=53, time=80),\n",
      "    Message('control_change', channel=0, control=64, value=56, time=80),\n",
      "    Message('control_change', channel=0, control=64, value=62, time=80),\n",
      "    Message('control_change', channel=0, control=64, value=71, time=80),\n",
      "    Message('control_change', channel=0, control=64, value=80, time=80),\n",
      "    Message('control_change', channel=0, control=64, value=88, time=80),\n",
      "    Message('control_change', channel=0, control=64, value=93, time=80),\n",
      "    Message('control_change', channel=0, control=64, value=97, time=80),\n",
      "    Message('control_change', channel=0, control=64, value=100, time=80),\n",
      "    Message('control_change', channel=0, control=64, value=101, time=80),\n",
      "    Message('control_change', channel=0, control=64, value=102, time=80),\n",
      "    Message('control_change', channel=0, control=64, value=101, time=1520),\n",
      "    Message('control_change', channel=0, control=64, value=94, time=80),\n",
      "    Message('control_change', channel=0, control=64, value=83, time=80),\n",
      "    Message('control_change', channel=0, control=64, value=73, time=80),\n",
      "    Message('control_change', channel=0, control=64, value=66, time=80),\n",
      "    Message('control_change', channel=0, control=64, value=59, time=80),\n",
      "    Message('control_change', channel=0, control=64, value=51, time=80),\n",
      "    Message('control_change', channel=0, control=64, value=44, time=80),\n",
      "    Message('control_change', channel=0, control=64, value=39, time=80),\n",
      "    Message('control_change', channel=0, control=64, value=39, time=80),\n",
      "    Message('control_change', channel=0, control=64, value=40, time=400),\n",
      "    Message('control_change', channel=0, control=64, value=43, time=80),\n",
      "    Message('control_change', channel=0, control=64, value=47, time=80),\n",
      "    Message('control_change', channel=0, control=64, value=49, time=80),\n",
      "    Message('control_change', channel=0, control=64, value=50, time=80),\n",
      "    Message('control_change', channel=0, control=64, value=53, time=80),\n",
      "    Message('control_change', channel=0, control=64, value=59, time=80),\n",
      "    Message('control_change', channel=0, control=64, value=66, time=80),\n",
      "    Message('control_change', channel=0, control=64, value=74, time=80),\n",
      "    Message('control_change', channel=0, control=64, value=79, time=80),\n",
      "    Message('control_change', channel=0, control=64, value=85, time=80),\n",
      "    Message('control_change', channel=0, control=64, value=89, time=80),\n",
      "    Message('control_change', channel=0, control=64, value=94, time=80),\n",
      "    Message('control_change', channel=0, control=64, value=97, time=80),\n",
      "    Message('control_change', channel=0, control=64, value=99, time=80),\n",
      "    Message('control_change', channel=0, control=64, value=100, time=80),\n",
      "    Message('control_change', channel=0, control=64, value=99, time=1440),\n",
      "    Message('control_change', channel=0, control=64, value=93, time=80),\n",
      "    Message('control_change', channel=0, control=64, value=82, time=80),\n",
      "    Message('control_change', channel=0, control=64, value=71, time=80),\n",
      "    Message('control_change', channel=0, control=64, value=63, time=80),\n",
      "    Message('control_change', channel=0, control=64, value=56, time=80),\n",
      "    Message('control_change', channel=0, control=64, value=48, time=80),\n",
      "    Message('control_change', channel=0, control=64, value=42, time=80),\n",
      "    Message('control_change', channel=0, control=64, value=40, time=80),\n",
      "    Message('control_change', channel=0, control=64, value=40, time=160),\n",
      "    Message('control_change', channel=0, control=64, value=42, time=80),\n",
      "    Message('control_change', channel=0, control=64, value=46, time=80),\n",
      "    Message('control_change', channel=0, control=64, value=50, time=80),\n",
      "    Message('control_change', channel=0, control=64, value=53, time=80),\n",
      "    Message('control_change', channel=0, control=64, value=57, time=80),\n",
      "    Message('control_change', channel=0, control=64, value=65, time=80),\n",
      "    Message('control_change', channel=0, control=64, value=74, time=80),\n",
      "    Message('control_change', channel=0, control=64, value=82, time=80),\n",
      "    Message('control_change', channel=0, control=64, value=90, time=80),\n",
      "    Message('control_change', channel=0, control=64, value=95, time=80),\n",
      "    Message('control_change', channel=0, control=64, value=98, time=80),\n",
      "    Message('control_change', channel=0, control=64, value=101, time=80),\n",
      "    Message('control_change', channel=0, control=64, value=102, time=80),\n",
      "    Message('control_change', channel=0, control=64, value=101, time=3040),\n",
      "    Message('control_change', channel=0, control=64, value=99, time=80),\n",
      "    Message('control_change', channel=0, control=64, value=95, time=80),\n",
      "    Message('control_change', channel=0, control=64, value=92, time=80),\n",
      "    Message('control_change', channel=0, control=64, value=88, time=80),\n",
      "    Message('control_change', channel=0, control=64, value=85, time=80),\n",
      "    Message('control_change', channel=0, control=64, value=83, time=80),\n",
      "    Message('control_change', channel=0, control=64, value=82, time=80),\n",
      "    Message('control_change', channel=0, control=64, value=80, time=80),\n",
      "    Message('control_change', channel=0, control=64, value=74, time=80),\n",
      "    Message('control_change', channel=0, control=64, value=68, time=80),\n",
      "    Message('control_change', channel=0, control=64, value=63, time=80),\n",
      "    Message('control_change', channel=0, control=64, value=59, time=80),\n",
      "    Message('control_change', channel=0, control=64, value=54, time=80),\n",
      "    Message('control_change', channel=0, control=64, value=48, time=80),\n",
      "    Message('control_change', channel=0, control=64, value=42, time=80),\n",
      "    Message('control_change', channel=0, control=64, value=37, time=80),\n",
      "    Message('control_change', channel=0, control=64, value=32, time=80),\n",
      "    Message('control_change', channel=0, control=64, value=28, time=80),\n",
      "    Message('control_change', channel=0, control=64, value=25, time=80),\n",
      "    Message('control_change', channel=0, control=64, value=23, time=80),\n",
      "    Message('control_change', channel=0, control=64, value=21, time=80),\n",
      "    Message('control_change', channel=0, control=64, value=20, time=80),\n",
      "    Message('control_change', channel=0, control=64, value=19, time=80),\n",
      "    Message('control_change', channel=0, control=64, value=18, time=80),\n",
      "    Message('control_change', channel=0, control=64, value=18, time=80),\n",
      "    Message('control_change', channel=0, control=64, value=17, time=80),\n",
      "    Message('control_change', channel=0, control=64, value=17, time=80),\n",
      "    Message('control_change', channel=0, control=64, value=16, time=80),\n",
      "    Message('control_change', channel=0, control=64, value=16, time=80),\n",
      "    Message('control_change', channel=0, control=64, value=17, time=1040),\n",
      "    Message('control_change', channel=0, control=64, value=18, time=80),\n",
      "    Message('control_change', channel=0, control=64, value=19, time=80),\n",
      "    Message('control_change', channel=0, control=64, value=20, time=80),\n",
      "    Message('control_change', channel=0, control=64, value=21, time=80),\n",
      "    Message('control_change', channel=0, control=64, value=22, time=80),\n",
      "    Message('control_change', channel=0, control=64, value=23, time=80),\n",
      "    Message('control_change', channel=0, control=64, value=25, time=80),\n",
      "    Message('control_change', channel=0, control=64, value=26, time=80),\n",
      "    Message('control_change', channel=0, control=64, value=27, time=80),\n",
      "    Message('control_change', channel=0, control=64, value=28, time=80),\n",
      "    Message('control_change', channel=0, control=64, value=29, time=80),\n",
      "    Message('control_change', channel=0, control=64, value=29, time=80),\n",
      "    Message('control_change', channel=0, control=64, value=30, time=80),\n",
      "    Message('control_change', channel=0, control=64, value=31, time=80),\n",
      "    Message('control_change', channel=0, control=64, value=31, time=80),\n",
      "    Message('control_change', channel=0, control=64, value=32, time=160),\n",
      "    Message('control_change', channel=0, control=64, value=33, time=80),\n",
      "    Message('control_change', channel=0, control=64, value=34, time=80),\n",
      "    Message('control_change', channel=0, control=64, value=35, time=80),\n",
      "    Message('control_change', channel=0, control=64, value=37, time=80),\n",
      "    Message('control_change', channel=0, control=64, value=39, time=80),\n",
      "    Message('control_change', channel=0, control=64, value=41, time=80),\n",
      "    Message('control_change', channel=0, control=64, value=44, time=80),\n",
      "    Message('control_change', channel=0, control=64, value=48, time=80),\n",
      "    Message('control_change', channel=0, control=64, value=53, time=80),\n",
      "    Message('control_change', channel=0, control=64, value=58, time=80),\n",
      "    Message('control_change', channel=0, control=64, value=63, time=80),\n",
      "    Message('control_change', channel=0, control=64, value=68, time=80),\n",
      "    Message('control_change', channel=0, control=64, value=74, time=80),\n",
      "    Message('control_change', channel=0, control=64, value=79, time=80),\n",
      "    Message('control_change', channel=0, control=64, value=83, time=80),\n",
      "    Message('control_change', channel=0, control=64, value=86, time=80),\n",
      "    Message('control_change', channel=0, control=64, value=87, time=80),\n",
      "    Message('control_change', channel=0, control=64, value=88, time=160),\n",
      "    Message('control_change', channel=0, control=64, value=87, time=80),\n",
      "    Message('control_change', channel=0, control=64, value=88, time=160),\n",
      "    Message('control_change', channel=0, control=64, value=87, time=80),\n",
      "    Message('control_change', channel=0, control=64, value=88, time=400),\n",
      "    Message('control_change', channel=0, control=64, value=87, time=80),\n",
      "    Message('control_change', channel=0, control=64, value=88, time=160),\n",
      "    Message('control_change', channel=0, control=64, value=87, time=80),\n",
      "    Message('control_change', channel=0, control=64, value=88, time=80),\n",
      "    Message('control_change', channel=0, control=64, value=87, time=80),\n",
      "    Message('control_change', channel=0, control=64, value=88, time=400),\n",
      "    Message('control_change', channel=0, control=64, value=87, time=80),\n",
      "    Message('control_change', channel=0, control=64, value=88, time=400),\n",
      "    Message('control_change', channel=0, control=64, value=87, time=240),\n",
      "    Message('control_change', channel=0, control=64, value=88, time=160),\n",
      "    Message('control_change', channel=0, control=64, value=87, time=160),\n",
      "    Message('control_change', channel=0, control=64, value=86, time=400),\n",
      "    Message('control_change', channel=0, control=64, value=83, time=80),\n",
      "    Message('control_change', channel=0, control=64, value=78, time=80),\n",
      "    Message('control_change', channel=0, control=64, value=75, time=80),\n",
      "    Message('control_change', channel=0, control=64, value=73, time=80),\n",
      "    Message('control_change', channel=0, control=64, value=67, time=80),\n",
      "    Message('control_change', channel=0, control=64, value=61, time=80),\n",
      "    Message('control_change', channel=0, control=64, value=55, time=80),\n",
      "    Message('control_change', channel=0, control=64, value=51, time=80),\n",
      "    Message('control_change', channel=0, control=64, value=48, time=80),\n",
      "    Message('control_change', channel=0, control=64, value=46, time=80),\n",
      "    Message('control_change', channel=0, control=64, value=44, time=80),\n",
      "    Message('control_change', channel=0, control=64, value=43, time=80),\n",
      "    Message('control_change', channel=0, control=64, value=44, time=640),\n",
      "    Message('control_change', channel=0, control=64, value=46, time=80),\n",
      "    Message('control_change', channel=0, control=64, value=47, time=80),\n",
      "    Message('control_change', channel=0, control=64, value=48, time=80),\n",
      "    Message('control_change', channel=0, control=64, value=48, time=80),\n",
      "    Message('control_change', channel=0, control=64, value=49, time=80),\n",
      "    Message('control_change', channel=0, control=64, value=51, time=80),\n",
      "    Message('control_change', channel=0, control=64, value=51, time=80),\n",
      "    Message('control_change', channel=0, control=64, value=53, time=80),\n",
      "    Message('control_change', channel=0, control=64, value=54, time=80),\n",
      "    Message('control_change', channel=0, control=64, value=56, time=80),\n",
      "    Message('control_change', channel=0, control=64, value=59, time=80),\n",
      "    Message('control_change', channel=0, control=64, value=62, time=80),\n",
      "    Message('control_change', channel=0, control=64, value=66, time=80),\n",
      "    Message('control_change', channel=0, control=64, value=69, time=80),\n",
      "    Message('control_change', channel=0, control=64, value=74, time=80),\n",
      "    Message('control_change', channel=0, control=64, value=79, time=80),\n",
      "    Message('control_change', channel=0, control=64, value=82, time=80),\n",
      "    Message('control_change', channel=0, control=64, value=85, time=80),\n",
      "    Message('control_change', channel=0, control=64, value=87, time=80),\n",
      "    Message('control_change', channel=0, control=64, value=88, time=80),\n",
      "    Message('control_change', channel=0, control=64, value=90, time=80),\n",
      "    Message('control_change', channel=0, control=64, value=90, time=80),\n",
      "    Message('control_change', channel=0, control=64, value=90, time=4320),\n",
      "    Message('control_change', channel=0, control=64, value=88, time=80),\n",
      "    Message('control_change', channel=0, control=64, value=85, time=80),\n",
      "    Message('control_change', channel=0, control=64, value=81, time=80),\n",
      "    Message('control_change', channel=0, control=64, value=79, time=80),\n",
      "    Message('control_change', channel=0, control=64, value=78, time=80),\n",
      "    Message('control_change', channel=0, control=64, value=74, time=80),\n",
      "    Message('control_change', channel=0, control=64, value=66, time=80),\n",
      "    Message('control_change', channel=0, control=64, value=58, time=80),\n",
      "    Message('control_change', channel=0, control=64, value=50, time=80),\n",
      "    Message('control_change', channel=0, control=64, value=45, time=80),\n",
      "    Message('control_change', channel=0, control=64, value=40, time=80),\n",
      "    Message('control_change', channel=0, control=64, value=34, time=80),\n",
      "    Message('control_change', channel=0, control=64, value=29, time=80),\n",
      "    Message('control_change', channel=0, control=64, value=27, time=80),\n",
      "    Message('control_change', channel=0, control=64, value=27, time=80),\n",
      "    Message('control_change', channel=0, control=64, value=27, time=480),\n",
      "    Message('control_change', channel=0, control=64, value=28, time=80),\n",
      "    Message('control_change', channel=0, control=64, value=29, time=80),\n",
      "    Message('control_change', channel=0, control=64, value=30, time=80),\n",
      "    Message('control_change', channel=0, control=64, value=31, time=80),\n",
      "    Message('control_change', channel=0, control=64, value=33, time=80),\n",
      "    Message('control_change', channel=0, control=64, value=35, time=80),\n",
      "    Message('control_change', channel=0, control=64, value=35, time=80),\n",
      "    Message('control_change', channel=0, control=64, value=36, time=80),\n",
      "    Message('control_change', channel=0, control=64, value=37, time=80),\n",
      "    Message('control_change', channel=0, control=64, value=38, time=80),\n",
      "    Message('control_change', channel=0, control=64, value=39, time=80),\n",
      "    Message('control_change', channel=0, control=64, value=40, time=80),\n",
      "    Message('control_change', channel=0, control=64, value=41, time=80),\n",
      "    Message('control_change', channel=0, control=64, value=43, time=80),\n",
      "    Message('control_change', channel=0, control=64, value=44, time=80),\n",
      "    Message('control_change', channel=0, control=64, value=47, time=80),\n",
      "    Message('control_change', channel=0, control=64, value=50, time=80),\n",
      "    Message('control_change', channel=0, control=64, value=53, time=80),\n",
      "    Message('control_change', channel=0, control=64, value=58, time=80),\n",
      "    Message('control_change', channel=0, control=64, value=63, time=80),\n",
      "    Message('control_change', channel=0, control=64, value=68, time=80),\n",
      "    Message('control_change', channel=0, control=64, value=74, time=80),\n",
      "    Message('control_change', channel=0, control=64, value=79, time=80),\n",
      "    Message('control_change', channel=0, control=64, value=83, time=80),\n",
      "    Message('control_change', channel=0, control=64, value=87, time=80),\n",
      "    Message('control_change', channel=0, control=64, value=90, time=80),\n",
      "    Message('control_change', channel=0, control=64, value=91, time=80),\n",
      "    Message('control_change', channel=0, control=64, value=92, time=80),\n",
      "    Message('control_change', channel=0, control=64, value=91, time=80),\n",
      "    Message('control_change', channel=0, control=64, value=92, time=160),\n",
      "    Message('control_change', channel=0, control=64, value=91, time=80),\n",
      "    Message('control_change', channel=0, control=64, value=92, time=160),\n",
      "    Message('control_change', channel=0, control=64, value=91, time=80),\n",
      "    Message('control_change', channel=0, control=64, value=92, time=160),\n",
      "    Message('control_change', channel=0, control=64, value=91, time=80),\n",
      "    Message('control_change', channel=0, control=64, value=92, time=160),\n",
      "    Message('control_change', channel=0, control=64, value=91, time=80),\n",
      "    Message('control_change', channel=0, control=64, value=92, time=160),\n",
      "    Message('control_change', channel=0, control=64, value=91, time=80),\n",
      "    Message('control_change', channel=0, control=64, value=92, time=160),\n",
      "    Message('control_change', channel=0, control=64, value=91, time=80),\n",
      "    Message('control_change', channel=0, control=64, value=92, time=160),\n",
      "    Message('control_change', channel=0, control=64, value=91, time=80),\n",
      "    Message('control_change', channel=0, control=64, value=92, time=160),\n",
      "    Message('control_change', channel=0, control=64, value=91, time=80),\n",
      "    Message('control_change', channel=0, control=64, value=92, time=160),\n",
      "    Message('control_change', channel=0, control=64, value=91, time=80),\n",
      "    Message('control_change', channel=0, control=64, value=92, time=160),\n",
      "    Message('control_change', channel=0, control=64, value=91, time=80),\n",
      "    Message('control_change', channel=0, control=64, value=92, time=160),\n",
      "    Message('control_change', channel=0, control=64, value=91, time=80),\n",
      "    Message('control_change', channel=0, control=64, value=92, time=160),\n",
      "    Message('control_change', channel=0, control=64, value=91, time=80),\n",
      "    Message('control_change', channel=0, control=64, value=92, time=160),\n",
      "    Message('control_change', channel=0, control=64, value=91, time=80),\n",
      "    Message('control_change', channel=0, control=64, value=92, time=160),\n",
      "    Message('control_change', channel=0, control=64, value=91, time=80),\n",
      "    Message('control_change', channel=0, control=64, value=92, time=160),\n",
      "    Message('control_change', channel=0, control=64, value=91, time=80),\n",
      "    Message('control_change', channel=0, control=64, value=92, time=160),\n",
      "    Message('control_change', channel=0, control=64, value=91, time=80),\n",
      "    Message('control_change', channel=0, control=64, value=92, time=160),\n",
      "    Message('control_change', channel=0, control=64, value=91, time=80),\n",
      "    Message('control_change', channel=0, control=64, value=91, time=160),\n",
      "    Message('control_change', channel=0, control=64, value=90, time=80),\n",
      "    Message('control_change', channel=0, control=64, value=88, time=80),\n",
      "    Message('control_change', channel=0, control=64, value=87, time=80),\n",
      "    Message('control_change', channel=0, control=64, value=85, time=80),\n",
      "    Message('control_change', channel=0, control=64, value=82, time=80),\n",
      "    Message('control_change', channel=0, control=64, value=80, time=80),\n",
      "    Message('control_change', channel=0, control=64, value=78, time=80),\n",
      "    Message('control_change', channel=0, control=64, value=73, time=80),\n",
      "    Message('control_change', channel=0, control=64, value=65, time=80),\n",
      "    Message('control_change', channel=0, control=64, value=56, time=80),\n",
      "    Message('control_change', channel=0, control=64, value=48, time=80),\n",
      "    Message('control_change', channel=0, control=64, value=43, time=80),\n",
      "    Message('control_change', channel=0, control=64, value=37, time=80),\n",
      "    Message('control_change', channel=0, control=64, value=31, time=80),\n",
      "    Message('control_change', channel=0, control=64, value=28, time=80),\n",
      "    Message('control_change', channel=0, control=64, value=26, time=80),\n",
      "    Message('control_change', channel=0, control=64, value=26, time=400),\n",
      "    Message('control_change', channel=0, control=64, value=26, time=80),\n",
      "    Message('control_change', channel=0, control=64, value=27, time=160),\n",
      "    Message('control_change', channel=0, control=64, value=28, time=80),\n",
      "    Message('control_change', channel=0, control=64, value=29, time=80),\n",
      "    Message('control_change', channel=0, control=64, value=31, time=80),\n",
      "    Message('control_change', channel=0, control=64, value=33, time=80),\n",
      "    Message('control_change', channel=0, control=64, value=35, time=80),\n",
      "    Message('control_change', channel=0, control=64, value=35, time=80),\n",
      "    Message('control_change', channel=0, control=64, value=36, time=80),\n",
      "    Message('control_change', channel=0, control=64, value=37, time=80),\n",
      "    Message('control_change', channel=0, control=64, value=39, time=80),\n",
      "    Message('control_change', channel=0, control=64, value=41, time=80),\n",
      "    Message('control_change', channel=0, control=64, value=45, time=80),\n",
      "    Message('control_change', channel=0, control=64, value=48, time=80),\n",
      "    Message('control_change', channel=0, control=64, value=52, time=80),\n",
      "    Message('control_change', channel=0, control=64, value=56, time=80),\n",
      "    Message('control_change', channel=0, control=64, value=61, time=80),\n",
      "    Message('control_change', channel=0, control=64, value=66, time=80),\n",
      "    Message('control_change', channel=0, control=64, value=71, time=80),\n",
      "    Message('control_change', channel=0, control=64, value=75, time=80),\n",
      "    Message('control_change', channel=0, control=64, value=80, time=80),\n",
      "    Message('control_change', channel=0, control=64, value=83, time=80),\n",
      "    Message('control_change', channel=0, control=64, value=86, time=80),\n",
      "    Message('control_change', channel=0, control=64, value=87, time=80),\n",
      "    Message('control_change', channel=0, control=64, value=88, time=80),\n",
      "    Message('control_change', channel=0, control=64, value=88, time=880),\n",
      "    Message('control_change', channel=0, control=64, value=88, time=160),\n",
      "    Message('control_change', channel=0, control=64, value=88, time=240),\n",
      "    Message('control_change', channel=0, control=64, value=88, time=80),\n",
      "    Message('control_change', channel=0, control=64, value=88, time=400),\n",
      "    Message('control_change', channel=0, control=64, value=88, time=160),\n",
      "    Message('control_change', channel=0, control=64, value=88, time=240),\n",
      "    Message('control_change', channel=0, control=64, value=88, time=240),\n",
      "    Message('control_change', channel=0, control=64, value=88, time=240),\n",
      "    Message('control_change', channel=0, control=64, value=88, time=80),\n",
      "    Message('control_change', channel=0, control=64, value=88, time=160),\n",
      "    Message('control_change', channel=0, control=64, value=88, time=240),\n",
      "    Message('control_change', channel=0, control=64, value=88, time=160),\n",
      "    Message('control_change', channel=0, control=64, value=88, time=240),\n",
      "    Message('control_change', channel=0, control=64, value=88, time=160),\n",
      "    Message('control_change', channel=0, control=64, value=88, time=80),\n",
      "    Message('control_change', channel=0, control=64, value=88, time=80),\n",
      "    Message('control_change', channel=0, control=64, value=88, time=80),\n",
      "    Message('control_change', channel=0, control=64, value=88, time=80),\n",
      "    Message('control_change', channel=0, control=64, value=88, time=160),\n",
      "    Message('control_change', channel=0, control=64, value=88, time=80),\n",
      "    Message('control_change', channel=0, control=64, value=88, time=240),\n",
      "    Message('control_change', channel=0, control=64, value=88, time=80),\n",
      "    Message('control_change', channel=0, control=64, value=88, time=80),\n",
      "    Message('control_change', channel=0, control=64, value=88, time=80),\n",
      "    Message('control_change', channel=0, control=64, value=88, time=240),\n",
      "    Message('control_change', channel=0, control=64, value=88, time=80),\n",
      "    Message('control_change', channel=0, control=64, value=88, time=240),\n",
      "    Message('control_change', channel=0, control=64, value=88, time=160),\n",
      "    Message('control_change', channel=0, control=64, value=88, time=80),\n",
      "    Message('control_change', channel=0, control=64, value=88, time=80),\n",
      "    Message('control_change', channel=0, control=64, value=88, time=560),\n",
      "    Message('control_change', channel=0, control=64, value=88, time=160),\n",
      "    Message('control_change', channel=0, control=64, value=88, time=80),\n",
      "    Message('control_change', channel=0, control=64, value=88, time=80),\n",
      "    Message('control_change', channel=0, control=64, value=88, time=320),\n",
      "    Message('control_change', channel=0, control=64, value=88, time=80),\n",
      "    Message('control_change', channel=0, control=64, value=88, time=160),\n",
      "    Message('control_change', channel=0, control=64, value=88, time=80),\n",
      "    Message('control_change', channel=0, control=64, value=88, time=240),\n",
      "    Message('control_change', channel=0, control=64, value=88, time=160),\n",
      "    Message('control_change', channel=0, control=64, value=88, time=160),\n",
      "    Message('control_change', channel=0, control=64, value=88, time=240),\n",
      "    Message('control_change', channel=0, control=64, value=88, time=160),\n",
      "    Message('control_change', channel=0, control=64, value=88, time=160),\n",
      "    Message('control_change', channel=0, control=64, value=88, time=320),\n",
      "    Message('control_change', channel=0, control=64, value=88, time=240),\n",
      "    Message('control_change', channel=0, control=64, value=88, time=80),\n",
      "    Message('control_change', channel=0, control=64, value=88, time=80),\n",
      "    Message('control_change', channel=0, control=64, value=88, time=400),\n",
      "    Message('control_change', channel=0, control=64, value=88, time=240),\n",
      "    Message('control_change', channel=0, control=64, value=88, time=560),\n",
      "    Message('control_change', channel=0, control=64, value=88, time=80),\n",
      "    Message('control_change', channel=0, control=64, value=88, time=80),\n",
      "    Message('control_change', channel=0, control=64, value=88, time=80),\n",
      "    Message('control_change', channel=0, control=64, value=88, time=80),\n",
      "    Message('control_change', channel=0, control=64, value=87, time=160),\n",
      "    Message('control_change', channel=0, control=64, value=85, time=80),\n",
      "    Message('control_change', channel=0, control=64, value=83, time=80),\n",
      "    Message('control_change', channel=0, control=64, value=82, time=80),\n",
      "    Message('control_change', channel=0, control=64, value=82, time=80),\n",
      "    Message('control_change', channel=0, control=64, value=80, time=80),\n",
      "    Message('control_change', channel=0, control=64, value=78, time=80),\n",
      "    Message('control_change', channel=0, control=64, value=74, time=80),\n",
      "    Message('control_change', channel=0, control=64, value=70, time=80),\n",
      "    Message('control_change', channel=0, control=64, value=66, time=80),\n",
      "    Message('control_change', channel=0, control=64, value=62, time=80),\n",
      "    Message('control_change', channel=0, control=64, value=58, time=80),\n",
      "    Message('control_change', channel=0, control=64, value=54, time=80),\n",
      "    Message('control_change', channel=0, control=64, value=50, time=80),\n",
      "    Message('control_change', channel=0, control=64, value=46, time=80),\n",
      "    Message('control_change', channel=0, control=64, value=42, time=80),\n",
      "    Message('control_change', channel=0, control=64, value=39, time=80),\n",
      "    Message('control_change', channel=0, control=64, value=36, time=80),\n",
      "    Message('control_change', channel=0, control=64, value=33, time=80),\n",
      "    Message('control_change', channel=0, control=64, value=30, time=80),\n",
      "    Message('control_change', channel=0, control=64, value=28, time=80),\n",
      "    Message('control_change', channel=0, control=64, value=27, time=80),\n",
      "    Message('control_change', channel=0, control=64, value=25, time=80),\n",
      "    Message('control_change', channel=0, control=64, value=23, time=80),\n",
      "    Message('control_change', channel=0, control=64, value=22, time=80),\n",
      "    Message('control_change', channel=0, control=64, value=21, time=80),\n",
      "    Message('control_change', channel=0, control=64, value=19, time=80),\n",
      "    Message('control_change', channel=0, control=64, value=18, time=80),\n",
      "    Message('control_change', channel=0, control=64, value=17, time=80),\n",
      "    Message('control_change', channel=0, control=64, value=16, time=80),\n",
      "    Message('control_change', channel=0, control=64, value=15, time=80),\n",
      "    Message('control_change', channel=0, control=64, value=14, time=80),\n",
      "    Message('control_change', channel=0, control=64, value=13, time=80),\n",
      "    Message('control_change', channel=0, control=64, value=12, time=80),\n",
      "    Message('control_change', channel=0, control=64, value=11, time=80),\n",
      "    Message('control_change', channel=0, control=64, value=11, time=80),\n",
      "    Message('control_change', channel=0, control=64, value=10, time=80),\n",
      "    Message('control_change', channel=0, control=64, value=10, time=80),\n",
      "    Message('control_change', channel=0, control=64, value=11, time=6800),\n",
      "    Message('control_change', channel=0, control=64, value=14, time=80),\n",
      "    Message('control_change', channel=0, control=64, value=14, time=80),\n",
      "    Message('control_change', channel=0, control=64, value=16, time=80),\n",
      "    Message('control_change', channel=0, control=64, value=18, time=80),\n",
      "    Message('control_change', channel=0, control=64, value=19, time=80),\n",
      "    Message('control_change', channel=0, control=64, value=21, time=80),\n",
      "    Message('control_change', channel=0, control=64, value=22, time=80),\n",
      "    Message('control_change', channel=0, control=64, value=25, time=80),\n",
      "    Message('control_change', channel=0, control=64, value=26, time=80),\n",
      "    Message('control_change', channel=0, control=64, value=27, time=80),\n",
      "    Message('control_change', channel=0, control=64, value=29, time=80),\n",
      "    Message('control_change', channel=0, control=64, value=30, time=80),\n",
      "    Message('control_change', channel=0, control=64, value=33, time=80),\n",
      "    Message('control_change', channel=0, control=64, value=36, time=80),\n",
      "    Message('control_change', channel=0, control=64, value=39, time=80),\n",
      "    Message('control_change', channel=0, control=64, value=43, time=80),\n",
      "    Message('control_change', channel=0, control=64, value=48, time=80),\n",
      "    Message('control_change', channel=0, control=64, value=53, time=80),\n",
      "    Message('control_change', channel=0, control=64, value=60, time=80),\n",
      "    Message('control_change', channel=0, control=64, value=67, time=80),\n",
      "    Message('control_change', channel=0, control=64, value=75, time=80),\n",
      "    Message('control_change', channel=0, control=64, value=81, time=80),\n",
      "    Message('control_change', channel=0, control=64, value=86, time=80),\n",
      "    Message('control_change', channel=0, control=64, value=90, time=80),\n",
      "    Message('control_change', channel=0, control=64, value=92, time=80),\n",
      "    Message('control_change', channel=0, control=64, value=93, time=80),\n",
      "    Message('control_change', channel=0, control=64, value=92, time=4560),\n",
      "    Message('control_change', channel=0, control=64, value=92, time=80),\n",
      "    Message('control_change', channel=0, control=64, value=91, time=160),\n",
      "    Message('control_change', channel=0, control=64, value=91, time=80),\n",
      "    Message('control_change', channel=0, control=64, value=90, time=80),\n",
      "    Message('control_change', channel=0, control=64, value=89, time=80),\n",
      "    Message('control_change', channel=0, control=64, value=88, time=80),\n",
      "    Message('control_change', channel=0, control=64, value=88, time=80),\n",
      "    Message('control_change', channel=0, control=64, value=87, time=80),\n",
      "    Message('control_change', channel=0, control=64, value=86, time=80),\n",
      "    Message('control_change', channel=0, control=64, value=85, time=80),\n",
      "    Message('control_change', channel=0, control=64, value=84, time=80),\n",
      "    Message('control_change', channel=0, control=64, value=83, time=80),\n",
      "    Message('control_change', channel=0, control=64, value=83, time=80),\n",
      "    Message('control_change', channel=0, control=64, value=82, time=80),\n",
      "    Message('control_change', channel=0, control=64, value=82, time=80),\n",
      "    Message('control_change', channel=0, control=64, value=81, time=80),\n",
      "    Message('control_change', channel=0, control=64, value=80, time=160),\n",
      "    Message('control_change', channel=0, control=64, value=79, time=80),\n",
      "    Message('control_change', channel=0, control=64, value=77, time=80),\n",
      "    Message('control_change', channel=0, control=64, value=74, time=80),\n",
      "    Message('control_change', channel=0, control=64, value=70, time=80),\n",
      "    Message('control_change', channel=0, control=64, value=67, time=80),\n",
      "    Message('control_change', channel=0, control=64, value=64, time=80),\n",
      "    Message('control_change', channel=0, control=64, value=60, time=80),\n",
      "    Message('control_change', channel=0, control=64, value=55, time=80),\n",
      "    Message('control_change', channel=0, control=64, value=50, time=80),\n",
      "    Message('control_change', channel=0, control=64, value=46, time=80),\n",
      "    Message('control_change', channel=0, control=64, value=42, time=80),\n",
      "    Message('control_change', channel=0, control=64, value=39, time=80),\n",
      "    Message('control_change', channel=0, control=64, value=35, time=80),\n",
      "    Message('control_change', channel=0, control=64, value=32, time=80),\n",
      "    Message('control_change', channel=0, control=64, value=29, time=80),\n",
      "    Message('control_change', channel=0, control=64, value=28, time=80),\n",
      "    Message('control_change', channel=0, control=64, value=27, time=80),\n",
      "    Message('control_change', channel=0, control=64, value=25, time=80),\n",
      "    Message('control_change', channel=0, control=64, value=24, time=80),\n",
      "    Message('control_change', channel=0, control=64, value=22, time=80),\n",
      "    Message('control_change', channel=0, control=64, value=21, time=80),\n",
      "    Message('control_change', channel=0, control=64, value=19, time=80),\n",
      "    Message('control_change', channel=0, control=64, value=18, time=80),\n",
      "    Message('control_change', channel=0, control=64, value=17, time=80),\n",
      "    Message('control_change', channel=0, control=64, value=16, time=80),\n",
      "    Message('control_change', channel=0, control=64, value=16, time=80),\n",
      "    Message('control_change', channel=0, control=64, value=15, time=240),\n",
      "    Message('control_change', channel=0, control=64, value=15, time=480),\n",
      "    Message('control_change', channel=0, control=64, value=14, time=2720),\n",
      "    Message('control_change', channel=0, control=64, value=14, time=2640),\n",
      "    Message('control_change', channel=0, control=64, value=13, time=2160),\n",
      "    Message('control_change', channel=0, control=64, value=13, time=1680),\n",
      "    Message('control_change', channel=0, control=64, value=13, time=10160),\n",
      "    MetaMessage('end_of_track', time=0)]),\n",
      "  MidiTrack([\n",
      "    Message('control_change', channel=0, control=67, value=0, time=0),\n",
      "    Message('control_change', channel=0, control=67, value=0, time=20320),\n",
      "    Message('control_change', channel=0, control=67, value=0, time=20320),\n",
      "    Message('control_change', channel=0, control=67, value=0, time=20320),\n",
      "    Message('control_change', channel=0, control=67, value=0, time=20320),\n",
      "    Message('control_change', channel=0, control=67, value=0, time=20320),\n",
      "    Message('control_change', channel=0, control=67, value=0, time=20320),\n",
      "    Message('control_change', channel=0, control=67, value=0, time=20320),\n",
      "    Message('control_change', channel=0, control=67, value=0, time=20320),\n",
      "    Message('control_change', channel=0, control=67, value=0, time=20320),\n",
      "    Message('control_change', channel=0, control=67, value=0, time=20320),\n",
      "    Message('control_change', channel=0, control=67, value=0, time=20320),\n",
      "    Message('control_change', channel=0, control=67, value=0, time=20320),\n",
      "    Message('control_change', channel=0, control=67, value=0, time=20320),\n",
      "    Message('control_change', channel=0, control=67, value=0, time=20320),\n",
      "    Message('control_change', channel=0, control=67, value=0, time=20320),\n",
      "    Message('control_change', channel=0, control=67, value=0, time=20320),\n",
      "    Message('control_change', channel=0, control=67, value=0, time=20320),\n",
      "    Message('control_change', channel=0, control=67, value=0, time=20320),\n",
      "    Message('control_change', channel=0, control=67, value=0, time=20320),\n",
      "    Message('control_change', channel=0, control=67, value=0, time=20320),\n",
      "    Message('control_change', channel=0, control=67, value=0, time=20320),\n",
      "    Message('control_change', channel=0, control=67, value=0, time=20320),\n",
      "    Message('control_change', channel=0, control=67, value=0, time=20320),\n",
      "    Message('control_change', channel=0, control=67, value=0, time=20320),\n",
      "    Message('control_change', channel=0, control=67, value=0, time=20320),\n",
      "    Message('control_change', channel=0, control=67, value=0, time=20320),\n",
      "    Message('control_change', channel=0, control=67, value=0, time=20320),\n",
      "    Message('control_change', channel=0, control=67, value=0, time=20320),\n",
      "    Message('control_change', channel=0, control=67, value=0, time=20320),\n",
      "    Message('control_change', channel=0, control=67, value=0, time=20320),\n",
      "    Message('control_change', channel=0, control=67, value=0, time=20320),\n",
      "    Message('control_change', channel=0, control=67, value=0, time=20320),\n",
      "    Message('control_change', channel=0, control=67, value=0, time=20320),\n",
      "    Message('control_change', channel=0, control=67, value=0, time=20320),\n",
      "    Message('control_change', channel=0, control=67, value=0, time=20320),\n",
      "    Message('control_change', channel=0, control=67, value=0, time=20320),\n",
      "    MetaMessage('end_of_track', time=0)])\n",
      "])\n"
     ]
    }
   ],
   "source": [
    "midi_file = mido.MidiFile(\"Chopin_op10_no3_p01.mid\")\n",
    "print(midi_file)"
   ]
  },
  {
   "cell_type": "markdown",
   "id": "90c35d06-1d68-4e6f-8254-5927006b1707",
   "metadata": {},
   "source": [
    "A useful method is _.play()_ which turns the _mido.MidiFile_ object into a generator that we can iterate over to access each _mido.Message_ object. We can send each message to the synthesiser, thereby playing the MIDI file, "
   ]
  },
  {
   "cell_type": "code",
   "execution_count": 5,
   "id": "c01ff361-53c2-4ca3-91d0-e011702f43a7",
   "metadata": {},
   "outputs": [
    {
     "ename": "KeyboardInterrupt",
     "evalue": "",
     "output_type": "error",
     "traceback": [
      "\u001b[1;31m---------------------------------------------------------------------------\u001b[0m",
      "\u001b[1;31mKeyboardInterrupt\u001b[0m                         Traceback (most recent call last)",
      "Cell \u001b[1;32mIn[5], line 1\u001b[0m\n\u001b[1;32m----> 1\u001b[0m \u001b[38;5;28;01mfor\u001b[39;00m msg \u001b[38;5;129;01min\u001b[39;00m midi_file\u001b[38;5;241m.\u001b[39mplay():\n\u001b[0;32m      2\u001b[0m     port\u001b[38;5;241m.\u001b[39msend(msg)\n",
      "File \u001b[1;32m~\\AppData\\Roaming\\Python\\Python312\\site-packages\\mido\\midifiles\\midifiles.py:433\u001b[0m, in \u001b[0;36mMidiFile.play\u001b[1;34m(self, meta_messages, now)\u001b[0m\n\u001b[0;32m    430\u001b[0m duration_to_next_event \u001b[38;5;241m=\u001b[39m input_time \u001b[38;5;241m-\u001b[39m playback_time\n\u001b[0;32m    432\u001b[0m \u001b[38;5;28;01mif\u001b[39;00m duration_to_next_event \u001b[38;5;241m>\u001b[39m \u001b[38;5;241m0.0\u001b[39m:\n\u001b[1;32m--> 433\u001b[0m     \u001b[43mtime\u001b[49m\u001b[38;5;241;43m.\u001b[39;49m\u001b[43msleep\u001b[49m\u001b[43m(\u001b[49m\u001b[43mduration_to_next_event\u001b[49m\u001b[43m)\u001b[49m\n\u001b[0;32m    435\u001b[0m \u001b[38;5;28;01mif\u001b[39;00m \u001b[38;5;28misinstance\u001b[39m(msg, MetaMessage) \u001b[38;5;129;01mand\u001b[39;00m \u001b[38;5;129;01mnot\u001b[39;00m meta_messages:\n\u001b[0;32m    436\u001b[0m     \u001b[38;5;28;01mcontinue\u001b[39;00m\n",
      "\u001b[1;31mKeyboardInterrupt\u001b[0m: "
     ]
    }
   ],
   "source": [
    "for msg in midi_file.play():\n",
    "    port.send(msg)"
   ]
  },
  {
   "cell_type": "markdown",
   "id": "65e42b81-deff-486c-ba71-484a404c8d4d",
   "metadata": {},
   "source": [
    "#### Creating MIDI Files\n",
    "\n",
    "The creation of MIDI files is simple,"
   ]
  },
  {
   "cell_type": "code",
   "execution_count": 47,
   "id": "fae125f4-d3c9-4b3b-9df0-4e3b4b5dfe4d",
   "metadata": {},
   "outputs": [],
   "source": [
    "# Creating empty MIDI file object,\n",
    "midi_file = mido.MidiFile()\n",
    "\n",
    "# Create empty track,\n",
    "track = mido.MidiTrack()\n",
    "\n",
    "# Append track to the MIDI file object tracklist,\n",
    "midi_file.tracks.append(track)\n",
    "\n",
    "# Adding notes to the track,\n",
    "track.append(mido.Message(\"program_change\", program = 12, time = 0))\n",
    "track.append(mido.Message(\"note_on\", note = 64, velocity = 64, time = 32))\n",
    "track.append(mido.Message(\"note_off\", note = 64, velocity = 127, time = 32))\n",
    "\n",
    "# Saving MIDI file,\n",
    "midi_file.save(\"new_song.mid\")"
   ]
  },
  {
   "cell_type": "markdown",
   "id": "a6436e31-5b23-4884-829e-481c14b244d1",
   "metadata": {},
   "source": [
    "# References\n"
   ]
  },
  {
   "cell_type": "markdown",
   "id": "57acebac-fca5-4c8c-8b62-ad935046423e",
   "metadata": {},
   "source": [
    "[[1]](https://www.researchgate.net/publication/273059997_Music_Instrument_Digital_Interface_MIDI_-_Music_in_the_Social_and_Behavioral_Sciences) Chattah, Juan. (2014). Music Instrument Digital Interface (MIDI) - Music in the Social and Behavioral Sciences. Encyclopedia of Music in the Social and Behavioral Sciences. II. 789. "
   ]
  }
 ],
 "metadata": {
  "kernelspec": {
   "display_name": "Python 3 (ipykernel)",
   "language": "python",
   "name": "python3"
  },
  "language_info": {
   "codemirror_mode": {
    "name": "ipython",
    "version": 3
   },
   "file_extension": ".py",
   "mimetype": "text/x-python",
   "name": "python",
   "nbconvert_exporter": "python",
   "pygments_lexer": "ipython3",
   "version": "3.12.5"
  }
 },
 "nbformat": 4,
 "nbformat_minor": 5
}
